<svg width="74" height="74" fill="none" xmlns="http://www.w3.org/2000/svg"><path d="M39.492 46.447h-4.23a2.784 2.784 0 1 1 0-5.57h7.445a1.85 1.85 0 0 0 1.846-1.846c0-1.015-.83-1.846-1.846-1.846h-3.492v-2.57c0-1.015-.83-1.846-1.846-1.846s-1.846.831-1.846 1.847v2.569h-.262a6.487 6.487 0 0 0-6.477 6.477 6.487 6.487 0 0 0 6.477 6.477h4.23a2.784 2.784 0 1 1 0 5.569h-7.584c-1.015 0-1.846.83-1.846 1.846 0 1.015.83 1.846 1.846 1.846h3.631v2.631c0 1.016.83 1.846 1.846 1.846s1.846-.83 1.846-1.846v-2.63h.354c3.539-.047 6.385-2.94 6.385-6.478a6.487 6.487 0 0 0-6.477-6.477Z" fill="#108DD4"/><path d="M65.123 42.261c-1.939-4.461-4.616-8.784-8-12.83-4.093-4.923-8.17-8.216-10.247-9.739l7.846-14.554a1.821 1.821 0 0 0-.338-2.184C52.354.969 50.2 0 47.8 0c-2.2 0-4.216.83-5.97 1.57-1.384.568-2.692 1.122-3.754 1.122-.323 0-.6-.046-.877-.154C33.538 1.2 30.724.37 28 .37c-3.446 0-6.384 1.385-9.261 4.339a1.857 1.857 0 0 0-.215 2.307L26.983 19.8c-2.092 1.554-6.092 4.815-10.108 9.63-3.369 4.047-6.061 8.37-8 12.831-2.43 5.616-3.661 11.477-3.661 17.416C5.215 67.569 11.645 74 19.538 74H54.46c7.892 0 14.323-6.43 14.323-14.323 0-5.938-1.23-11.8-3.662-17.416ZM22.46 6.246c1.786-1.538 3.493-2.215 5.54-2.215 2.184 0 4.646.738 7.922 1.954a6.26 6.26 0 0 0 2.139.369c1.8 0 3.523-.708 5.17-1.4 1.584-.662 3.091-1.292 4.553-1.292.708 0 1.708.123 2.97 1.015L43.368 18.4H30.507L22.461 6.246Zm32 64.062H19.538c-5.862 0-10.63-4.77-10.63-10.631 0-9.862 3.615-19.215 10.722-27.8 4.492-5.43 9.062-8.8 10.446-9.785h13.816c1.4.97 5.954 4.354 10.446 9.785C61.46 40.462 65.06 49.8 65.06 59.677c.03 5.861-4.739 10.63-10.6 10.63Z" fill="#108DD4"/></svg>