<svg width="66" height="47" fill="none" xmlns="http://www.w3.org/2000/svg"><path d="M.978 31V11.668c0-1.68.54-3.036 1.62-4.068 1.08-1.056 2.472-1.584 4.176-1.584 5.783 0 9.803.168 12.06.504l-.36 5.472h-8.172c-.456 0-.828.12-1.116.36-.264.24-.396.552-.396.936V31H.978ZM47.145 12.027 46.569 6.7c2.376-.552 5.4-.828 9.072-.828 3.408 0 5.76.456 7.056 1.368 1.32.888 1.98 2.592 1.98 5.112 0 1.824-.336 3.192-1.008 4.104-.672.888-1.776 1.404-3.312 1.548v.216c1.824.168 3.132.792 3.924 1.872.792 1.08 1.188 2.652 1.188 4.716 0 2.472-.672 4.176-2.016 5.112-1.32.912-3.54 1.368-6.66 1.368-4.272 0-7.812-.456-10.62-1.368l.576-5.076c3.456.552 6.288.828 8.496.828.888 0 1.476-.156 1.764-.468.312-.336.468-.996.468-1.98 0-1.032-.156-1.704-.468-2.016-.288-.336-.888-.516-1.8-.54l-5.472-.108V15.7l5.4-.108c.744-.024 1.236-.168 1.476-.432.24-.288.36-.852.36-1.692 0-.792-.132-1.32-.396-1.584-.24-.264-.732-.396-1.476-.396-2.16 0-4.812.18-7.956.54Z" fill="#108DD4"/><path fill-rule="evenodd" clip-rule="evenodd" d="M19 20.985C19 11.728 32 0 32 0c0 3.194 2.95 6.273 6.04 9.497 3.39 3.54 6.95 7.254 6.96 11.488 0 3.985-2.148 7.517-5.436 9.675 1.692-1.81 2.566-4.263 2.148-6.804-.498-3-3.45-5.284-6.26-7.457-2.55-1.972-4.982-3.854-5.353-6.098 0 0-7.811 9.553-6.747 16.078.38 2.35 1.787 4.333 3.744 5.62C22.345 30.226 19 25.963 19 20.986Zm6.253 5.29c0-4.82 6.747-10.91 6.747-10.91 0 1.657 1.53 3.255 3.133 4.93 1.763 1.84 3.614 3.774 3.614 5.98 0 2.07-1.121 3.915-2.832 5.029.894-.94 1.33-2.21 1.122-3.532-.25-1.56-1.785-2.748-3.246-3.878-1.325-1.025-2.59-2.003-2.78-3.17 0 0-4.047 4.96-3.496 8.353.19 1.218.931 2.244 1.938 2.923-2.47-.922-4.2-3.132-4.2-5.725Z" fill="#108DD4"/><path d="M9.778 43.829H6.934l-.6 2.172H4.462l2.388-7.8a.573.573 0 0 1 .228-.348.673.673 0 0 1 .408-.132h1.728c.344 0 .556.16.636.48l2.388 7.8h-1.86l-.6-2.172Zm-.396-1.416-.696-2.532c-.096-.4-.152-.66-.168-.78h-.324a16.949 16.949 0 0 1-.18.78l-.696 2.532h2.064ZM21.399 41.657v.048c.152.024.292.052.42.084.128.024.248.068.36.132l.312.168a.822.822 0 0 1 .264.264l.228.288c.064.072.136.204.216.396.088.192.156.344.204.456.048.104.116.292.204.564.096.272.168.484.216.636.048.144.128.392.24.744l.18.564h-1.908c-.448-1.464-.752-2.36-.912-2.688-.248-.504-.56-.804-.936-.9a1.841 1.841 0 0 0-.492-.06h-.588c.064.296.096.56.096.792v2.856h-1.824v-8.28h1.824v2.34c0 .312-.032.64-.096.984h.564c.568 0 .976-.216 1.224-.648.256-.432.568-1.284.936-2.556l.036-.12h1.86c-.448 1.408-.732 2.244-.852 2.508-.28.624-.632 1.036-1.056 1.236-.2.088-.44.152-.72.192ZM36.023 39.209H33.55v6.792h-1.836v-6.792h-2.472v-1.488h6.78v1.488ZM48.462 46.001H46.71v-4.944c0-.368.036-.74.108-1.116h-.084c-.12.368-.276.732-.468 1.092l-2.796 4.968h-1.812v-8.28h1.74v4.86c0 .344-.032.728-.096 1.152h.072c.104-.304.264-.664.48-1.08l2.796-4.932h1.812v8.28ZM59.333 41.681v.048c.616.056 1.052.268 1.308.636.264.36.396.884.396 1.572 0 .832-.212 1.4-.636 1.704-.424.304-1.144.456-2.16.456-1.528 0-2.696-.032-3.504-.096v-8.28c.72-.064 1.76-.096 3.12-.096 1.096 0 1.856.152 2.28.456.424.296.636.864.636 1.704 0 .6-.112 1.056-.336 1.368-.224.304-.592.48-1.104.528Zm-2.808-.576h1.344c.44 0 .74-.072.9-.216.168-.144.252-.428.252-.852 0-.416-.088-.692-.264-.828-.168-.136-.5-.204-.996-.204l-1.236-.012v2.112Zm0 3.612h1.392c.512 0 .856-.072 1.032-.216.176-.152.264-.456.264-.912 0-.496-.092-.828-.276-.996-.184-.176-.536-.268-1.056-.276h-1.356v2.4Z" fill="#424242"/></svg>