<svg width="40" height="40" fill="none" xmlns="http://www.w3.org/2000/svg"><path d="M28.384 2.822c-2.312 0-4.458.689-6.267 1.86.254-1.55.198-2.993-.445-3.888-2.168-3-5.798 3.52-7.466 2.853C12.536 2.981 8.984-.5 6.63.92 4.59 2.147 7.908 10.39 9.51 11.58c0 0 2.585.616 5.123.616.947 0 1.77-.051 2.433-.115-.125.61-.187 1.242-.21 1.885a26.47 26.47 0 0 1-2.356.117c-1.997 0-3.918-.217-5.72-.615C5.614 16.024.07 25.11.07 29.07.07 36.212 6.361 40 14.125 40c7.761 0 14.054-3.788 14.054-10.929 0-.858-.249-1.962-.664-3.202.286.024.574.044.866.044 6.367 0 11.546-5.18 11.546-11.546.001-6.364-5.18-11.545-11.544-11.545Zm-9.87 28.474a2.934 2.934 0 0 1-.664.913 3.379 3.379 0 0 1-1.006.635 3.874 3.874 0 0 1-1.263.286v.955h-2.116v-1.24c-.112-.051-.22-.097-.325-.144a5.051 5.051 0 0 1-.31-.14v.465h-2.116v-3.175h2.116c.181.203.359.38.538.523.176.146.356.271.545.361.185.098.392.171.617.213.228.046.489.07.779.07.384 0 .701-.078.952-.234.254-.156.38-.361.38-.613a.825.825 0 0 0-.196-.548 1.68 1.68 0 0 0-.507-.4 3.184 3.184 0 0 0-.68-.264 7.162 7.162 0 0 0-.734-.159c-.858-.13-1.543-.332-2.056-.605-.515-.271-.909-.567-1.187-.891-.276-.322-.458-.651-.545-.991a3.717 3.717 0 0 1-.127-.899c0-.384.071-.745.21-1.089.141-.34.341-.647.599-.91.256-.27.559-.49.906-.667.349-.178.73-.294 1.142-.353v-1h2.117v1.152c.312.088.593.21.847.36v-.458h2.114v3.176h-2.131a7.781 7.781 0 0 0-.498-.507 2.456 2.456 0 0 0-1.111-.581 3.348 3.348 0 0 0-.764-.078c-.422 0-.747.1-.974.303-.226.202-.338.417-.338.65 0 .653.703 1.09 2.116 1.302.874.13 1.575.343 2.092.643.518.294.915.617 1.186.966.272.345.447.688.523 1.023.074.34.113.614.113.825a2.672 2.672 0 0 1-.244 1.125Zm10.832-8.07-.964-1.148-.965 1.147c-4.13-.445-7.422-3.727-7.886-7.856l1.273-1.067-1.253-1.055c.515-4.077 3.789-7.305 7.89-7.736l.94 1.119.94-1.12c4.096.433 7.37 3.656 7.89 7.728l-1.35 1.13 1.35 1.135c-.52 4.063-3.776 7.282-7.865 7.722Z" fill="#0BD373"/><path d="M29.666 13.923a1.269 1.269 0 0 0-.174-.264l-1.11-6.42-1.176 6.495h.004a1.413 1.413 0 0 0-.273.838c0 .799.65 1.447 1.445 1.447.167 0 .325-.033.474-.087l-.002.007 4.372.51-3.559-2.533v.007Z" fill="#0BD373"/></svg>