<svg width="64" height="64" fill="none" xmlns="http://www.w3.org/2000/svg"><g clip-path="url(#a)" fill="#108DD4"><path d="M45.997 64c-2.066 0-4.115-.365-6.118-1.093-8.824-3.206-17.015-8.427-23.687-15.099-6.673-6.672-11.894-14.863-15.1-23.687C.063 21.285-.24 18.358.19 15.42a18.12 18.12 0 0 1 3.082-7.726A18.194 18.194 0 0 1 9.52 2.132C12.15.717 15.02 0 18.052 0a2 2 0 0 1 1.956 1.58l3.139 14.65a2 2 0 0 1-.542 1.833l-5.364 5.364a52.643 52.643 0 0 0 23.331 23.331l5.364-5.364a2 2 0 0 1 1.834-.541l14.649 3.14a2 2 0 0 1 1.58 1.955c0 3.032-.717 5.902-2.131 8.532a18.194 18.194 0 0 1-5.562 6.247 18.119 18.119 0 0 1-7.726 3.083c-.862.127-1.725.19-2.583.19ZM16.454 4.087c-4 .442-7.549 2.538-9.906 5.902-2.65 3.783-3.269 8.436-1.696 12.766a60.66 60.66 0 0 0 36.393 36.393c4.33 1.572 8.983.954 12.766-1.696 3.364-2.357 5.46-5.907 5.902-9.906l-11.917-2.554-5.602 5.602a2 2 0 0 1-2.265.396A56.63 56.63 0 0 1 13.01 23.87a2 2 0 0 1 .396-2.264l5.602-5.602-2.554-11.917ZM62 33.999a2 2 0 0 1-2-2c0-15.439-12.56-28-28-28A2 2 0 0 1 32 0c8.548 0 16.584 3.328 22.627 9.372C60.671 15.416 64 23.452 64 32a2 2 0 0 1-2 2Z"/><path d="M54 33.999a2 2 0 0 1-2-2c0-11.027-8.972-20-20-20A2 2 0 0 1 32 8c13.234 0 24 10.766 24 23.999a2 2 0 0 1-2 2Z"/><path d="M46 33.998a2 2 0 0 1-2-2c0-6.616-5.383-12-12-12A2 2 0 0 1 32 16c8.823 0 16 7.177 16 16a2 2 0 0 1-2 2Z"/></g><defs><clipPath id="a"><path fill="#fff" d="M0 0h64v64H0z"/></clipPath></defs></svg>