<svg width="64" height="64" fill="none" xmlns="http://www.w3.org/2000/svg"><path d="M57.333 0H6.667A6.675 6.675 0 0 0 0 6.667v50.666A6.675 6.675 0 0 0 6.667 64h50.666A6.675 6.675 0 0 0 64 57.333V6.667A6.674 6.674 0 0 0 57.333 0Zm4 57.333a4 4 0 0 1-4 4H6.667a4 4 0 0 1-4-4V6.667a4 4 0 0 1 4-4h50.666a4 4 0 0 1 4 4v50.666Z" fill="#108DD4"/><path d="M58.667 10.667H5.334v2.667h53.333v-2.667ZM9.333 5.333H6.666V8h2.667V5.333Zm5.334 0H12V8h2.667V5.333Zm42.666 0h-2.667V8h2.667V5.333ZM52 18.667H12a2.667 2.667 0 0 0-2.666 2.667v5.333a2.667 2.667 0 0 0 2.667 2.667h40a2.667 2.667 0 0 0 2.666-2.667v-5.333a2.667 2.667 0 0 0-2.666-2.667Zm0 8H12v-5.333h40v5.333Zm0 6.666H12A2.667 2.667 0 0 0 9.335 36v5.333A2.667 2.667 0 0 0 12.001 44h40a2.667 2.667 0 0 0 2.666-2.667V36a2.667 2.667 0 0 0-2.666-2.667Zm0 8H12V36h40v5.333ZM21.333 48H10.666c-.736 0-1.333.597-1.333 1.333v4A2.667 2.667 0 0 0 12 56h8a2.667 2.667 0 0 0 2.666-2.667v-4c0-.736-.596-1.333-1.333-1.333ZM20 53.333h-8v-2.666h8v2.666ZM37.334 48H26.667c-.736 0-1.333.597-1.333 1.333v4A2.667 2.667 0 0 0 28.001 56h8a2.667 2.667 0 0 0 2.666-2.667v-4c0-.736-.597-1.333-1.333-1.333Zm-1.333 5.333h-8v-2.666h8v2.666ZM54.667 48H52v2.667h2.667V48Zm-5.334 0h-2.667v2.667h2.667V48Zm5.333 5.333h-12V56h12v-2.667Z" fill="#108DD4"/></svg>