<svg width="28" height="28" viewBox="0 0 28 28" fill="none" xmlns="http://www.w3.org/2000/svg">
<g clip-path="url(#clip0_3_710)">
<path d="M27.2708 20.0411C26.7485 19.2735 25.8625 19.086 24.9 19.539L24.3898 19.7636C25.1942 18.0491 25.294 16.138 24.8936 14.3327C24.4337 12.2594 23.3229 10.2508 21.5922 8.36282C21.4392 8.19586 21.1798 8.18459 21.0128 8.33766C20.8458 8.49067 20.8346 8.75006 20.9876 8.91707C22.6198 10.6975 23.6646 12.5793 24.0929 14.5103C24.544 16.5443 24.2816 18.6419 23.1303 20.3181L18.0257 22.5657L18.0299 21.9892C18.03 21.9746 18.0294 21.9601 18.0279 21.9456C17.91 20.7607 17.0043 19.8166 15.8253 19.6498C15.8218 19.6493 15.8183 19.6488 15.8147 19.6485L11.2778 19.1261C9.53322 18.8777 9.08391 17.8323 6.72119 17.2361C6.55795 15.8509 6.77555 14.376 7.37197 12.8974C8.27021 10.6707 10.0275 8.50725 12.4636 6.62419C13.3716 7.26797 17.4224 7.34809 18.3289 6.5176C18.7933 6.87028 19.2366 7.23374 19.6495 7.60162C19.7276 7.67129 19.8251 7.70553 19.9221 7.70553C20.035 7.70553 20.1475 7.65921 20.2285 7.56826C20.3791 7.39917 20.3641 7.13995 20.195 6.98928C19.7424 6.58607 19.2556 6.18822 18.745 5.80371C18.8647 5.29632 18.6972 4.70247 18.2553 4.34897C19.5393 2.40144 19.9128 1.12673 19.3969 0.458887C19.0426 0.000113279 18.6018 0.215418 18.4136 0.307402C18.0945 0.463152 17.9206 0.471355 17.627 0.279293C17.067 -0.087168 16.4783 -0.0989805 15.9002 0.279293C15.6029 0.473816 15.3688 0.473816 15.0716 0.279293C14.5115 -0.087168 13.9231 -0.0989805 13.3449 0.279293C13.0479 0.473652 12.8733 0.461621 12.5593 0.305543C12.3713 0.212082 11.931 -0.00677737 11.5744 0.452051C11.0702 1.10108 11.4075 2.3356 12.6049 4.2169C12.5316 4.25655 12.4617 4.30309 12.3964 4.35625C11.9202 3.85334 11.14 3.32883 10.0117 3.45483C9.07582 3.55956 8.38571 3.2503 7.97151 2.97249C7.78339 2.84649 7.52865 2.89669 7.40254 3.08471C7.27643 3.27283 7.32669 3.52757 7.51476 3.65368C8.04277 4.00767 8.92028 4.40175 10.1027 4.26989C10.9744 4.17211 11.5659 4.6176 11.9341 5.07096C11.9291 5.08846 11.9244 5.10607 11.9201 5.12368C11.606 5.1286 11.1367 5.15791 10.6198 5.26543C9.3766 5.52404 8.4538 6.11483 7.95106 6.97408C7.83671 7.16953 7.90244 7.42077 8.09789 7.53518C8.2934 7.64953 8.54458 7.58374 8.65893 7.38828C9.40673 6.11029 11.232 5.954 11.957 5.94421C11.9601 5.95323 11.9638 5.96214 11.9671 5.97111C9.37993 7.96682 7.57874 10.1924 6.61143 12.5905C6.00003 14.1063 5.75579 15.6248 5.87977 17.068C5.48651 17.0098 5.08871 16.9786 4.689 16.9758V16.7278C4.689 16.0716 4.15514 15.5378 3.49895 15.5378H1.61639C0.96019 15.5378 0.426331 16.0717 0.426331 16.7278V26.2787C0.426331 26.9349 0.96019 27.4687 1.61639 27.4687H3.49889C4.15509 27.4687 4.68895 26.9349 4.68895 26.2787V26.1618L8.79549 27.6903C9.34734 27.8957 9.92571 27.9998 10.5145 27.9998H16.6333C17.5688 27.9998 18.4809 27.7352 19.271 27.2345C27.4336 22.06 26.938 22.3819 26.9851 22.3401C27.6426 21.7565 27.7654 20.7681 27.2708 20.0411ZM17.5594 6.03165C16.0597 6.41031 14.6017 6.41031 13.1017 6.03165C12.4581 5.86896 12.6446 4.72107 13.3362 4.89453C14.6782 5.23141 15.9828 5.23141 17.3248 4.89453C18.0045 4.72391 18.2133 5.86639 17.5594 6.03165ZM12.1847 1.03535C12.188 1.03693 12.1912 1.03857 12.1943 1.04011C12.7493 1.31595 13.2356 1.33093 13.7939 0.965676C14.4926 0.508324 14.5685 1.24163 15.4858 1.24163C15.9275 1.24163 16.1712 1.08216 16.3492 0.965676C16.6465 0.771098 16.8807 0.771207 17.178 0.965676C17.7388 1.33263 18.2133 1.31453 18.7845 1.03907C18.8689 1.34324 18.6779 2.25001 17.4619 4.0605C16.858 4.05021 15.9817 4.6433 13.501 4.09123C12.2876 2.25734 12.0999 1.34176 12.1847 1.03535ZM26.4628 21.7067L18.8321 26.542C18.1735 26.9593 17.4131 27.18 16.6334 27.18H10.5146C10.0238 27.18 9.54164 27.0931 9.08161 26.9219L4.68895 25.2869V20.8706C4.68895 20.6441 4.50536 20.4605 4.2789 20.4605C4.05244 20.4605 3.86885 20.6441 3.86885 20.8706V26.2789C3.86885 26.4829 3.70288 26.6488 3.49895 26.6488H1.61639C1.4124 26.6488 1.24648 26.4828 1.24648 26.2789V16.728C1.24648 16.524 1.4124 16.3582 1.61639 16.3582H3.49889C3.70288 16.3582 3.8688 16.5241 3.8688 16.728V18.9535C3.8688 19.18 4.05239 19.3636 4.27885 19.3636C4.50531 19.3636 4.68889 19.18 4.68889 18.9535V17.7962C8.08121 17.8222 8.84394 19.6102 11.168 19.9389C11.1715 19.9394 11.175 19.9399 11.1785 19.9403L15.7153 20.4626C16.5097 20.5773 17.121 21.2098 17.2095 22.0063L17.2038 22.7863H12.9729C12.7464 22.7863 12.5628 22.9699 12.5628 23.1964C12.5628 23.4229 12.7464 23.6065 12.9729 23.6065H17.6109C17.6627 23.6065 17.7225 23.595 17.7746 23.5723C17.7829 23.5686 25.2265 20.2914 25.2352 20.2875C25.7717 20.0491 26.2609 20.015 26.5926 20.5025C26.8505 20.8813 26.7934 21.3935 26.4628 21.7067Z" fill="#151515"/>
<path d="M15.4385 18.6059C15.665 18.6059 15.8486 18.4223 15.8486 18.1958V17.5161C16.9999 17.3293 17.6716 16.3974 17.8177 15.5281C18.0003 14.4422 17.4315 13.4978 16.3687 13.1221C16.1809 13.0558 16.0081 12.9923 15.8486 12.931V10.3162C16.3337 10.3967 16.625 10.6478 16.6462 10.6665C16.8128 10.818 17.0706 10.8068 17.2234 10.6411C17.377 10.4746 17.3665 10.2152 17.2 10.0616C17.1711 10.0349 16.6689 9.58272 15.8486 9.48816V8.90497C15.8486 8.67846 15.665 8.49487 15.4385 8.49487C15.212 8.49487 15.0284 8.67846 15.0284 8.90497V9.5213C14.9296 9.54022 14.8283 9.56429 14.7242 9.59562C14.0286 9.80513 13.5086 10.4016 13.3671 11.1522C13.2388 11.8333 13.4548 12.4884 13.9307 12.8617C14.204 13.076 14.548 13.2722 15.0284 13.482V16.725C14.5542 16.7049 14.2623 16.6159 13.753 16.2828C13.5635 16.1588 13.3093 16.2118 13.1854 16.4014C13.0614 16.5909 13.1145 16.8451 13.304 16.9691C13.9735 17.407 14.421 17.5213 15.0284 17.5449V18.1958C15.0284 18.4223 15.212 18.6059 15.4385 18.6059ZM14.4369 12.2164C14.2028 12.0327 14.1017 11.6832 14.1731 11.3041C14.2394 10.9526 14.4811 10.5255 14.9608 10.381C14.9836 10.3741 15.006 10.3682 15.0284 10.3622V12.5773C14.7829 12.4547 14.5903 12.3367 14.4369 12.2164ZM16.0953 13.8954C17.1158 14.2561 17.0526 15.1323 17.0089 15.3922C16.9184 15.9304 16.5234 16.5049 15.8486 16.6779V13.8066C15.9284 13.8358 16.01 13.8652 16.0953 13.8954Z" fill="#151515"/>
</g>
<defs>
<clipPath id="clip0_3_710">
<rect width="28" height="28" fill="white"/>
</clipPath>
</defs>
</svg>
