<svg width="44" height="44" viewBox="0 0 44 44" fill="none" xmlns="http://www.w3.org/2000/svg">
<g clip-path="url(#clip0_4_1630)">
<path d="M15.1878 16.4657C15.1878 14.893 13.9081 13.6123 12.3347 13.6123C10.762 13.6123 9.48132 14.893 9.48132 16.4657C9.48132 18.0391 10.762 19.3188 12.3347 19.3188C13.9081 19.3188 15.1878 18.0391 15.1878 16.4657Z" fill="#F4CD2E"/>
<path d="M8.10126 26.1293V27.603H16.5688V26.131C16.5688 23.7959 14.6694 21.8969 12.3347 21.8969C9.9996 21.8969 8.10126 23.7959 8.10126 26.1293Z" fill="#F4CD2E"/>
<path d="M35.1165 9.47034H25.4523C24.8745 9.47034 24.3307 9.69559 23.9225 10.1045C23.5143 10.5127 23.2891 11.0558 23.2891 11.6335V19.5801L25.4271 18.1554C25.6386 18.0134 25.8877 17.9385 26.1421 17.9385H35.1165C36.3096 17.9385 37.2798 16.9684 37.2798 15.7757V11.6335C37.2798 11.0558 37.0545 10.5127 36.6463 10.1038C36.2374 9.69559 35.6943 9.47034 35.1165 9.47034ZM26.1421 14.9935C25.4308 14.9935 24.8531 14.4161 24.8531 13.7044C24.8531 12.9931 25.4308 12.4154 26.1421 12.4154C26.8538 12.4154 27.4312 12.9931 27.4312 13.7044C27.4312 14.4161 26.8538 14.9935 26.1421 14.9935ZM30.2842 14.9935C29.5729 14.9935 28.9952 14.4161 28.9952 13.7044C28.9952 12.9931 29.5729 12.4154 30.2842 12.4154C30.9959 12.4154 31.5733 12.9931 31.5733 13.7044C31.5733 14.4161 30.9959 14.9935 30.2842 14.9935ZM34.4267 14.9935C33.715 14.9935 33.1376 14.4161 33.1376 13.7044C33.1376 12.9931 33.715 12.4154 34.4267 12.4154C35.138 12.4154 35.7158 12.9931 35.7158 13.7044C35.7158 14.4161 35.138 14.9935 34.4267 14.9935Z" fill="#F4CD2E"/>
<path d="M39.9499 2.75H4.05014C1.83121 2.75 0 4.54361 0 6.80115V27.6031H5.52316V26.1294C5.52316 23.7429 6.75818 21.6408 8.62128 20.4239C7.56519 19.4323 6.9032 18.0254 6.9032 16.4658C6.9032 13.4707 9.33966 11.0342 12.3347 11.0342C15.3294 11.0342 17.7659 13.4707 17.7659 16.4658C17.7659 18.0254 17.1042 19.433 16.0478 20.4249C17.9119 21.6415 19.1469 23.7436 19.1469 26.131V27.6031H44V6.80115C44 4.53589 42.1611 2.75 39.9499 2.75V2.75ZM39.8579 15.7756C39.8579 18.3896 37.7309 20.5166 35.1165 20.5166H26.5322L22.715 23.0615C21.859 23.6318 20.7109 23.0158 20.7109 21.9889V11.6335C20.7109 9.01068 22.8335 6.89212 25.4523 6.89212H35.1165C37.7393 6.89212 39.8579 9.01471 39.8579 11.6335V15.7756Z" fill="#F4CD2E"/>
<path d="M0 31.6539C0 33.9185 1.83926 35.7043 4.05048 35.7043H20.7109V38.649H15.0965C14.3845 38.649 13.8074 39.2264 13.8074 39.9381C13.8074 40.6501 14.3845 41.2272 15.0965 41.2272H28.9035C29.6155 41.2272 30.1926 40.6501 30.1926 39.9381C30.1926 39.2264 29.6155 38.649 28.9035 38.649H23.2891V35.7043H39.9495C42.1685 35.7043 44 33.9111 44 31.6539V30.1815H0V31.6539Z" fill="#F4CD2E"/>
</g>
<defs>
<clipPath id="clip0_4_1630">
<rect width="44" height="44" fill="white"/>
</clipPath>
</defs>
</svg>
