<svg width="28" height="28" viewBox="0 0 28 28" fill="none" xmlns="http://www.w3.org/2000/svg">
<path d="M26.8649 25.3512H17.9503C17.85 25.3512 17.7537 25.3114 17.6828 25.2404C17.6118 25.1695 17.572 25.0732 17.572 24.9729C17.572 24.8725 17.6118 24.7763 17.6828 24.7053C17.7537 24.6343 17.85 24.5945 17.9503 24.5945H26.8649C26.9653 24.5945 27.0615 24.6343 27.1325 24.7053C27.2034 24.7763 27.2433 24.8725 27.2433 24.9729C27.2433 25.0732 27.2034 25.1695 27.1325 25.2404C27.0615 25.3114 26.9653 25.3512 26.8649 25.3512Z" fill="#151515"/>
<path d="M11.5291 25.3512H10.428C10.3277 25.3512 10.2314 25.3114 10.1605 25.2404C10.0895 25.1695 10.0497 25.0732 10.0497 24.9729C10.0497 24.8725 10.0895 24.7763 10.1605 24.7053C10.2314 24.6343 10.3277 24.5945 10.428 24.5945H11.5291C11.6295 24.5945 11.7257 24.6343 11.7967 24.7053C11.8676 24.7763 11.9075 24.8725 11.9075 24.9729C11.9075 25.0732 11.8676 25.1695 11.7967 25.2404C11.7257 25.3114 11.6295 25.3512 11.5291 25.3512Z" fill="#151515"/>
<path d="M7.77942 25.3514H3.02698C2.92663 25.3514 2.83039 25.3116 2.75943 25.2406C2.68847 25.1696 2.64861 25.0734 2.64861 24.9731V1.13521C2.64861 1.03486 2.68847 0.93862 2.75943 0.86766C2.83039 0.796701 2.92663 0.756836 3.02698 0.756836C3.12734 0.756836 3.22358 0.796701 3.29454 0.86766C3.3655 0.93862 3.40536 1.03486 3.40536 1.13521V24.5947H7.77942C7.87977 24.5947 7.97601 24.6345 8.04697 24.7055C8.11793 24.7765 8.15779 24.8727 8.15779 24.9731C8.15779 25.0734 8.11793 25.1696 8.04697 25.2406C7.97601 25.3116 7.87977 25.3514 7.77942 25.3514Z" fill="#151515"/>
<path d="M15.3016 25.3512H14.1778C14.0775 25.3512 13.9812 25.3114 13.9103 25.2404C13.8393 25.1695 13.7994 25.0732 13.7994 24.9729C13.7994 24.8725 13.8393 24.7763 13.9103 24.7053C13.9812 24.6343 14.0775 24.5945 14.1778 24.5945H15.3016C15.4019 24.5945 15.4982 24.6343 15.5691 24.7053C15.6401 24.7763 15.68 24.8725 15.68 24.9729C15.68 25.0732 15.6401 25.1695 15.5691 25.2404C15.4982 25.3114 15.4019 25.3512 15.3016 25.3512Z" fill="#151515"/>
<path d="M4.91896 3.4054C4.81861 3.40538 4.72239 3.3655 4.65144 3.29454L3.02706 1.67016L1.40269 3.29454C1.33132 3.36346 1.23574 3.4016 1.13653 3.40074C1.03732 3.39988 0.942423 3.36008 0.872269 3.28993C0.802114 3.21978 0.76232 3.12487 0.761458 3.02566C0.760596 2.92645 0.798735 2.83087 0.867659 2.75951L2.75955 0.86762C2.83051 0.796685 2.92673 0.756836 3.02706 0.756836C3.1274 0.756836 3.22362 0.796685 3.29458 0.86762L5.18647 2.75951C5.23937 2.81243 5.27539 2.87984 5.28999 2.95323C5.30458 3.02662 5.29709 3.10268 5.26846 3.17181C5.23982 3.24094 5.19134 3.30003 5.12913 3.34161C5.06692 3.38319 4.99378 3.40539 4.91896 3.4054Z" fill="#151515"/>
<path d="M24.9729 27.2432C24.8981 27.2431 24.8249 27.2209 24.7627 27.1794C24.7005 27.1378 24.652 27.0787 24.6234 27.0096C24.5948 26.9404 24.5873 26.8644 24.6019 26.791C24.6165 26.7176 24.6525 26.6502 24.7054 26.5973L26.3298 24.9729L24.7054 23.3485C24.6365 23.2772 24.5983 23.1816 24.5992 23.0824C24.6 22.9832 24.6398 22.8883 24.71 22.8181C24.7801 22.7479 24.875 22.7082 24.9743 22.7073C25.0735 22.7064 25.169 22.7446 25.2404 22.8135L27.1323 24.7054C27.2032 24.7763 27.2431 24.8726 27.2431 24.9729C27.2431 25.0732 27.2032 25.1695 27.1323 25.2404L25.2404 27.1323C25.1695 27.2033 25.0732 27.2431 24.9729 27.2432Z" fill="#151515"/>
<path d="M22.9391 21.5677H20.2103C20.1099 21.5677 20.0137 21.5278 19.9427 21.4568C19.8717 21.3859 19.8319 21.2896 19.8319 21.1893V11.1032C19.8319 11.0029 19.8717 10.9066 19.9427 10.8357C20.0137 10.7647 20.1099 10.7249 20.2103 10.7249H22.9391C23.0395 10.7249 23.1357 10.7647 23.2067 10.8357C23.2776 10.9066 23.3175 11.0029 23.3175 11.1032V21.1893C23.3175 21.2896 23.2776 21.3859 23.2067 21.4568C23.1357 21.5278 23.0395 21.5677 22.9391 21.5677ZM20.5886 20.8109H22.5607V11.4816H20.5886V20.8109Z" fill="#151515"/>
<path d="M18.0943 21.5675H15.3651C15.2647 21.5675 15.1685 21.5277 15.0975 21.4567C15.0265 21.3857 14.9867 21.2895 14.9867 21.1891V14C14.9867 13.8996 15.0265 13.8034 15.0975 13.7324C15.1685 13.6614 15.2647 13.6216 15.3651 13.6216H18.0943C18.1946 13.6216 18.2909 13.6614 18.3618 13.7324C18.4328 13.8034 18.4727 13.8996 18.4727 14V21.1891C18.4727 21.2895 18.4328 21.3857 18.3618 21.4567C18.2909 21.5277 18.1946 21.5675 18.0943 21.5675ZM15.7434 20.8108H17.7159V14.3783H15.7434V20.8108Z" fill="#151515"/>
<path d="M13.2497 21.5677H10.519C10.4186 21.5677 10.3224 21.5278 10.2514 21.4568C10.1804 21.3859 10.1406 21.2896 10.1406 21.1893V11.1032C10.1406 11.0029 10.1804 10.9066 10.2514 10.8357C10.3224 10.7647 10.4186 10.7249 10.519 10.7249H13.2482C13.3486 10.7249 13.4448 10.7647 13.5158 10.8357C13.5867 10.9066 13.6266 11.0029 13.6266 11.1032V21.1893C13.6266 21.2894 13.5869 21.3854 13.5163 21.4563C13.4457 21.5272 13.3498 21.5673 13.2497 21.5677ZM10.8973 20.8109H12.8698V11.4816H10.8973V20.8109Z" fill="#151515"/>
<path d="M8.40445 21.5675H5.67559C5.57524 21.5675 5.47899 21.5277 5.40804 21.4567C5.33708 21.3857 5.29721 21.2895 5.29721 21.1891V14C5.29721 13.8996 5.33708 13.8034 5.40804 13.7324C5.47899 13.6614 5.57524 13.6216 5.67559 13.6216H8.40445C8.5048 13.6216 8.60105 13.6614 8.672 13.7324C8.74296 13.8034 8.78283 13.8996 8.78283 14V21.1891C8.78283 21.2895 8.74296 21.3857 8.672 21.4567C8.60105 21.5277 8.5048 21.5675 8.40445 21.5675ZM6.05397 20.8108H8.02607V14.3783H6.05397V20.8108Z" fill="#151515"/>
<path d="M7.04008 12.1084C6.96362 12.1083 6.88897 12.0852 6.82595 12.0419C6.76294 11.9986 6.71452 11.9372 6.68707 11.8658C6.65962 11.7945 6.65444 11.7165 6.6722 11.6421C6.68996 11.5677 6.72983 11.5005 6.78656 11.4492L11.6313 7.07595C11.6963 7.01727 11.7797 6.98297 11.8672 6.9789C11.9547 6.97483 12.0409 7.00124 12.1111 7.05362L16.7023 10.4814L21.3083 6.15687C21.3446 6.12283 21.3871 6.09626 21.4336 6.07868C21.4801 6.06109 21.5296 6.05284 21.5793 6.05438C21.629 6.05593 21.6779 6.06725 21.7232 6.08769C21.7685 6.10813 21.8093 6.13729 21.8434 6.17351C21.8774 6.20974 21.904 6.25231 21.9216 6.2988C21.9391 6.34529 21.9474 6.39479 21.9459 6.44448C21.9443 6.49416 21.933 6.54305 21.9126 6.58836C21.8921 6.63367 21.863 6.6745 21.8267 6.70854L16.9888 11.2491C16.924 11.3098 16.8399 11.3459 16.7512 11.3508C16.6625 11.3558 16.5749 11.3294 16.5037 11.2763L11.9075 7.84405L7.29359 12.0108C7.22408 12.0736 7.13375 12.1083 7.04008 12.1084Z" fill="#151515"/>
<path d="M21.5675 9.08123C21.4671 9.08123 21.3709 9.04136 21.2999 8.9704C21.229 8.89944 21.1891 8.8032 21.1891 8.70285V6.81096H19.2972C19.1969 6.81096 19.1006 6.77109 19.0297 6.70013C18.9587 6.62917 18.9188 6.53293 18.9188 6.43258C18.9188 6.33223 18.9587 6.23598 19.0297 6.16502C19.1006 6.09406 19.1969 6.0542 19.2972 6.0542H21.5675C21.6678 6.0542 21.7641 6.09406 21.835 6.16502C21.906 6.23598 21.9459 6.33223 21.9459 6.43258V8.70285C21.9459 8.8032 21.906 8.89944 21.835 8.9704C21.7641 9.04136 21.6678 9.08123 21.5675 9.08123Z" fill="#151515"/>
</svg>
