<svg width="44" height="44" viewBox="0 0 44 44" fill="none" xmlns="http://www.w3.org/2000/svg">
<g clip-path="url(#clip0_4_1627)">
<path d="M39.9499 2.75H20.619C18.3819 2.75 16.5688 4.56342 16.5688 6.80014V16.3221C17.5907 16.83 18.6948 17.3792 19.7253 17.8914L21.3021 14.7366C22.2568 12.8289 24.5842 12.0537 26.4912 13.0068C28.4024 13.9632 29.1768 16.2842 28.2201 18.1956L25.4093 23.8185C25.4838 24.5627 25.4177 25.313 25.2079 26.0391H27.0636L22.1692 39.4977C21.8788 40.296 22.4401 41.2275 23.3811 41.2275C23.9071 41.2275 24.4019 40.9029 24.5919 40.3785L29.8066 26.0391H30.7099L35.9776 40.3829C36.1693 40.9046 36.6628 41.2275 37.1885 41.2275C38.0676 41.2275 38.7122 40.3493 38.3976 39.4943L33.4562 26.0391H39.9499C42.1866 26.0391 44 24.2256 44 21.9889V6.80014C44 4.56342 42.1866 2.75 39.9499 2.75V2.75ZM37.1878 20.5166H31.4041C30.6925 20.5166 30.1151 19.9392 30.1151 19.2275C30.1151 18.5152 30.6925 17.9384 31.4041 17.9384H37.1878C37.9001 17.9384 38.4768 18.5152 38.4768 19.2275C38.4768 19.9392 37.9001 20.5166 37.1878 20.5166ZM37.1878 15.6836H31.4041C30.6925 15.6836 30.1151 15.1069 30.1151 14.3945C30.1151 13.6829 30.6925 13.1055 31.4041 13.1055H37.1878C37.9001 13.1055 38.4768 13.6829 38.4768 14.3945C38.4768 15.1069 37.9001 15.6836 37.1878 15.6836ZM37.1878 10.8513H23.3811C22.6687 10.8513 22.092 10.2739 22.092 9.56223C22.092 8.85056 22.6687 8.27316 23.3811 8.27316H37.1878C37.9001 8.27316 38.4768 8.85056 38.4768 9.56223C38.4768 10.2739 37.9001 10.8513 37.1878 10.8513Z" fill="#F4CD2E"/>
<path d="M22.6808 25.4862C22.9138 24.8037 22.9121 24.0907 22.7154 23.4401L25.9145 17.0425C26.2328 16.4057 25.9749 15.6312 25.3381 15.313C24.7017 14.9944 23.9272 15.2526 23.6086 15.8894L20.8801 21.3457C19.2493 20.5337 16.7716 19.3017 14.7755 18.3091C12.9185 17.3856 11.5932 16.5574 9.33194 16.5574H8.19293C9.95364 16.5574 11.525 15.747 12.5536 14.4788C13.3384 13.5137 13.8077 12.2837 13.8077 10.9433C13.8077 7.8418 11.2941 5.32812 8.19226 5.32812C5.0918 5.32812 2.57812 7.8418 2.57812 10.9433C2.57812 12.4327 3.1582 13.7863 4.10452 14.7906C5.12772 15.8786 6.58093 16.5574 8.19193 16.5577C6.03207 16.5577 3.92056 17.4329 2.40155 18.9559C0.852997 20.5005 0 22.5583 0 24.7503V28.8925C0 30.6757 1.15781 32.193 2.76141 32.7328V39.9381C2.76141 40.6501 3.33847 41.2272 4.05048 41.2272H12.3347C13.0467 41.2272 13.6238 40.6501 13.6238 39.9381V25.4546C14.846 26.0656 16.4517 26.8682 17.7508 27.5181C18.6615 27.9733 19.7257 28.0143 20.6747 27.6282C21.621 27.2388 22.3505 26.4637 22.6758 25.5013C22.6774 25.4962 22.6791 25.4912 22.6808 25.4862Z" fill="#F4CD2E"/>
</g>
<defs>
<clipPath id="clip0_4_1627">
<rect width="44" height="44" fill="white"/>
</clipPath>
</defs>
</svg>
