<svg width="28" height="28" viewBox="0 0 28 28" fill="none" xmlns="http://www.w3.org/2000/svg">
<g clip-path="url(#clip0_3_797)">
<path d="M11.9161 1.01305L12.4119 1.78605C14.2251 0.650193 16.5279 0.650193 18.3411 1.78605L18.8368 1.01305C16.7277 -0.337684 14.0253 -0.337684 11.9161 1.01305Z" fill="#151515"/>
<path d="M9.86886 6.42603H8.95081C8.94949 7.27528 9.11773 8.11627 9.44564 8.89971L10.293 8.54534C10.0118 7.87425 9.86766 7.15369 9.86886 6.42603Z" fill="#151515"/>
<path d="M17.4942 11.5105C16.8238 11.7915 16.104 11.9356 15.3771 11.9342V12.8522C16.2259 12.8538 17.0665 12.6858 17.8494 12.3579L17.4942 11.5105Z" fill="#151515"/>
<path d="M20.8854 6.42603C20.8867 7.15318 20.7426 7.87327 20.4618 8.54396L21.3091 8.89832C21.637 8.1154 21.805 7.27482 21.8035 6.42603H20.8854Z" fill="#151515"/>
<path d="M15.3772 1.83569C12.842 1.83569 10.7869 3.8908 10.7869 6.42593C10.7869 8.96106 12.842 11.0162 15.3772 11.0162C17.9111 11.0134 19.9646 8.95992 19.9674 6.42593C19.9674 3.89086 17.9123 1.83569 15.3772 1.83569ZM15.3772 10.0981C13.3491 10.0981 11.705 8.45401 11.705 6.42593C11.705 4.39785 13.3491 2.75374 15.3772 2.75374C17.4052 2.75374 19.0493 4.39785 19.0493 6.42593C19.0471 8.4531 17.4043 10.0959 15.3772 10.0981Z" fill="#151515"/>
<path d="M16.387 6.27934L15.8361 6.09573V4.91788C16.0918 5.0071 16.2715 5.23793 16.2952 5.50773H17.2132C17.1722 4.73307 16.6006 4.08986 15.8361 3.95806V3.67163H14.9181V3.95806C14.1536 4.08986 13.582 4.73307 13.541 5.50773C13.559 6.00324 13.8917 6.43186 14.3673 6.5722L14.9181 6.75581V7.93275C14.6627 7.84364 14.4831 7.61327 14.4591 7.34382H13.541C13.582 8.11848 14.1536 8.76169 14.9181 8.89348V9.17992H15.8361V8.89348C16.6006 8.76169 17.1722 8.11848 17.2132 7.34382C17.1952 6.8483 16.8625 6.41975 16.387 6.27934ZM14.9181 5.79003L14.6564 5.70189C14.5403 5.66288 14.4591 5.58301 14.4591 5.50773C14.4828 5.23793 14.6624 5.0071 14.9181 4.91788V5.79003ZM15.8361 7.93367V7.06152L16.0978 7.14965C16.2139 7.18867 16.2952 7.26854 16.2952 7.34382C16.2715 7.61361 16.0918 7.84444 15.8361 7.93367Z" fill="#151515"/>
<path d="M27.6362 18.9541L26.1246 17.4425L27.6362 15.931C27.8154 15.7517 27.8154 15.4612 27.6362 15.2819L21.6689 9.31461C21.4896 9.13542 21.1991 9.13542 21.0198 9.31461L15.1475 15.1869L8.81621 8.85558C8.63696 8.67639 8.3464 8.67639 8.16715 8.85558L2.19984 14.8229C2.02065 15.0021 2.02065 15.2927 2.19984 15.4719L5.5475 18.8196H0.229248V19.7377H6.19656C6.25876 19.7378 6.32032 19.7251 6.37741 19.7005L9.50383 18.3606H16.2951V20.1967H11.2458C10.9923 20.1967 10.7868 20.4021 10.7868 20.6557C10.7868 20.8348 10.8909 20.9975 11.0535 21.0725L17.0208 23.8266C17.171 23.8949 17.3462 23.8774 17.4798 23.7807L25.4297 18.0439L26.6383 19.2525L17.5023 27.082H15.0002L6.35538 23.8973C6.30454 23.8786 6.25078 23.8689 6.19656 23.8689H0.229248V24.7869H6.11439L14.7592 27.9716C14.81 27.9904 14.8638 28 14.918 28.0001H17.6722C17.7817 28.0002 17.8876 27.9609 17.9705 27.8895L27.61 19.627C27.8025 19.4621 27.8249 19.1723 27.6599 18.9798C27.6524 18.971 27.6445 18.9624 27.6362 18.9541ZM9.40973 17.4425C9.34753 17.4424 9.28596 17.455 9.22887 17.4797L9.11733 17.5256C9.57056 16.3495 10.8915 15.7634 12.0676 16.2167C12.6401 16.4373 13.0996 16.8791 13.3426 17.4425H9.40973ZM14.3236 17.4425C13.9217 16.0785 12.6678 15.1435 11.2458 15.1474C9.62145 15.1572 8.25643 16.3704 8.05607 17.9823L6.62253 18.5965L3.17343 15.1474L8.49168 9.82917L16.1051 17.4425H14.3236ZM17.1622 22.8806L13.3358 21.1147H16.7541C17.0076 21.1147 17.2131 20.9092 17.2131 20.6557V18.5506L19.7056 21.0431L17.1622 22.8806ZM17.2563 17.2956C17.4301 16.3158 18.2836 15.6029 19.2787 15.6064C20.417 15.6044 21.3414 16.5254 21.3435 17.6637C21.3454 18.6596 20.6347 19.5144 19.6551 19.6945L17.2563 17.2956ZM20.4001 20.4386C20.5843 20.3639 20.7604 20.2707 20.926 20.1609L20.4594 20.4978L20.4001 20.4386ZM25.1777 17.0914L21.1327 20.0131C22.4214 18.9861 22.6336 17.1089 21.6066 15.8202C20.5796 14.5316 18.7024 14.3194 17.4137 15.3464C17.0149 15.6642 16.7042 16.079 16.5112 16.5511L15.7965 15.836L21.3443 10.2882L26.6625 15.6064L25.1777 17.0914Z" fill="#151515"/>
</g>
<defs>
<clipPath id="clip0_3_797">
<rect width="28" height="28" fill="white"/>
</clipPath>
</defs>
</svg>
