<svg width="28" height="28" viewBox="0 0 28 28" fill="none" xmlns="http://www.w3.org/2000/svg">
<g clip-path="url(#clip0_3_1553)">
<path d="M27.3792 3.58862C26.979 3.19924 26.4497 2.99335 25.8919 3.0086C24.9303 3.03496 24.1256 3.75372 23.9392 4.68242C22.9842 4.85693 22.2578 5.69453 22.2578 6.69919V11.8981C22.2578 12.1246 22.4415 12.3083 22.668 12.3083C22.8945 12.3083 23.0781 12.1246 23.0781 11.8981V6.69919C23.0781 6.16445 23.4211 5.70858 23.8984 5.53927V13.5391C23.096 12.9414 21.9284 13.0187 21.1937 13.7534L15.4914 19.4558C14.7942 20.153 14.4102 21.08 14.4102 22.066V27.5898C14.4102 27.8163 14.5938 28 14.8203 28H24.0352C24.1568 28 24.2721 27.946 24.35 27.8526C24.428 27.7592 24.4605 27.6361 24.4387 27.5165L23.9196 24.6616L27.649 18.503C27.6527 18.4969 27.6563 18.4906 27.6597 18.4842C27.8823 18.0687 28 17.5999 28 17.1284V5.05856C28 4.50015 27.7796 3.9781 27.3792 3.58862ZM27.1797 17.1284C27.1797 17.4617 27.0974 17.7932 26.9415 18.0877L23.1374 24.3696C23.0856 24.4552 23.0668 24.5569 23.0847 24.6554L23.5437 27.1797H15.2305V22.066C15.2305 21.2991 15.5291 20.5781 16.0714 20.0358L21.7738 14.3335C22.2539 13.8534 23.0342 13.8316 23.5131 14.285C23.7569 14.5158 23.8937 14.8274 23.8983 15.1624C23.8984 15.1669 23.8984 15.1713 23.8984 15.1759V15.1815C23.8981 15.5095 23.7705 15.8171 23.538 16.0495L17.8116 21.776C17.6514 21.9362 17.6514 22.1959 17.8116 22.356C17.9717 22.5162 18.2314 22.5162 18.3916 22.356L24.1181 16.6295C24.5074 16.2401 24.7202 15.7242 24.7187 15.1744V5.09269C24.7187 4.41374 25.2551 3.84663 25.9143 3.82859C26.2502 3.81967 26.567 3.94299 26.8071 4.17656C27.0474 4.4103 27.1797 4.72355 27.1797 5.05856V17.1284Z" fill="#151515"/>
<path d="M6.8063 13.7535C6.07163 13.0189 4.90399 12.9415 4.10156 13.5393V5.53936C4.57893 5.70867 4.92188 6.16455 4.92188 6.69928V11.8982C4.92188 12.1247 5.10552 12.3084 5.33203 12.3084C5.55855 12.3084 5.74219 12.1247 5.74219 11.8982V6.69928C5.74219 5.69462 5.01583 4.85702 4.06082 4.68246C3.87434 3.75376 3.06966 3.035 2.10815 3.00864C1.54908 2.993 1.02096 3.19928 0.620758 3.58866C0.220445 3.9782 0 4.50024 0 5.05866V17.1285C0 17.6 0.117687 18.0688 0.34032 18.4843C0.343711 18.4907 0.347266 18.4969 0.350984 18.5031L4.0804 24.6617L3.5613 27.5166C3.53954 27.6362 3.57202 27.7594 3.64995 27.8527C3.72788 27.9461 3.84322 28.0001 3.96484 28.0001H13.1797C13.4062 28.0001 13.5898 27.8164 13.5898 27.5899V22.0661C13.5898 21.0801 13.2059 20.1531 12.5086 19.4559L6.8063 13.7535ZM12.7695 27.1798H4.45627L4.91526 24.6555C4.9332 24.5569 4.91444 24.4553 4.86259 24.3696L1.05853 18.0878C0.902617 17.7932 0.820312 17.4618 0.820312 17.1285V5.05866C0.820312 4.72364 0.952602 4.41039 1.19284 4.17666C1.43292 3.94309 1.7494 3.81982 2.08567 3.82868C2.74487 3.84673 3.28125 4.41384 3.28125 5.09278V15.1745C3.27977 15.7243 3.49251 16.2402 3.88188 16.6296L9.60837 22.3561C9.76855 22.5163 10.0283 22.5163 10.1884 22.3561C10.3486 22.1959 10.3486 21.9362 10.1884 21.7761L4.46195 16.0496C4.22953 15.8172 4.10195 15.5095 4.10156 15.1816V15.176C4.10156 15.1714 4.10162 15.167 4.10167 15.1624C4.10627 14.8275 4.24309 14.5159 4.48695 14.2851C4.96584 13.8317 5.74607 13.8534 6.22623 14.3335L11.9286 20.0359C12.4709 20.5782 12.7695 21.2992 12.7695 22.0661V27.1798Z" fill="#151515"/>
<path d="M13.4294 2.05066C13.609 1.49787 14.391 1.49787 14.5706 2.05066L15.4157 4.65147C15.6031 5.2283 16.1407 5.61885 16.7472 5.61885H19.4818C20.0631 5.61885 20.3047 6.36262 19.8345 6.70426L17.6221 8.31165C17.1314 8.66815 16.9261 9.30006 17.1135 9.87689L17.9586 12.4777C18.1382 13.0305 17.5055 13.4902 17.0353 13.1485L14.8229 11.5411C14.3322 11.1846 13.6678 11.1846 13.1771 11.5411L10.9647 13.1485C10.4945 13.4902 9.8618 13.0305 10.0414 12.4777L10.8865 9.8769C11.0739 9.30007 10.8686 8.66815 10.3779 8.31165L8.16551 6.70426C7.69528 6.36262 7.93694 5.61885 8.51818 5.61885H11.2528C11.8593 5.61885 12.3969 5.2283 12.5843 4.65147L13.4294 2.05066Z" stroke="#151515" stroke-width="0.8"/>
</g>
<defs>
<clipPath id="clip0_3_1553">
<rect width="28" height="28" fill="white"/>
</clipPath>
</defs>
</svg>
