<svg width="28" height="28" viewBox="0 0 28 28" fill="none" xmlns="http://www.w3.org/2000/svg">
<path d="M26.4188 3.76403L25.2223 2.71044L26.4188 1.65707C26.6048 1.49301 26.6685 1.2373 26.5811 1.00531C26.4933 0.7731 26.2765 0.623137 26.0285 0.623137H21.0771V0.410369C21.0771 0.183715 20.8934 0 20.6668 0C20.4401 0 20.2564 0.183715 20.2564 0.410369V5.9449L16.8861 7.77501C16.8675 7.62676 16.823 7.48106 16.7528 7.34392L16.2779 6.4168C15.9519 5.7802 15.1687 5.52791 14.5326 5.85369L14.1654 6.04168C13.8569 6.19976 13.6285 6.46807 13.5221 6.7979C13.4158 7.12752 13.4442 7.47893 13.6023 7.78719L14.0771 8.71452C14.188 8.93092 14.3519 9.10225 14.5445 9.2223C14.2925 9.56175 14.1728 9.97917 14.0498 10.4128L13.9614 10.726C13.8996 10.9441 14.0265 11.171 14.2446 11.2325C14.2818 11.2432 14.3194 11.2481 14.3563 11.2481C14.5354 11.2481 14.6998 11.1302 14.7511 10.9492L14.8396 10.6367C15.0194 10.0025 15.1299 9.66279 15.4815 9.47181L16.1119 9.12938L16.1897 9.08964C16.2155 9.0764 16.2396 9.06145 16.2642 9.04671L20.7571 6.60692C20.7287 7.16853 20.4264 7.69917 19.9287 8.00145L17.007 9.77665C17.0036 9.77858 17.0001 9.7805 16.9969 9.78263L16.0875 10.3351C15.894 10.4528 15.8323 10.7053 15.95 10.899C16.0608 11.0817 16.2915 11.1466 16.4798 11.055L15.7897 13.1408L15.2854 13.3476L13.9139 13.9096L14.3091 12.5125C14.3707 12.2944 14.244 12.0675 14.0259 12.0058C13.8075 11.9439 13.5809 12.071 13.5192 12.2891L12.8947 14.4973C12.8866 14.5257 12.8813 14.5569 12.88 14.5866L12.7166 17.5884C12.7117 17.7029 12.736 17.9193 12.683 18.031L10.8681 21.8493H9.54919C8.77652 21.8493 8.14804 22.4778 8.14804 23.2503V24.4348C7.97116 24.3538 7.77484 24.3085 7.56784 24.3085H4.21845C3.44599 24.3085 2.81752 24.9368 2.81752 25.7095V27.1792H1.83229C1.60564 27.1792 1.42192 27.3629 1.42192 27.5896C1.42192 27.8162 1.60564 27.9999 1.83229 27.9999H26.028C26.2547 27.9999 26.4384 27.8162 26.4384 27.5896C26.4384 27.3629 26.2547 27.1792 26.028 27.1792H24.9608V16.6017C24.9608 15.8292 24.3323 15.2007 23.5598 15.2007H21.0771V8.04161C21.5321 7.42488 21.7007 6.61653 21.4894 5.84835C21.4563 5.72765 21.3698 5.62853 21.2544 5.57961C21.1978 5.55547 21.1371 5.54479 21.0771 5.54714V4.79796H26.0283C26.2765 4.79796 26.4933 4.648 26.5809 4.41601C26.6685 4.18401 26.6048 3.92809 26.4188 3.76403ZM14.3034 7.04997C14.3425 6.92885 14.4262 6.83016 14.5394 6.77226L14.9066 6.58428C14.9758 6.54882 15.0498 6.53194 15.1228 6.53194C15.2959 6.53194 15.4631 6.62657 15.5473 6.79085L16.0224 7.71819C16.1333 7.9348 16.0615 8.19734 15.8643 8.33L15.7306 8.40242L15.4484 8.54704C15.2149 8.66667 14.9274 8.57396 14.8077 8.34025L14.3326 7.41313C14.2747 7.29991 14.2643 7.17088 14.3034 7.04997ZM13.4788 21.9756C13.3393 21.9119 13.1876 21.8703 13.0282 21.8555L13.4788 21.2572V21.9756ZM15.4272 18.6689C15.6246 18.4324 15.6791 18.1562 15.7231 17.9336C15.7342 17.8806 15.9367 16.7745 15.9367 16.7745C15.9367 16.7745 16.1283 16.8939 16.1484 16.9025C16.1623 16.9087 16.1721 16.9223 16.1736 16.9384L16.3969 19.2077H15.0216L15.4272 18.6689ZM17.854 16.4039L17.5075 19.2057H17.2214L16.9905 16.858C16.961 16.5572 16.7769 16.2947 16.5071 16.1642L16.0944 15.9025L16.3693 14.3787C16.3693 14.3787 17.5276 15.7547 17.5545 15.7897C17.7942 16.1014 17.8762 16.2261 17.854 16.4039ZM13.4213 18.3899C13.5042 18.1404 13.5427 17.8864 13.5362 17.6281L13.6854 14.8904L15.5834 14.1126L15.2384 16.0236C15.2373 16.0287 15.2363 16.0341 15.2356 16.0392L14.9502 17.6194C14.913 17.783 14.8806 18.0312 14.7785 18.166L12.0054 21.8493H11.7768L13.4213 18.3899ZM3.63826 25.7093C3.63826 25.3895 3.89845 25.1293 4.21845 25.1293H7.56784C7.88785 25.1293 8.14826 25.3895 8.14826 25.7093V27.1792H3.63826V25.7093ZM8.96878 25.7093V23.2503C8.96878 22.9303 9.22919 22.6701 9.54919 22.6701H12.8986C13.2186 22.6701 13.4788 22.9303 13.4788 23.2503V27.1792H8.96899V25.7093H8.96878ZM24.14 16.6017V27.1792H19.6303V24.7187C19.6303 24.4921 19.4465 24.3083 19.2199 24.3083C18.993 24.3083 18.8093 24.4921 18.8093 24.7187V27.1792H14.2995V20.6084C14.2995 20.2886 14.5597 20.0284 14.8797 20.0284H18.2291C18.5491 20.0284 18.8093 20.2886 18.8093 20.6084V22.6656C18.8093 22.8922 18.993 23.0759 19.2197 23.0759C19.4465 23.0759 19.63 22.8922 19.63 22.6656V16.6017C19.63 16.2817 19.8904 16.0215 20.2105 16.0215H20.6625C20.6638 16.0215 20.6653 16.0217 20.6668 16.0217C20.668 16.0217 20.6695 16.0215 20.6708 16.0215H23.5596C23.8796 16.0215 24.14 16.2819 24.14 16.6017ZM20.2105 15.2007C19.438 15.2007 18.8095 15.8292 18.8095 16.6017V19.3339C18.6625 19.2668 18.5023 19.2243 18.3338 19.2119L18.6685 16.5049C18.7343 15.9773 18.4652 15.6276 18.205 15.2892C18.1774 15.2533 16.5823 13.3593 16.5823 13.3593L17.5609 10.4006L20.2564 8.76301V15.2007H20.2105ZM21.0771 3.97701V1.44409H25.4186L24.4835 2.26739C24.3562 2.37954 24.2832 2.54104 24.2832 2.71066C24.2832 2.88027 24.3562 3.04177 24.4835 3.15392L25.4186 3.97723H21.0771V3.97701Z" fill="#151515"/>
</svg>
