<svg width="28" height="28" viewBox="0 0 28 28" fill="none" xmlns="http://www.w3.org/2000/svg">
<g clip-path="url(#clip0_3_1510)">
<path d="M16.6814 15.9465C18.7908 14.4656 19.3003 11.5551 17.8194 9.44568C16.3385 7.33628 13.428 6.82668 11.3186 8.30759C9.20926 9.7885 8.69966 12.699 10.1806 14.8084C10.4911 15.2508 10.8762 15.6359 11.3186 15.9465C8.82682 16.3748 7.00432 18.5335 7 21.0619V27.5333C6.99994 27.7909 7.20878 27.9999 7.46643 27.9999C7.46649 27.9999 7.46661 27.9999 7.46667 27.9999H20.5333C20.791 28 20.9999 27.7912 21 27.5335C21 27.5334 21 27.5333 21 27.5333V21.0619C20.9956 18.5335 19.1732 16.3748 16.6814 15.9465ZM10.2667 12.1333C10.2667 10.0714 11.9381 8.39993 14 8.39993C16.0619 8.39993 17.7333 10.0714 17.7333 12.1333C17.7333 14.1951 16.0619 15.8666 14 15.8666C11.9391 15.8643 10.269 14.1941 10.2667 12.1333ZM20.0667 27.0666H7.93333V21.0619C7.93596 18.7092 9.84258 16.8026 12.1953 16.7999H15.8047C18.1574 16.8026 20.064 18.7092 20.0667 21.0619V27.0666Z" fill="#151515"/>
<path d="M14.4667 2.80005H13.5333V4.66672H14.4667V2.80005Z" fill="#151515"/>
<path d="M19.4634 3.94961L18.1435 5.26953L18.8035 5.92949L20.1234 4.60957L19.4634 3.94961Z" fill="#151515"/>
<path d="M25.6667 27.0667H23.8V28H25.6667V27.0667Z" fill="#151515"/>
<path d="M25.6667 22.3999H23.8V23.3332H25.6667V22.3999Z" fill="#151515"/>
<path d="M25.6667 17.7334H23.8V18.6667H25.6667V17.7334Z" fill="#151515"/>
<path d="M25.0056 12.7944L23.2349 13.385L23.5302 14.2704L25.3009 13.6798L25.0056 12.7944Z" fill="#151515"/>
<path d="M23.5557 7.95504L21.785 8.54565L22.0803 9.43101L23.851 8.8404L23.5557 7.95504Z" fill="#151515"/>
<path d="M8.53719 3.95049L7.87714 4.61035L9.19687 5.93046L9.85692 5.27059L8.53719 3.95049Z" fill="#151515"/>
<path d="M4.20001 27.0667H2.33334V28H4.20001V27.0667Z" fill="#151515"/>
<path d="M4.20001 22.3999H2.33334V23.3332H4.20001V22.3999Z" fill="#151515"/>
<path d="M4.20001 17.7334H2.33334V18.6667H4.20001V17.7334Z" fill="#151515"/>
<path d="M2.99531 12.7947L2.70029 13.6802L4.47119 14.2702L4.76622 13.3848L2.99531 12.7947Z" fill="#151515"/>
<path d="M4.44304 7.9583L4.14783 8.84375L5.91874 9.43418L6.21395 8.54872L4.44304 7.9583Z" fill="#151515"/>
</g>
<defs>
<clipPath id="clip0_3_1510">
<rect width="28" height="28" fill="white"/>
</clipPath>
</defs>
</svg>
