<svg width="598" height="573" viewBox="0 0 598 573" fill="none" xmlns="http://www.w3.org/2000/svg">
<g clip-path="url(#clip0_252_2177)">
<path d="M358 490C490.548 490 598 474.778 598 456C598 437.222 490.548 422 358 422C225.452 422 118 437.222 118 456C118 474.778 225.452 490 358 490Z" fill="#C6EDCF"/>
<path d="M304.858 84.481L302.494 83.7799C307.293 67.706 299.047 58.7001 298.965 58.613L300.766 56.9233C301.146 57.3414 310.059 67.0615 304.858 84.481Z" fill="#3A3A3A"/>
<path d="M250.431 157.695C242.522 155.627 237.261 152.874 233.382 148.781C229.12 144.278 226.603 138.168 225.473 129.55C223.457 114.255 201.077 113.532 200.85 113.528L200.928 110.358C205.277 110.569 209.572 111.406 213.68 112.844C222.471 116.002 227.641 121.632 228.622 129.14C229.665 137.062 231.912 142.61 235.694 146.603C239.145 150.244 243.935 152.7 251.238 154.625L250.431 157.695Z" fill="#3A3A3A"/>
<path d="M241.787 278.957L220.728 279.196C220.785 279.061 229.066 265.165 233.014 248.142C239.558 219.835 236.116 203.548 232.063 194.864C226.439 182.819 217.09 174.357 208.068 166.17C193.741 153.205 180.213 140.959 181.521 116.15C182.63 95.0676 194.827 78.8936 204.862 69.0385C211.353 62.6412 218.641 57.1042 226.548 52.564L227.543 54.4322C219.798 58.8847 212.66 64.3149 206.306 70.5888C196.555 80.1696 184.71 95.8776 183.62 116.263C182.368 140.067 197.737 147.618 211.68 160.247C220.877 168.574 232.346 176.53 238.149 188.963C244.256 202.028 251.476 220.536 246.089 243.743C242.092 260.945 241.848 278.822 241.787 278.957Z" fill="#3A3A3A"/>
<path d="M121.182 71.1616L179.252 196.845L227.956 174.422L169.885 48.7385L121.182 71.1616Z" fill="#E6E8EA"/>
<path d="M173.978 200.891L117.7 74.7739C117.295 73.8645 117.265 72.8327 117.616 71.9013C117.967 70.9699 118.671 70.2138 119.576 69.7962L167.456 47.7475C168.35 47.337 169.369 47.2892 170.298 47.6142C171.226 47.9392 171.992 48.6115 172.434 49.4894L231.369 166.906C231.917 167.997 232.242 169.185 232.327 170.402C232.412 171.619 232.254 172.841 231.862 173.997C231.471 175.153 230.853 176.22 230.046 177.136C229.239 178.052 228.257 178.8 227.159 179.335L179.126 202.751C178.668 202.977 178.168 203.108 177.658 203.136C177.147 203.164 176.636 203.089 176.155 202.916C175.675 202.742 175.234 202.473 174.86 202.125C174.486 201.777 174.186 201.358 173.978 200.891ZM225.457 169.24L170.488 54.6282C170.058 53.731 169.292 53.0389 168.354 52.7015C167.417 52.3641 166.385 52.4086 165.48 52.8253L127.089 70.5453C126.182 70.9636 125.478 71.7216 125.127 72.6549C124.777 73.5883 124.809 74.6218 125.217 75.5316L177.42 191.842C177.626 192.301 177.922 192.715 178.29 193.059C178.658 193.403 179.092 193.67 179.565 193.845C180.037 194.02 180.54 194.099 181.044 194.077C181.548 194.055 182.043 193.934 182.499 193.719L223.686 174.296C224.138 174.084 224.544 173.784 224.88 173.414C225.215 173.045 225.474 172.613 225.642 172.143C225.809 171.673 225.882 171.174 225.856 170.676C225.829 170.178 225.704 169.69 225.488 169.24H225.457Z" fill="#4E4E4E"/>
<path d="M187.504 136.226C195.356 128.413 200.033 116.354 188.014 104.296C180.187 96.457 166.772 96.3829 158.16 103.368C147.69 111.856 147.66 123.353 157.794 135.873C164.77 144.487 177.67 145.994 187.504 136.226Z" fill="#4E4E4E"/>
<path d="M193.886 158.989C196.848 156.049 198.606 151.503 194.078 146.96C191.129 144.003 186.077 143.982 182.831 146.612C178.905 149.809 178.879 154.142 182.696 158.858C185.322 162.102 190.182 162.669 193.886 158.989Z" fill="#4E4E4E"/>
<path d="M162.261 93.191C165.224 90.2471 166.982 85.705 162.453 81.1628C159.504 78.2015 154.452 78.1797 151.206 80.8101C147.28 84.0109 147.254 88.3397 151.071 93.056C153.697 96.3047 158.557 96.8709 162.261 93.191Z" fill="#4E4E4E"/>
<path d="M72.1719 166.355L180.533 252.704L213.994 210.862L105.634 124.513L72.1719 166.355Z" fill="#E6E8EA"/>
<path d="M177.657 258.676L70.6937 171.143C69.9213 170.51 69.4306 169.598 69.3285 168.605C69.2263 167.613 69.521 166.62 70.1484 165.843L103.043 124.707C103.657 123.938 104.547 123.438 105.524 123.313C106.501 123.188 107.489 123.447 108.278 124.036L213.679 202.611C214.658 203.342 215.482 204.259 216.104 205.309C216.726 206.359 217.133 207.522 217.302 208.73C217.471 209.939 217.399 211.168 217.09 212.349C216.78 213.529 216.239 214.636 215.499 215.606L183.08 258.036C182.771 258.441 182.384 258.78 181.942 259.032C181.499 259.284 181.011 259.445 180.505 259.505C179.998 259.565 179.486 259.522 178.996 259.38C178.507 259.237 178.052 258.998 177.657 258.676ZM209.469 207.332L108.876 129.475C108.088 128.867 107.092 128.592 106.102 128.71C105.113 128.828 104.21 129.33 103.588 130.107L77.1766 163.134C76.5544 163.913 76.2651 164.906 76.3712 165.896C76.4774 166.887 76.9706 167.796 77.7438 168.426L176.654 249.048C177.044 249.366 177.495 249.604 177.978 249.746C178.462 249.889 178.97 249.934 179.471 249.878C179.972 249.823 180.458 249.668 180.898 249.423C181.339 249.178 181.726 248.847 182.037 248.451L210.128 212.658C210.437 212.266 210.665 211.817 210.799 211.336C210.934 210.856 210.971 210.353 210.91 209.858C210.849 209.363 210.69 208.885 210.443 208.451C210.195 208.018 209.865 207.637 209.469 207.332Z" fill="#4E4E4E"/>
<path d="M160.691 194.825C164.211 184.317 162.959 171.453 146.8 166.052C136.277 162.538 124.263 168.487 119.699 178.586C114.15 190.858 119.289 201.148 133.974 207.803C144.078 212.38 156.284 207.955 160.691 194.825Z" fill="#4E4E4E"/>
<path d="M176.619 212.314C177.928 208.356 177.491 203.513 171.384 201.475C167.418 200.169 162.894 202.394 161.175 206.196C159.085 210.821 161.018 214.696 166.55 217.205C170.363 218.929 174.957 217.261 176.619 212.314Z" fill="#4E4E4E"/>
<path d="M118.795 167.659C120.104 163.701 119.668 158.854 113.56 156.82C109.599 155.514 105.07 157.739 103.352 161.541C101.262 166.166 103.199 170.041 108.731 172.545C112.539 174.266 117.138 172.602 118.795 167.659Z" fill="#4E4E4E"/>
<path d="M377.244 130.174L255.129 195.728L280.531 242.881L402.647 177.327L377.244 130.174Z" fill="#E6E8EA"/>
<path d="M277.06 247.676L252.786 200.129C252.232 199.042 251.899 197.857 251.806 196.64C251.713 195.424 251.863 194.202 252.246 193.044C252.63 191.886 253.239 190.815 254.039 189.893C254.84 188.972 255.815 188.217 256.909 187.674L374.731 129.236C375.613 128.8 376.631 128.723 377.569 129.021C378.507 129.319 379.293 129.969 379.761 130.834L404.733 177.192C405.204 178.069 405.311 179.096 405.03 180.051C404.749 181.006 404.103 181.813 403.232 182.296L282.278 249.27C281.832 249.516 281.341 249.67 280.835 249.722C280.329 249.775 279.817 249.726 279.33 249.577C278.843 249.428 278.391 249.183 278.001 248.857C277.611 248.53 277.291 248.129 277.06 247.676ZM258.615 198.191L279.821 238.43C280.057 238.876 280.379 239.27 280.768 239.59C281.158 239.91 281.607 240.15 282.091 240.294C282.574 240.439 283.081 240.486 283.583 240.433C284.085 240.38 284.571 240.228 285.013 239.985L396.784 178.372C397.658 177.89 398.307 177.084 398.589 176.127C398.87 175.171 398.763 174.142 398.289 173.264L378.221 136.047C377.749 135.171 376.951 134.515 375.999 134.222C375.047 133.929 374.018 134.021 373.134 134.479L260.203 193.07C259.761 193.302 259.37 193.618 259.051 194.002C258.733 194.385 258.493 194.826 258.345 195.302C258.198 195.778 258.146 196.278 258.192 196.773C258.238 197.269 258.382 197.751 258.615 198.191Z" fill="#4E4E4E"/>
<path d="M310.437 189.495C308.858 178.529 312.401 166.096 329.271 163.675C340.252 162.098 351.006 170.107 353.68 180.855C356.934 193.919 350.033 203.126 334.388 207.045C323.617 209.741 312.414 203.204 310.437 189.495Z" fill="#4E4E4E"/>
<path d="M291.628 203.848C291.034 199.72 292.369 195.039 298.721 194.124C302.861 193.532 306.91 196.545 307.918 200.595C309.144 205.521 306.544 208.987 300.65 210.459C296.597 211.478 292.374 209.031 291.628 203.848Z" fill="#4E4E4E"/>
<path d="M356.533 170.272C355.935 166.14 357.27 161.458 363.627 160.548C367.763 159.951 371.811 162.969 372.819 167.019C374.045 171.94 371.445 175.407 365.555 176.883C361.498 177.889 357.275 175.424 356.533 170.272Z" fill="#4E4E4E"/>
<path d="M325.773 51.236C329.857 44.3901 334.219 44.2203 338.102 46.5283C341.985 48.8364 343.917 52.7428 339.847 59.593C332.43 72.0654 321.786 73.9162 321.786 73.9162C321.786 73.9162 318.226 63.8913 325.773 51.236Z" fill="#E0E4E8"/>
<path d="M342.557 71.0114C347.936 70.5759 349.725 72.9363 349.974 75.976C350.222 79.0157 348.8 81.5981 343.43 82.0162C333.636 82.7696 328.475 77.6352 328.475 77.6352C328.475 77.6352 332.619 71.7779 342.557 71.0114Z" fill="#E0E4E8"/>
<path d="M69.6693 215.189C62.2136 218.037 58.6885 215.467 57.0743 211.269C55.4601 207.071 56.3632 202.795 63.8189 199.946C77.3998 194.76 86.8931 199.877 86.8931 199.877C86.8931 199.877 83.4509 209.923 69.6693 215.189Z" fill="#E0E4E8"/>
<path d="M92.5981 103.525C86.1937 98.7651 86.4904 94.4146 89.1778 90.7957C91.8652 87.1768 95.9748 85.6657 102.374 90.4255C114.036 99.1005 114.782 109.84 114.782 109.84C114.782 109.84 104.429 112.326 92.5981 103.525Z" fill="#E0E4E8"/>
<path d="M232.91 19.85C231.278 12.0461 234.38 8.96284 238.808 8.06138C243.236 7.15992 247.302 8.71461 248.93 16.5186C251.896 30.7285 245.317 39.2641 245.317 39.2641C245.317 39.2641 235.929 34.2691 232.91 19.85Z" fill="#E0E4E8"/>
<path d="M326.728 241.928C328.953 245.063 330.616 245.29 331.846 244.419C333.076 243.548 333.412 241.91 331.187 238.757C327.134 233.048 322.946 231.864 322.946 231.864C322.946 231.864 322.619 236.136 326.728 241.928Z" fill="#3A3A3A"/>
<path d="M316.638 264.691C317.728 268.375 319.225 269.128 320.669 268.702C322.113 268.275 322.968 266.833 321.877 263.149C319.892 256.434 316.315 253.965 316.315 253.965C316.315 253.965 314.618 257.88 316.638 264.691Z" fill="#3A3A3A"/>
<path d="M291.334 324.383L292.019 324.622C292.059 324.518 295.854 313.888 306.089 300.422C315.534 287.998 332.553 270.552 359.981 257.98L359.68 257.318C332.099 269.947 314.989 287.51 305.491 299.996C295.209 313.548 291.382 324.274 291.334 324.383Z" fill="#3A3A3A"/>
<path d="M330.083 275.452L330.803 275.347C326.955 249.218 345.911 228.136 346.103 227.927L345.566 227.435C345.37 227.648 326.183 248.978 330.083 275.452Z" fill="#3A3A3A"/>
<path d="M344.942 269.198C349.168 271.033 353.81 271.705 358.384 271.144L358.257 270.435C358.174 270.435 349.693 271.815 342.307 266.951L341.906 267.556C342.872 268.184 343.887 268.733 344.942 269.198Z" fill="#3A3A3A"/>
<path d="M362.11 254.482C357.167 256.063 356.072 257.696 356.53 259.112C356.988 260.527 358.833 261.237 363.776 259.656C372.781 256.773 376.297 252.784 376.297 252.784C376.297 252.784 371.245 251.556 362.11 254.482Z" fill="#3A3A3A"/>
<path d="M357.569 268.2C352.382 268.2 350.842 269.45 350.846 270.952C350.851 272.455 352.404 273.674 357.591 273.652C367.045 273.613 371.608 270.87 371.608 270.87C371.608 270.87 367.163 268.161 357.569 268.2Z" fill="#3A3A3A"/>
<path d="M342.917 255.585C340.579 258.633 340.854 260.283 342.045 261.198C343.236 262.113 344.911 261.947 347.249 258.899C351.516 253.342 351.407 249 351.407 249C351.407 249 347.245 249.967 342.917 255.585Z" fill="#3A3A3A"/>
<path d="M345.379 224.12C342.203 228.218 342.225 230.182 343.416 231.088C344.607 231.994 346.522 231.524 349.698 227.439C355.487 219.979 356.124 214.701 356.124 214.701C356.124 214.701 351.251 216.547 345.379 224.12Z" fill="#3A3A3A"/>
<path d="M107.509 255.31C124.484 265.67 111.737 292.353 134.457 294.504C157.178 296.655 155.917 294.691 162.814 307.268C162.814 307.268 163.687 317.402 171.483 321.757C202.305 338.946 264.141 306.114 239.222 267.473C237.424 264.682 234.082 262.683 230.313 260.671C209.87 249.784 199.666 257.335 191.525 225.963C183.384 194.59 147.506 223.01 133.454 216.674C119.402 210.337 108.15 201.549 91.4812 212.95C74.8115 224.351 90.5301 244.959 107.509 255.31Z" fill="#33A02C"/>
<path d="M216.432 299.081L217.479 298.301C217.135 297.84 181.797 251.769 87.3507 216.39L86.8926 217.614C180.981 252.863 216.088 298.624 216.432 299.081Z" fill="#E0E4E8"/>
<path d="M170.014 241.745C186.518 234.838 191.857 226.646 192.076 226.302L190.994 225.601C190.941 225.684 185.61 233.806 169.529 240.543L170.014 241.745Z" fill="#E0E4E8"/>
<path d="M163.189 254.296C168.887 249.318 171.679 240.256 171.265 228.088C171.041 222.377 170.257 216.701 168.922 211.143L167.657 211.474C167.735 211.775 175.427 241.862 162.326 253.316L163.189 254.296Z" fill="#E0E4E8"/>
<path d="M138.877 243.434C140.81 242.703 141.901 242.176 141.931 242.128L141.351 240.956C141.12 241.074 118.12 252.214 93.2441 242.698L92.7773 243.918C112.841 251.6 131.683 246.139 138.877 243.434Z" fill="#E0E4E8"/>
<path d="M116.563 267.647C124.533 263.253 128.398 257.439 130.244 253.337C132.246 248.869 132.351 245.472 132.355 245.329L131.047 245.294C131.047 245.424 130.523 258.463 115.93 266.502L116.563 267.647Z" fill="#E0E4E8"/>
<path d="M297.441 269.864C290.867 276.758 300.059 287.528 289.828 291.338C279.598 295.149 279.925 294.077 278.298 300.749C278.298 300.749 279.17 305.539 276.086 308.527C263.958 320.285 231.277 312.742 238.009 291.787C238.497 290.271 239.793 288.934 241.29 287.541C249.395 279.968 255.054 282.206 254.927 266.685C254.801 251.164 274.921 259.878 280.636 255.21C286.351 250.542 290.47 245.08 299.596 248.299C308.723 251.517 303.985 262.979 297.441 269.864Z" fill="#33A02C"/>
<path d="M252.476 303.584L251.896 303.349C251.996 303.096 262.628 277.415 301.931 249.348L302.298 249.858C263.143 277.838 252.581 303.331 252.476 303.584Z" fill="#E0E4E8"/>
<path fill-rule="evenodd" clip-rule="evenodd" d="M321.867 180.025L325.405 186.539C325.784 187.238 325.501 188.064 324.772 188.383V188.383V188.383C324.043 188.702 323.759 189.527 324.139 190.227L324.287 190.498L324.434 190.769C324.814 191.469 325.713 191.777 326.443 191.458V191.458L326.82 191.293C327.341 191.066 327.983 191.286 328.254 191.786V191.786V191.786C328.526 192.285 328.323 192.875 327.803 193.103L327.425 193.268V193.268C326.696 193.587 326.413 194.412 326.793 195.112L326.94 195.383L327.087 195.654C327.467 196.354 328.367 196.662 329.096 196.343V196.343V196.343C329.825 196.025 330.724 196.333 331.104 197.033L332.284 199.204L332.971 200.47C333.623 201.669 335.164 202.198 336.414 201.651V201.651V201.651C337.665 201.105 338.15 199.689 337.499 198.49L336.811 197.224V197.224C335.78 195.325 336.549 193.085 338.528 192.219L340.886 191.188L345.225 189.29C346.111 188.903 346.455 187.901 345.993 187.051V187.051V187.051C345.532 186.202 344.44 185.827 343.554 186.215L339.216 188.112L334.216 190.298C333.696 190.526 333.053 190.305 332.782 189.806V189.806V189.806C332.511 189.306 332.713 188.717 333.234 188.489L335.235 187.614C338.609 186.138 339.674 185.4 341.113 183.54C345.001 178.511 342.119 170.554 335.49 168.014C333.584 167.284 330.826 167.116 328.794 167.608C328.121 167.771 325.336 168.881 322.605 170.075V170.075C319.864 171.274 318.799 174.377 320.227 177.007L321.867 180.025ZM330.419 171.491C331.968 171.363 334.17 172.143 335.436 173.268C338.273 175.789 338.744 180.047 336.471 182.629C335.865 183.317 335.338 183.643 333.195 184.658V184.658C331.798 185.319 330.03 184.74 329.29 183.378L327.325 179.76L325.36 176.142C324.623 174.784 325.211 173.183 326.656 172.618V172.618C328.459 171.914 329.66 171.554 330.419 171.491Z" fill="#E6E8EA"/>
<path d="M266.835 271.306C258.345 270.152 254.859 267.02 254.715 266.89L255.152 266.428C255.187 266.459 258.642 269.559 266.931 270.687L266.835 271.306Z" fill="#E0E4E8"/>
<path d="M271.55 276.283C268.295 274.681 265.878 270.835 264.57 265.156C263.962 262.487 263.62 259.763 263.549 257.026H264.173C264.173 257.178 264.351 272.046 271.833 275.726L271.55 276.283Z" fill="#E0E4E8"/>
<path d="M281.449 268.257C280.467 268.161 279.896 268.052 279.869 268.044L279.992 267.434C280.114 267.434 292.137 269.768 302.463 262.291L302.83 262.801C294.51 268.81 285.113 268.61 281.449 268.257Z" fill="#E0E4E8"/>
<path d="M294.776 276.693C291.606 275.984 288.759 274.251 286.675 271.763C285.811 270.745 285.143 269.578 284.703 268.318L285.305 268.144C285.305 268.205 287.181 274.171 294.929 276.087L294.776 276.693Z" fill="#E0E4E8"/>
<path d="M134.717 300.213L166.219 442.06C168.1 450.518 176.105 456.588 185.389 456.588H295.153C304.672 456.588 312.813 450.213 314.44 441.485L343.103 287.519L134.717 300.213Z" fill="#3A3A3A"/>
<path d="M124.245 293.363L122.443 304.917C121.841 308.797 125.209 312.215 129.424 311.989L346.177 300.326C349.698 300.139 352.451 297.426 352.451 294.143V283.974C352.451 280.525 349.419 277.738 345.71 277.781L140.492 280.102C132.299 280.194 125.397 285.82 124.245 293.363Z" fill="#4E4E4E"/>
<path d="M137.245 311.906C137.152 311.906 137.064 311.869 136.998 311.804C136.933 311.739 136.896 311.65 136.896 311.558C136.896 311.465 136.933 311.377 136.998 311.311C137.064 311.246 137.152 311.209 137.245 311.209L340.339 300.283C340.385 300.28 340.431 300.286 340.474 300.301C340.518 300.316 340.558 300.339 340.592 300.369C340.627 300.4 340.655 300.437 340.675 300.478C340.695 300.519 340.707 300.564 340.71 300.61C340.713 300.702 340.681 300.793 340.619 300.862C340.557 300.931 340.471 300.973 340.378 300.98L137.267 311.906H137.245Z" fill="#282828"/>
<path d="M165.689 168.826C165.689 153.205 173.132 136.561 197.161 136.561C212.815 136.561 226.212 149.887 227.787 165.43C229.702 184.325 218.216 195.787 195.595 198.122C180.025 199.729 165.689 188.358 165.689 168.826Z" fill="#FFEDA5"/>
<path d="M193.261 194.512C187.514 194.552 181.961 192.442 177.695 188.598C172.408 183.838 169.494 176.739 169.494 168.617C169.494 163.23 170.519 155.518 175.396 149.386C180.195 143.377 187.485 140.328 197.109 140.328C210.524 140.328 222.587 151.681 224 165.643C225.671 182.126 215.676 192.33 195.866 194.385C194.989 194.464 194.121 194.512 193.261 194.512ZM197.1 142.027C189.309 142.027 171.186 144.618 171.186 168.617C171.186 176.252 173.9 182.901 178.825 187.343C181.094 189.377 183.77 190.905 186.675 191.828C189.581 192.751 192.649 193.046 195.678 192.696C205.075 191.724 212.138 188.907 216.675 184.321C221.213 179.735 223.08 173.534 222.299 165.822C220.977 152.696 209.673 142.027 197.1 142.027Z" fill="#FFA200"/>
<path d="M259.488 38.9856C256.085 23.7435 259.724 5.88848 283.182 0.662617C298.473 -2.7429 314.457 7.36043 319.378 22.2062C325.364 40.2311 316.652 53.9141 295.079 61.104C280.232 66.0338 263.763 58.0469 259.488 38.9856Z" fill="#FFEDA5"/>
<path d="M286.815 58.6435C282.86 58.6467 278.972 57.6232 275.533 55.6735C269.338 52.1896 264.95 45.8794 263.179 37.9535C262.005 32.6928 261.324 24.9454 264.748 17.921C268.108 11.0142 274.578 6.45461 283.97 4.36426C297.058 1.45085 311.312 9.92109 315.731 23.2383C320.966 38.9638 313.423 51.1096 294.529 57.3893C292.042 58.2203 289.437 58.6438 286.815 58.6435ZM264.84 37.5833C266.502 45.0345 270.599 50.9354 276.371 54.1972C279.031 55.6857 281.978 56.5929 285.016 56.8586C288.054 57.1244 291.112 56.7427 293.991 55.7388C302.948 52.7557 309.23 48.4705 312.659 43.0095C316.088 37.5485 316.559 31.0902 314.116 23.7304C309.963 11.2188 296.604 3.26248 284.341 5.98428C276.733 7.67397 259.609 14.1366 264.84 37.5659V37.5833Z" fill="#FFA200"/>
<path d="M191.369 45.383C195.23 35.5236 204.02 26.8573 219.207 32.78C229.084 36.6341 234.24 48.3487 231.392 58.5435C227.902 70.9375 217.846 75.3402 202.991 71.2379C192.774 68.416 186.539 57.7073 191.369 45.383Z" fill="#FFEDA5"/>
<path d="M212.715 70.2274C209.795 70.1799 206.894 69.7404 204.09 68.921C201.936 68.3548 199.928 67.3378 198.198 65.9375C196.468 64.5373 195.056 62.7857 194.056 60.7991C191.897 56.4921 191.814 51.2968 193.825 46.1711C195.134 42.7699 197.708 38.1581 202.306 35.4929C206.808 32.88 212.174 32.7537 218.247 35.1271C226.711 38.4324 231.509 48.5706 228.953 57.7246C226.654 65.9596 221.004 70.2274 212.715 70.2274ZM194.362 46.3975L194.92 46.5935C193.031 51.4143 193.096 56.2744 195.108 60.2896C196.038 62.1313 197.349 63.7549 198.955 65.053C200.56 66.351 202.424 67.2939 204.422 67.8192C210.591 69.5219 215.743 69.4828 219.739 67.7103C223.735 65.9379 226.449 62.4845 227.862 57.4197C230.266 48.8188 225.777 39.2991 217.828 36.2027C212.912 34.2822 200.814 31.4516 194.903 46.5935L194.362 46.3975Z" fill="#FFA200"/>
<path d="M288.823 75.7201L230.752 201.403L279.456 223.826L337.526 98.1432L288.823 75.7201Z" fill="#E6E8EA"/>
<path d="M279.58 229.76L231.565 206.339C230.467 205.804 229.486 205.056 228.679 204.14C227.872 203.224 227.256 202.157 226.865 201.001C226.473 199.845 226.316 198.623 226.401 197.406C226.486 196.189 226.812 195.001 227.36 193.911L286.273 76.4985C286.713 75.6191 287.478 74.9453 288.408 74.6201C289.337 74.2949 290.357 74.3438 291.25 74.7565L339.13 96.801C340.036 97.2193 340.739 97.9765 341.09 98.9088C341.44 99.8412 341.408 100.874 341.002 101.783L284.724 227.896C284.517 228.362 284.217 228.782 283.844 229.13C283.47 229.478 283.03 229.747 282.55 229.921C282.069 230.095 281.559 230.171 281.049 230.143C280.538 230.115 280.039 229.985 279.58 229.76ZM235.02 201.305L276.204 220.724C276.661 220.941 277.157 221.065 277.662 221.088C278.168 221.111 278.673 221.033 279.148 220.858C279.623 220.683 280.058 220.415 280.428 220.07C280.797 219.724 281.093 219.308 281.299 218.847L333.49 102.519C333.897 101.609 333.929 100.575 333.577 99.6412C333.226 98.7077 332.521 97.9501 331.614 97.5326L293.174 79.83C292.27 79.4145 291.237 79.3706 290.3 79.7079C289.363 80.0452 288.597 80.7365 288.166 81.6329L233.197 196.245C232.982 196.696 232.858 197.186 232.834 197.685C232.809 198.184 232.884 198.684 233.053 199.154C233.223 199.624 233.484 200.057 233.821 200.426C234.159 200.795 234.567 201.094 235.02 201.305Z" fill="#4E4E4E"/>
<path d="M271.201 163.235C263.348 155.422 258.676 143.359 270.695 131.301C278.521 123.462 291.937 123.392 300.548 130.373C311.019 138.865 311.049 150.358 300.91 162.878C293.952 171.492 281.039 173.003 271.201 163.235Z" fill="#4E4E4E"/>
<path d="M264.822 185.998C261.855 183.054 260.101 178.512 264.63 173.969C267.579 171.013 272.631 170.991 275.877 173.621C279.803 176.818 279.829 181.146 276.012 185.863C273.386 189.107 268.526 189.678 264.822 185.998Z" fill="#4E4E4E"/>
<path d="M296.446 120.191C293.48 117.247 291.726 112.705 296.254 108.163C299.199 105.206 304.256 105.184 307.497 107.815C311.445 111.011 311.454 115.34 307.637 120.056C305.006 123.309 300.15 123.88 296.446 120.191Z" fill="#4E4E4E"/>
<path d="M345.064 117.539C349.767 104.997 360.769 93.8616 380.052 101.073C392.617 105.768 399.366 120.487 395.95 133.443C391.801 149.186 379.127 154.948 360.259 150.035C347.276 146.656 339.183 133.225 345.064 117.539Z" fill="#FFEDA5"/>
<path d="M372.088 148.58C368.549 148.534 365.031 148.039 361.618 147.108C358.881 146.431 356.321 145.182 354.105 143.442C351.889 141.703 350.069 139.513 348.765 137.018C345.951 131.609 345.751 125.038 348.198 118.514C349.821 114.185 352.962 108.302 358.725 104.844C364.397 101.452 371.163 101.195 378.889 104.082C389.661 108.106 395.904 120.844 392.85 132.476C390.058 143.067 382.824 148.58 372.088 148.58ZM368.855 103.551C365.552 103.516 362.304 104.395 359.471 106.09C354.066 109.334 351.095 114.913 349.555 119.024C347.256 125.155 347.43 131.309 350.052 136.347C351.261 138.661 352.95 140.691 355.006 142.303C357.061 143.915 359.437 145.072 361.975 145.697C369.828 147.74 376.333 147.596 381.354 145.262C386.376 142.928 389.748 138.521 391.441 132.093C394.324 121.162 388.461 109.203 378.353 105.432C375.325 104.244 372.108 103.606 368.855 103.551Z" fill="#FFA200"/>
<path d="M241.248 214.692C245.113 204.837 253.926 196.167 269.09 202.089C278.963 205.943 284.119 217.658 281.271 227.853C277.807 240.247 267.747 244.65 252.874 240.547C242.653 237.717 236.418 227.008 241.248 214.692Z" fill="#FFEDA5"/>
<path d="M262.597 239.515C259.676 239.47 256.775 239.03 253.972 238.208C251.818 237.642 249.809 236.625 248.079 235.225C246.35 233.825 244.938 232.073 243.938 230.086C241.756 225.779 241.695 220.584 243.707 215.458C245.015 212.062 247.594 207.445 252.187 204.78C256.694 202.167 262.056 202.041 268.129 204.414C276.592 207.72 281.395 217.858 278.834 227.016C276.535 235.26 270.886 239.515 262.597 239.515ZM259.979 203.896C257.452 203.872 254.964 204.526 252.776 205.791C248.466 208.295 246.054 212.667 244.788 215.894C242.899 220.715 242.969 225.579 244.98 229.59C245.909 231.432 247.219 233.056 248.824 234.354C250.429 235.652 252.292 236.595 254.29 237.12C260.459 238.822 265.633 238.788 269.612 237.011C273.591 235.234 276.317 231.785 277.735 226.724C280.139 218.119 275.645 208.599 267.701 205.503C265.244 204.496 262.621 203.956 259.966 203.909L259.979 203.896Z" fill="#FFA200"/>
<path d="M228.399 134.998L227.09 132.097C241.997 125.482 243.385 95.9518 243.398 95.6731L246.569 95.8037C246.235 101.41 245.336 106.969 243.886 112.396C240.702 124.237 235.493 131.84 228.399 134.998Z" fill="#3A3A3A"/>
<path d="M226.104 94.2924C226.104 79.8386 232.993 64.4397 255.225 64.4397C269.704 64.4397 282.103 76.7727 283.56 91.1526C285.327 108.633 274.704 119.237 253.772 121.397C239.371 122.887 226.104 112.352 226.104 94.2924Z" fill="#FFEDA5"/>
<path d="M251.633 118.057C246.319 118.091 241.184 116.14 237.237 112.587C232.346 108.18 229.65 101.613 229.65 94.1008C229.65 89.1144 230.597 81.9811 235.112 76.3067C239.536 70.7455 246.298 67.9236 255.18 67.9236C267.588 67.9236 278.738 78.4319 280.047 91.3485C281.592 106.591 272.347 116.036 254.015 117.913C253.224 118.001 252.429 118.049 251.633 118.057ZM255.198 69.4957C247.986 69.4957 231.203 71.8952 231.203 94.1008C231.203 101.164 233.712 107.313 238.271 111.42C240.37 113.301 242.845 114.715 245.534 115.568C248.222 116.421 251.061 116.693 253.863 116.367C262.557 115.47 269.093 112.883 273.29 108.62C277.486 104.357 279.214 98.6429 278.49 91.5053C277.264 79.3682 266.802 69.4957 255.18 69.4957H255.198Z" fill="#FFA200"/>
<path d="M479.91 464.035C479.704 464.039 479.504 463.97 479.345 463.841C479.185 463.712 479.076 463.531 479.037 463.33L446.871 296.586C446.842 296.471 446.836 296.351 446.855 296.233C446.873 296.116 446.916 296.004 446.979 295.904C447.043 295.803 447.126 295.717 447.225 295.65C447.323 295.583 447.434 295.537 447.55 295.514C447.667 295.492 447.787 295.493 447.904 295.519C448.02 295.544 448.129 295.593 448.226 295.662C448.323 295.732 448.404 295.82 448.465 295.922C448.526 296.024 448.566 296.137 448.581 296.255L480.752 462.999C480.773 463.111 480.772 463.227 480.749 463.339C480.726 463.451 480.681 463.557 480.616 463.652C480.552 463.746 480.469 463.827 480.374 463.89C480.278 463.953 480.17 463.996 480.058 464.018C480.009 464.029 479.959 464.035 479.91 464.035Z" fill="#282828"/>
<path d="M549.834 449.608C549.639 449.607 549.449 449.541 549.295 449.42C549.142 449.3 549.034 449.131 548.988 448.941L512.437 296.62C512.401 296.506 512.389 296.386 512.401 296.267C512.414 296.148 512.451 296.033 512.51 295.929C512.569 295.825 512.648 295.734 512.744 295.662C512.84 295.59 512.949 295.539 513.066 295.511C513.182 295.483 513.303 295.479 513.421 295.5C513.539 295.521 513.652 295.566 513.752 295.632C513.851 295.698 513.936 295.784 514.002 295.884C514.067 295.985 514.11 296.097 514.13 296.215L550.68 448.549C550.733 448.773 550.694 449.009 550.573 449.205C550.452 449.401 550.259 449.541 550.035 449.595C549.969 449.607 549.901 449.612 549.834 449.608Z" fill="#282828"/>
<path d="M523.143 334.778H455.889V336.79H523.143V334.778Z" fill="#282828"/>
<path d="M463.056 372.281L462.924 374.289L532.728 378.868L532.86 376.861L463.056 372.281Z" fill="#282828"/>
<path d="M540.317 408.533L470.539 414.125L470.7 416.13L540.478 410.538L540.317 408.533Z" fill="#282828"/>
<path d="M470.149 325.093C470.149 325.093 470.058 328.834 467.532 329.883C465.006 330.933 457.65 331.891 460.395 334.295C461.969 335.675 469.39 334.782 471.489 334.782C473.587 334.782 475.55 335.697 477.108 334.295C478.818 332.753 477.108 325.088 477.108 325.088C477.108 325.088 475.297 326.029 473.674 325.985C471.319 325.933 470.149 325.093 470.149 325.093Z" fill="#282828"/>
<path d="M499.261 325.093C499.261 325.093 499.17 328.834 496.644 329.883C494.118 330.933 486.762 331.891 489.506 334.295C491.081 335.675 498.502 334.782 500.596 334.782C502.69 334.782 504.662 335.693 506.22 334.295C507.93 332.753 506.22 325.088 506.22 325.088C506.22 325.088 504.409 326.029 502.782 325.985C500.43 325.929 499.261 325.093 499.261 325.093Z" fill="#282828"/>
<path d="M451.313 222.579C451.313 222.579 450.842 238.23 455.846 268.261C459.463 289.94 463.725 311.784 465.819 322.262C466.163 324.064 467.104 325.698 468.491 326.901C469.879 328.104 471.631 328.807 473.467 328.894L475.474 328.977C476.44 329.004 477.401 328.827 478.294 328.457C479.187 328.088 479.991 327.534 480.655 326.833C481.319 326.132 481.827 325.298 482.146 324.388C482.465 323.477 482.588 322.509 482.506 321.548L477.428 250.694L476.176 227.373L451.313 222.579Z" fill="#F2CE3C"/>
<path d="M497.095 236.353C496.864 238.261 486.071 238.026 472.86 236.353C459.65 234.681 449.359 231.828 449.59 229.921C449.821 228.014 460.497 227.783 473.694 229.455C486.891 231.127 497.326 234.45 497.095 236.353Z" fill="#282828"/>
<path d="M466.481 233.758L494.69 324.217C495.245 326.046 496.364 327.654 497.888 328.811C499.411 329.968 501.262 330.616 503.176 330.663L504.873 330.693C505.823 330.696 506.763 330.489 507.624 330.087C508.485 329.684 509.246 329.096 509.852 328.365C510.458 327.633 510.895 326.777 511.13 325.857C511.365 324.938 511.393 323.978 511.212 323.046L495.777 238.047C495.671 237.556 495.434 237.102 495.092 236.733C494.749 236.365 494.314 236.095 493.831 235.953C488.526 234.428 465.962 230.017 466.481 233.758Z" fill="#F2CE3C"/>
<path d="M498.891 229.965L492.496 222.561C492.609 222.492 505.147 214.579 503.965 203.313C503.337 197.438 499.807 192.713 493.495 189.268C490.346 187.579 486.965 186.363 483.461 185.658L484.966 176.038C489.514 176.911 493.901 178.473 497.975 180.672C507.137 185.649 512.481 193.114 513.454 202.254C514.243 209.636 511.656 216.978 505.976 223.485C501.893 228.14 502.076 228.419 498.891 229.965Z" fill="#FFAC96"/>
<path d="M448.926 198.522C443.778 198.522 438.325 196.571 432.697 192.709C430.099 190.933 427.686 188.903 425.494 186.647L432.396 179.923L428.945 183.285L432.392 179.914C434.826 182.501 442.644 189.129 449.498 188.763C452.613 188.598 455.296 186.978 457.708 183.807L465.242 189.791C461.133 195.182 455.85 198.191 449.973 198.501C449.615 198.514 449.262 198.522 448.926 198.522Z" fill="#FFAC96"/>
<path d="M492.684 184.273C492.684 184.273 488.928 173.73 475.561 174.214C462.194 174.697 452.094 192.23 449.59 229.926C449.59 229.926 471.486 225.135 497.143 236.314C497.134 236.314 498.561 199.637 492.684 184.273Z" fill="#E0E4E8"/>
<path d="M503.184 182.03L492.601 189.678C492.601 189.678 468.253 192.108 461.787 190.941C455.322 189.773 453.551 184.552 453.551 184.552C458.566 179.402 465.06 175.934 472.135 174.627C473.267 174.421 474.409 174.276 475.556 174.192C477.527 174.057 479.507 174.099 481.471 174.318C493.032 175.585 503.184 182.03 503.184 182.03Z" fill="#E0E4E8"/>
<path d="M503.183 182.031C503.755 182.858 501.874 185.244 498.93 187.352C495.985 189.46 493.171 190.505 492.599 189.678C492.028 188.85 493.93 186.468 496.853 184.356C499.776 182.244 502.607 181.216 503.183 182.031Z" fill="#282828"/>
<path d="M438.137 190.113C438.137 190.113 435.267 181.93 432.396 179.923C429.525 177.915 427.837 180.406 427.837 180.406L424.87 179.736C424.87 179.736 421.961 192.391 431.135 191.803C431.859 191.759 438.137 190.113 438.137 190.113Z" fill="#FFAC96"/>
<path d="M510.388 205.878C509.419 205.878 508.643 204.772 508.643 203.408C508.643 202.045 509.433 200.939 510.388 200.939C511.343 200.939 512.133 202.05 512.133 203.408C512.133 204.767 511.356 205.878 510.388 205.878ZM510.388 201.405C509.686 201.405 509.079 202.324 509.079 203.408C509.079 204.493 509.668 205.412 510.388 205.412C511.108 205.412 511.697 204.497 511.697 203.408C511.697 202.32 511.09 201.405 510.388 201.405Z" fill="black"/>
<path d="M481.449 174.34C480.746 174.268 480.076 174.011 479.506 173.594C478.936 173.178 478.488 172.617 478.207 171.971L476.423 167.838L475.908 166.64L472.854 159.59L473.382 166.897L473.696 171.283L473.788 172.533C473.822 173.025 473.673 173.512 473.368 173.9C473.063 174.289 472.625 174.551 472.139 174.636C471.598 175.507 470.83 177.301 473.085 178.011C475.703 178.843 479.952 176.783 481.475 174.335L481.449 174.34Z" fill="#FFAC96"/>
<path d="M497.651 219.278C497.651 219.278 493.69 215.654 490.562 215.977C487.434 216.299 483.682 219.064 485.663 219.278C487.202 219.372 488.748 219.295 490.27 219.047C490.27 219.047 484.742 220.218 485.576 221.39C486.409 222.561 491.208 221.494 491.208 221.494C491.208 221.494 484.742 223.41 485.89 224.264C487.037 225.117 491.936 223.624 491.936 223.624C491.936 223.624 485.994 225.649 487.347 226.607C488.699 227.565 492.25 224.904 493.084 226.076C493.917 227.247 495.483 231.824 499.026 229.908L497.651 219.278Z" fill="#FFAC96"/>
<path d="M479.088 274.188L473.02 255.78C471.687 251.67 468.871 248.201 465.119 246.047L465.355 245.638C469.206 247.851 472.098 251.41 473.474 255.628L479.538 274.036L479.088 274.188Z" fill="#020202"/>
<path d="M494.551 189.835C494.551 189.835 493.966 188.093 496.623 186.12C499.28 184.147 502.731 183.725 502.731 183.725L503.429 187.078L499.672 188.715L494.551 189.835Z" fill="#FFAC96"/>
<path d="M481.141 158.388C481.141 158.388 480.856 159.585 481.55 162.046C482.558 165.639 478.445 167.141 477.389 166.113C477.258 165.987 477.433 159.873 477.433 159.873L478.74 159.093L481.141 158.388Z" fill="#282828"/>
<path d="M476.433 167.72C476.435 167.76 476.435 167.799 476.433 167.838C476.258 170.194 473.736 171.296 473.736 171.296L473.422 166.91C474.195 166.627 475.294 166.34 475.935 166.653C476.117 166.76 476.262 166.919 476.351 167.109C476.44 167.3 476.468 167.513 476.433 167.72Z" fill="#282828"/>
<path d="M472.536 169.227C476.333 169.227 479.411 165.435 479.411 160.757C479.411 156.079 476.333 152.287 472.536 152.287C468.738 152.287 465.66 156.079 465.66 160.757C465.66 165.435 468.738 169.227 472.536 169.227Z" fill="#FFAC96"/>
<path d="M469.81 154.255C470.002 154.516 468.938 158.876 477.008 159.916C485.079 160.957 480.237 151.163 474.269 150.941C465.652 150.619 464.4 156.402 465.225 158.484C466.049 160.565 469.81 154.255 469.81 154.255Z" fill="#282828"/>
<path d="M482.274 148.899C482.274 148.899 478.644 151.324 481.437 153.611C484.229 155.897 491.907 156.89 489.821 160.744C487.736 164.598 485.895 170.303 489.682 171.017C493.469 171.731 495.829 171.453 497.364 174.444C498.9 177.436 505.745 175.585 505.187 172.014C504.628 168.443 510.496 165.308 507.983 162.029C505.47 158.749 499.319 155.893 497.783 151.612C496.248 147.331 485.21 147.043 482.274 148.899Z" fill="#282828"/>
<path d="M476.113 158.514C476.113 158.514 479.42 161.998 478.294 165.547C478.294 165.547 480.21 163.457 480.253 162.677C480.171 161.47 480.015 160.269 479.786 159.08L476.113 158.514Z" fill="#282828"/>
<path d="M478.492 162.037C477.715 162.778 476.625 162.856 476.062 162.207C475.499 161.558 475.669 160.43 476.45 159.686C477.231 158.941 478.317 158.867 478.88 159.516C479.443 160.165 479.273 161.293 478.492 162.037Z" fill="#FFAC96"/>
<path d="M503.512 175.603C503.494 175.607 503.474 175.607 503.456 175.603C502.478 175.224 501.898 174.732 501.684 174.152C501.353 173.238 501.916 172.241 502.513 171.182C503.033 170.255 503.573 169.292 503.443 168.435C503.29 167.42 501.955 167.18 500.537 166.932C499.346 166.719 498.111 166.497 497.623 165.739C497.505 165.534 497.431 165.307 497.408 165.072C497.385 164.837 497.412 164.6 497.488 164.376C497.637 163.814 497.815 163.26 498.02 162.717C498.814 160.478 499.442 158.714 495.93 154.669C491.424 149.482 487.698 149.234 484.334 149.735C483.942 149.791 482.947 150.305 482.951 150.758C482.951 150.993 483.274 151.581 486.188 151.947C487.538 152.34 488.784 153.023 489.839 153.95C490.895 154.876 491.733 156.022 492.296 157.308C493.343 159.655 491.86 162.163 490.656 164.175C489.853 165.53 489.159 166.697 489.377 167.481C489.426 167.632 489.505 167.772 489.61 167.891C489.715 168.01 489.844 168.106 489.988 168.173C490.822 168.582 491.701 168.893 492.606 169.101C494.879 169.715 497.235 170.351 497.527 174.44C497.529 174.482 497.515 174.524 497.488 174.557C497.46 174.589 497.421 174.61 497.379 174.614C497.357 174.616 497.335 174.613 497.315 174.607C497.294 174.6 497.275 174.589 497.259 174.575C497.243 174.561 497.229 174.543 497.22 174.524C497.211 174.504 497.205 174.483 497.204 174.462C496.925 170.603 494.783 170.028 492.519 169.414C491.591 169.2 490.69 168.88 489.836 168.461C489.652 168.374 489.489 168.249 489.357 168.096C489.225 167.942 489.126 167.762 489.068 167.568C488.81 166.649 489.539 165.425 490.377 164.01C491.594 161.959 492.994 159.633 491.995 157.443C491.454 156.205 490.649 155.101 489.635 154.207C488.622 153.313 487.424 152.652 486.127 152.269C483.78 151.973 482.637 151.481 482.637 150.762C482.637 150.044 483.868 149.456 484.299 149.412C487.75 148.894 491.581 149.147 496.192 154.455C499.826 158.645 499.172 160.487 498.338 162.825C498.155 163.339 497.968 163.871 497.815 164.454C497.751 164.635 497.727 164.827 497.744 165.018C497.76 165.208 497.817 165.393 497.911 165.56C498.347 166.2 499.486 166.41 500.611 166.61C502.077 166.867 503.591 167.137 503.783 168.387C503.927 169.358 503.347 170.364 502.81 171.339C502.273 172.315 501.728 173.268 502.007 174.044C502.186 174.549 502.705 174.958 503.587 175.298C503.606 175.306 503.624 175.317 503.64 175.332C503.655 175.346 503.667 175.364 503.676 175.383C503.684 175.403 503.689 175.424 503.689 175.445C503.69 175.466 503.686 175.487 503.678 175.507C503.664 175.538 503.64 175.564 503.611 175.581C503.581 175.598 503.547 175.606 503.512 175.603Z" fill="white"/>
<path d="M477.07 157.347C476.132 157.315 475.215 157.061 474.395 156.607C473.574 156.153 472.873 155.511 472.349 154.734C472.334 154.716 472.324 154.695 472.318 154.672C472.312 154.649 472.311 154.626 472.315 154.603C472.319 154.58 472.328 154.558 472.341 154.538C472.354 154.519 472.371 154.502 472.391 154.49C472.41 154.478 472.433 154.47 472.456 154.466C472.479 154.463 472.503 154.465 472.525 154.472C472.548 154.478 472.568 154.489 472.586 154.505C472.604 154.52 472.618 154.539 472.628 154.56C473.127 155.287 473.789 155.889 474.561 156.316C475.334 156.743 476.196 156.984 477.078 157.02C477.121 157.021 477.163 157.039 477.193 157.07C477.223 157.101 477.24 157.143 477.24 157.186C477.239 157.207 477.234 157.229 477.225 157.249C477.217 157.269 477.204 157.287 477.188 157.301C477.172 157.316 477.154 157.328 477.133 157.336C477.113 157.344 477.091 157.347 477.07 157.347Z" fill="white"/>
<path d="M490.294 219.173L490.211 218.956C490.276 218.93 491.799 218.372 492.645 218.956L492.51 219.143C491.764 218.633 490.307 219.165 490.294 219.173Z" fill="black"/>
<path d="M491.231 221.621L491.148 221.403C492.072 221.06 493.089 221.06 494.014 221.403L493.918 221.612C493.049 221.299 492.097 221.302 491.231 221.621Z" fill="black"/>
<path d="M491.959 223.75L491.881 223.533C491.955 223.506 493.757 222.84 494.603 223.554L494.45 223.729C493.709 223.106 491.977 223.746 491.959 223.75Z" fill="black"/>
<path d="M451.549 231.633C451.549 231.633 457.692 230.762 466.914 231.458C475.827 232.154 484.663 233.611 493.326 235.813L488.793 236.575L460.401 237.699L454.686 233.017L451.549 231.633Z" fill="#FEE374"/>
<path d="M468.736 166.24C470.333 166.235 471.919 165.975 473.434 165.469C473.434 165.469 473.631 167.781 471.087 167.938C469.608 168.025 468.736 166.24 468.736 166.24Z" fill="black"/>
<path d="M468.736 166.24C468.736 166.24 469.303 166.71 470.634 166.706C471.964 166.701 473.434 165.469 473.434 165.469C473.434 165.469 470.603 166.248 468.736 166.24Z" fill="white"/>
<path d="M471.869 160.84C471.846 160.833 471.825 160.821 471.807 160.805C471.789 160.79 471.774 160.77 471.764 160.748C471.75 160.709 471.751 160.667 471.767 160.628C471.783 160.59 471.814 160.56 471.852 160.544C472.19 160.383 472.572 160.339 472.938 160.417C473.304 160.496 473.634 160.694 473.876 160.979C473.89 160.993 473.902 161.01 473.91 161.029C473.918 161.048 473.922 161.068 473.922 161.088C473.922 161.108 473.918 161.128 473.91 161.147C473.902 161.166 473.89 161.183 473.876 161.197C473.845 161.223 473.806 161.238 473.765 161.238C473.724 161.238 473.684 161.223 473.653 161.197C473.15 160.891 472.56 160.759 471.974 160.822C471.942 160.84 471.905 160.846 471.869 160.84Z" fill="black"/>
<path d="M473.109 162.555C473.109 162.93 472.913 163.239 472.638 163.248C472.363 163.256 472.141 162.96 472.128 162.586C472.114 162.211 472.328 161.906 472.599 161.898C472.869 161.889 473.096 162.185 473.109 162.555Z" fill="black"/>
<path d="M466.277 161.654C466.254 161.657 466.23 161.654 466.207 161.647C466.184 161.639 466.164 161.627 466.146 161.61C466.131 161.596 466.119 161.579 466.111 161.56C466.103 161.541 466.098 161.52 466.098 161.499C466.098 161.478 466.103 161.458 466.111 161.439C466.119 161.42 466.131 161.402 466.146 161.388C466.399 161.111 466.737 160.926 467.107 160.862C467.476 160.798 467.857 160.859 468.188 161.035C468.207 161.043 468.224 161.055 468.238 161.07C468.252 161.085 468.264 161.102 468.271 161.121C468.278 161.14 468.282 161.161 468.281 161.181C468.28 161.201 468.275 161.222 468.267 161.24C468.247 161.275 468.216 161.302 468.178 161.317C468.141 161.331 468.1 161.332 468.062 161.318C467.479 161.23 466.884 161.332 466.365 161.61C466.341 161.634 466.31 161.649 466.277 161.654Z" fill="black"/>
<path d="M468.087 162.769C468.167 162.902 468.194 163.06 468.163 163.212C468.131 163.364 468.043 163.498 467.917 163.588C467.668 163.697 467.344 163.514 467.191 163.174C467.11 163.042 467.082 162.883 467.114 162.731C467.145 162.579 467.235 162.444 467.363 162.355C467.607 162.246 467.934 162.434 468.087 162.769Z" fill="black"/>
<path d="M425.561 200.73L423.846 199.21C426.106 196.671 429.033 189.965 428.645 184.809C428.501 182.775 427.851 181.264 426.717 180.301C422.965 177.14 414.68 181.36 411.805 183.25L410.545 181.342C411.024 181.02 422.376 173.647 428.196 178.555C429.823 179.927 430.744 181.974 430.936 184.652C431.376 190.623 428.034 197.952 425.561 200.73Z" fill="#232323"/>
<path d="M423.556 182.387C423.208 182.387 422.874 182.253 422.623 182.013C422.358 181.757 422.203 181.408 422.19 181.04C422.178 180.672 422.31 180.313 422.557 180.04L424.852 177.532C424.973 177.398 425.119 177.29 425.282 177.214C425.445 177.138 425.622 177.096 425.801 177.09C425.981 177.083 426.161 177.113 426.329 177.177C426.497 177.241 426.65 177.338 426.78 177.462C427.045 177.717 427.2 178.066 427.212 178.433C427.224 178.8 427.093 179.158 426.846 179.43L424.555 181.943C424.429 182.083 424.275 182.194 424.103 182.271C423.931 182.347 423.745 182.387 423.556 182.387Z" fill="#FFAC96"/>
<path d="M424.424 184.7C424.076 184.7 423.742 184.566 423.491 184.325C423.226 184.07 423.071 183.722 423.059 183.354C423.047 182.987 423.178 182.629 423.425 182.357L425.703 179.853C425.823 179.719 425.969 179.611 426.132 179.536C426.295 179.46 426.472 179.417 426.652 179.411C426.832 179.404 427.011 179.434 427.179 179.498C427.347 179.562 427.501 179.659 427.631 179.783C427.897 180.039 428.052 180.387 428.065 180.755C428.078 181.124 427.948 181.482 427.701 181.756L425.406 184.269C425.28 184.403 425.128 184.511 424.96 184.585C424.791 184.659 424.609 184.698 424.424 184.7Z" fill="#FFAC96"/>
<path d="M425.346 186.821C424.998 186.821 424.663 186.687 424.412 186.446C424.148 186.191 423.993 185.843 423.981 185.475C423.968 185.108 424.1 184.75 424.347 184.478L426.642 181.965C426.762 181.832 426.908 181.724 427.071 181.648C427.235 181.572 427.411 181.529 427.591 181.523C427.771 181.516 427.95 181.546 428.118 181.61C428.287 181.674 428.44 181.771 428.57 181.895C428.835 182.152 428.99 182.501 429.002 182.869C429.015 183.237 428.883 183.595 428.635 183.868L426.345 186.377C426.219 186.516 426.065 186.628 425.893 186.704C425.721 186.781 425.534 186.82 425.346 186.821Z" fill="#FFAC96"/>
<path d="M426.791 188.232C426.574 188.235 426.365 188.157 426.202 188.014C426.018 187.853 425.904 187.626 425.884 187.382C425.865 187.138 425.941 186.896 426.097 186.708L428.187 184.182C428.261 184.086 428.354 184.007 428.46 183.949C428.567 183.891 428.684 183.856 428.804 183.846C428.925 183.835 429.046 183.85 429.161 183.89C429.276 183.929 429.381 183.991 429.47 184.073C429.654 184.235 429.768 184.461 429.788 184.704C429.808 184.948 429.733 185.19 429.579 185.38L427.485 187.905C427.402 188.009 427.296 188.092 427.176 188.149C427.056 188.205 426.924 188.234 426.791 188.232Z" fill="#FFAC96"/>
<path d="M375.406 181.303L388.114 222.348C389.423 226.533 394.222 228.715 399.06 227.321L426.414 219.483C430.92 218.176 433.363 213.521 431.392 209.963L409.932 171.204L375.406 181.303Z" fill="#232323"/>
<path d="M320.158 206.23C322.671 206.997 387.134 209.279 387.134 209.279L381.898 191.476L329.848 197.782L320.158 206.23Z" fill="#232323"/>
<path d="M335.319 203.369C335.982 211.256 332.553 218.315 327.662 219.13C322.772 219.944 318.269 214.209 317.628 206.317C316.987 198.426 320.39 191.372 325.28 190.557C330.171 189.743 334.655 195.487 335.319 203.369Z" fill="#232323"/>
<path d="M394.912 182.489C403.614 178.563 409.576 172.972 408.231 170C406.885 167.028 398.741 167.801 390.04 171.726C381.339 175.652 375.376 181.243 376.721 184.215C378.067 187.187 386.211 186.414 394.912 182.489Z" fill="#232323"/>
<path d="M393.604 169.632C393.807 169.947 393.907 170.317 393.893 170.69C393.879 171.064 393.75 171.425 393.525 171.724C393.3 172.023 392.988 172.246 392.632 172.362C392.276 172.479 391.893 172.485 391.533 172.378C391.174 172.271 390.856 172.057 390.622 171.765C390.389 171.472 390.25 171.116 390.225 170.742C390.2 170.369 390.29 169.997 390.484 169.676C390.677 169.356 390.963 169.102 391.305 168.948C391.701 168.736 392.165 168.689 392.596 168.817C393.027 168.945 393.389 169.238 393.604 169.632Z" fill="#232323"/>
<path d="M410.069 171.679L375.264 183.951C375.098 184.023 374.919 184.061 374.738 184.063C374.557 184.066 374.377 184.031 374.209 183.963C374.041 183.895 373.889 183.794 373.76 183.667C373.632 183.539 373.531 183.387 373.462 183.219C373.373 182.855 373.428 182.471 373.616 182.147C373.803 181.822 374.11 181.582 374.47 181.478L409.279 169.21C409.445 169.137 409.623 169.099 409.804 169.096C409.985 169.094 410.166 169.128 410.333 169.196C410.501 169.264 410.653 169.365 410.781 169.494C410.908 169.622 411.008 169.774 411.076 169.941C411.165 170.305 411.111 170.689 410.923 171.012C410.735 171.336 410.429 171.575 410.069 171.679Z" fill="#232323"/>
<path d="M325.276 194.603C325.311 194.99 325.141 195.335 324.901 195.374C324.661 195.413 324.442 195.134 324.412 194.747C324.381 194.359 324.547 194.015 324.783 193.976C325.018 193.937 325.245 194.224 325.276 194.603Z" fill="#FFEDA5"/>
<path d="M327.823 215.816C327.854 216.199 327.688 216.547 327.448 216.586C327.208 216.626 327.012 216.347 326.955 215.959C326.899 215.572 327.091 215.228 327.331 215.188C327.57 215.149 327.793 215.428 327.823 215.816Z" fill="#FFEDA5"/>
<path d="M332.487 203.805C332.518 204.192 332.352 204.536 332.112 204.575C331.872 204.615 331.65 204.336 331.619 203.948C331.589 203.561 331.754 203.217 331.994 203.178C332.234 203.138 332.452 203.408 332.487 203.805Z" fill="#FFEDA5"/>
<path d="M320.241 205.381C320.272 205.769 320.106 206.113 319.866 206.156C319.626 206.2 319.404 205.913 319.373 205.529C319.343 205.146 319.508 204.798 319.748 204.754C319.988 204.711 320.206 204.998 320.241 205.381Z" fill="#FFEDA5"/>
<path d="M323.08 201.445C323.111 201.832 322.945 202.176 322.705 202.22C322.465 202.263 322.244 201.976 322.213 201.588C322.183 201.201 322.348 200.857 322.588 200.818C322.828 200.778 323.045 201.061 323.08 201.445Z" fill="#FFEDA5"/>
<path d="M328.852 200.565C328.883 200.952 328.717 201.296 328.477 201.34C328.237 201.384 328.014 201.096 327.984 200.713C327.953 200.33 328.119 199.977 328.359 199.938C328.599 199.899 328.804 200.182 328.852 200.565Z" fill="#FFEDA5"/>
<path d="M330.014 209.985C330.044 210.368 329.878 210.716 329.638 210.756C329.398 210.795 329.202 210.516 329.145 210.128C329.089 209.741 329.281 209.397 329.521 209.358C329.761 209.318 329.983 209.597 330.014 209.985Z" fill="#FFEDA5"/>
<path d="M322.745 212.079C322.776 212.467 322.61 212.811 322.37 212.854C322.13 212.898 321.908 212.611 321.877 212.227C321.847 211.844 322.013 211.496 322.252 211.452C322.492 211.409 322.715 211.713 322.745 212.079Z" fill="#FFEDA5"/>
<path d="M326 206.723C326.035 207.106 325.865 207.454 325.625 207.493C325.385 207.533 325.167 207.254 325.136 206.866C325.106 206.479 325.271 206.135 325.507 206.095C325.743 206.056 325.969 206.335 326 206.723Z" fill="#FFEDA5"/>
<path d="M335.397 206.418C335.365 206.413 335.337 206.396 335.317 206.371C335.297 206.346 335.286 206.315 335.288 206.283C335.288 206.235 335.816 201.623 334.381 198.923C334.373 198.909 334.369 198.893 334.367 198.877C334.366 198.861 334.368 198.845 334.372 198.83C334.377 198.814 334.385 198.8 334.395 198.788C334.406 198.775 334.419 198.765 334.433 198.758C334.447 198.75 334.463 198.746 334.479 198.744C334.495 198.743 334.511 198.745 334.527 198.75C334.542 198.754 334.556 198.762 334.569 198.773C334.581 198.783 334.591 198.796 334.599 198.81C336.069 201.575 335.554 206.117 335.532 206.313C335.531 206.329 335.526 206.345 335.518 206.359C335.51 206.373 335.5 206.385 335.487 206.395C335.475 206.405 335.46 206.412 335.445 206.416C335.429 206.42 335.413 206.42 335.397 206.418Z" fill="#FFEDA5"/>
<path d="M386.169 209.531C385.436 209.531 384.704 209.451 383.988 209.292C383.972 209.289 383.958 209.283 383.944 209.274C383.931 209.265 383.92 209.253 383.911 209.24C383.903 209.226 383.897 209.211 383.895 209.195C383.892 209.18 383.893 209.164 383.897 209.148C383.9 209.132 383.906 209.117 383.915 209.103C383.924 209.09 383.936 209.078 383.95 209.07C383.964 209.061 383.98 209.056 383.996 209.053C384.013 209.051 384.029 209.052 384.045 209.057C384.071 209.057 387.064 209.754 388.752 208.682C389.03 208.506 389.268 208.275 389.452 208.003C389.636 207.731 389.762 207.424 389.821 207.101C390.475 203.905 380.686 193.166 380.59 193.074C380.578 193.063 380.569 193.049 380.563 193.034C380.556 193.02 380.553 193.003 380.553 192.987C380.553 192.971 380.556 192.955 380.563 192.94C380.569 192.925 380.578 192.912 380.59 192.9C380.612 192.878 380.643 192.866 380.675 192.866C380.706 192.866 380.737 192.878 380.76 192.9C381.17 193.336 390.728 203.827 390.052 207.141C389.987 207.497 389.849 207.835 389.646 208.135C389.444 208.435 389.181 208.689 388.874 208.883C388.049 209.34 387.113 209.565 386.169 209.531Z" fill="#FFEDA5"/>
<path d="M375.262 184.073C375.232 184.073 375.202 184.062 375.18 184.042C375.157 184.022 375.143 183.994 375.14 183.964C375.137 183.948 375.138 183.932 375.142 183.917C375.146 183.901 375.153 183.887 375.163 183.874C375.173 183.861 375.185 183.851 375.199 183.843C375.213 183.835 375.229 183.831 375.244 183.829C375.371 183.829 388.088 182.052 403.951 175.202C403.981 175.191 404.014 175.192 404.044 175.204C404.073 175.216 404.098 175.238 404.112 175.267C404.124 175.297 404.124 175.331 404.111 175.361C404.099 175.391 404.076 175.415 404.047 175.428C388.154 182.292 375.402 184.055 375.275 184.073H375.262Z" fill="#FFEDA5"/>
<path d="M460.681 183.852L457.529 189.735L457.818 189.889L460.97 184.006L460.681 183.852Z" fill="#282828"/>
<path d="M462.721 378.084L420.002 450.017L421.736 451.043L464.454 379.11L462.721 378.084Z" fill="#282828"/>
<path d="M51.8121 354.182C51.8121 354.182 47.5847 346.073 36.9006 347.088C26.2165 348.103 27.486 356.233 22.3992 355.471C17.3123 354.709 10.1838 355.471 8.65686 360.549C7.12994 365.627 0.258779 362.835 0.0057455 367.155C-0.247288 371.475 7.8934 374.519 17.308 370.709C26.7226 366.898 31.3033 373.67 44.5352 372.451C57.7671 371.231 59.4031 369.698 67.221 370.461C75.0388 371.223 74.8687 365.87 71.3044 362.313C67.7401 358.755 53.339 359.09 51.8121 354.182Z" fill="#E6E8EA"/>
<path d="M431.915 27.1012C431.915 27.1012 427.692 18.9924 417.008 20.0114C406.324 21.0305 407.593 29.1567 402.502 28.3902C397.411 27.6238 390.287 28.3902 388.764 33.4724C387.242 38.5545 380.366 35.7587 380.113 40.0613C379.86 44.3639 388.001 47.4298 397.415 43.6193C406.83 39.8087 411.411 46.5762 424.638 45.3612C437.866 44.1462 439.511 42.6089 447.324 43.371C455.137 44.1331 454.972 38.781 451.407 35.2274C447.843 31.6738 433.442 32.0135 431.915 27.1012Z" fill="#E6E8EA"/>
<path d="M526.799 77.0778C526.799 77.0778 518.986 62.0795 499.219 63.9565C479.452 65.8334 481.807 80.8709 472.393 79.4599C462.978 78.0489 449.803 79.4599 446.98 88.8577C444.158 98.2556 431.449 93.0863 430.978 101.051C430.507 109.016 445.567 114.673 462.983 107.627C480.398 100.581 488.866 113.101 513.341 110.832C537.815 108.564 540.825 105.746 555.331 107.157C569.837 108.568 569.47 98.6649 562.883 92.089C556.295 85.5132 529.622 86.1446 526.799 77.0778Z" fill="#E6E8EA"/>
<path d="M181.122 477.4V490H178.206V484.834H172.482V490H169.566V477.4H172.482V482.368H178.206V477.4H181.122ZM187.825 480.172C189.325 480.172 190.477 480.532 191.281 481.252C192.085 481.96 192.487 483.034 192.487 484.474V490H189.859V488.794C189.331 489.694 188.347 490.144 186.907 490.144C186.163 490.144 185.515 490.018 184.963 489.766C184.423 489.514 184.009 489.166 183.721 488.722C183.433 488.278 183.289 487.774 183.289 487.21C183.289 486.31 183.625 485.602 184.297 485.086C184.981 484.57 186.031 484.312 187.447 484.312H189.679C189.679 483.7 189.493 483.232 189.121 482.908C188.749 482.572 188.191 482.404 187.447 482.404C186.931 482.404 186.421 482.488 185.917 482.656C185.425 482.812 185.005 483.028 184.657 483.304L183.649 481.342C184.177 480.97 184.807 480.682 185.539 480.478C186.283 480.274 187.045 480.172 187.825 480.172ZM187.609 488.254C188.089 488.254 188.515 488.146 188.887 487.93C189.259 487.702 189.523 487.372 189.679 486.94V485.95H187.753C186.601 485.95 186.025 486.328 186.025 487.084C186.025 487.444 186.163 487.732 186.439 487.948C186.727 488.152 187.117 488.254 187.609 488.254ZM203.638 480.316V490H200.83V486.4C200.014 486.808 199.114 487.012 198.13 487.012C196.822 487.012 195.832 486.718 195.16 486.13C194.5 485.53 194.17 484.606 194.17 483.358V480.316H196.978V483.178C196.978 483.766 197.128 484.192 197.428 484.456C197.74 484.72 198.184 484.852 198.76 484.852C199.492 484.852 200.182 484.696 200.83 484.384V480.316H203.638ZM206.334 480.316H209.124V484.096H213.336V480.316H216.144V490H213.336V486.382H209.124V490H206.334V480.316ZM218.832 480.316H221.622V486.076L226.338 480.316H228.912V490H226.122V484.24L221.424 490H218.832V480.316ZM236.709 480.316H239.499V486.076L244.215 480.316H246.789V490H243.999V484.24L239.301 490H236.709V480.316ZM249.489 480.316H252.279V484.096H256.491V480.316H259.299V490H256.491V486.382H252.279V490H249.489V480.316ZM269.385 484.942C270.525 485.326 271.095 486.094 271.095 487.246C271.095 488.122 270.765 488.8 270.105 489.28C269.445 489.76 268.461 490 267.153 490H261.987V480.316H266.937C268.149 480.316 269.097 480.538 269.781 480.982C270.465 481.414 270.807 482.026 270.807 482.818C270.807 483.298 270.681 483.724 270.429 484.096C270.189 484.456 269.841 484.738 269.385 484.942ZM264.561 484.294H266.685C267.669 484.294 268.161 483.946 268.161 483.25C268.161 482.566 267.669 482.224 266.685 482.224H264.561V484.294ZM266.919 488.092C267.951 488.092 268.467 487.738 268.467 487.03C268.467 486.658 268.347 486.388 268.107 486.22C267.867 486.04 267.489 485.95 266.973 485.95H264.561V488.092H266.919ZM282.598 485.194C282.598 485.23 282.58 485.482 282.544 485.95H275.218C275.35 486.55 275.662 487.024 276.154 487.372C276.646 487.72 277.258 487.894 277.99 487.894C278.494 487.894 278.938 487.822 279.322 487.678C279.718 487.522 280.084 487.282 280.42 486.958L281.914 488.578C281.002 489.622 279.67 490.144 277.918 490.144C276.826 490.144 275.86 489.934 275.02 489.514C274.18 489.082 273.532 488.488 273.076 487.732C272.62 486.976 272.392 486.118 272.392 485.158C272.392 484.21 272.614 483.358 273.058 482.602C273.514 481.834 274.132 481.24 274.912 480.82C275.704 480.388 276.586 480.172 277.558 480.172C278.506 480.172 279.364 480.376 280.132 480.784C280.9 481.192 281.5 481.78 281.932 482.548C282.376 483.304 282.598 484.186 282.598 485.194ZM277.576 482.296C276.94 482.296 276.406 482.476 275.974 482.836C275.542 483.196 275.278 483.688 275.182 484.312H279.952C279.856 483.7 279.592 483.214 279.16 482.854C278.728 482.482 278.2 482.296 277.576 482.296ZM289.358 490.144C288.326 490.144 287.396 489.934 286.568 489.514C285.752 489.082 285.11 488.488 284.642 487.732C284.186 486.976 283.958 486.118 283.958 485.158C283.958 484.198 284.186 483.34 284.642 482.584C285.11 481.828 285.752 481.24 286.568 480.82C287.396 480.388 288.326 480.172 289.358 480.172C290.378 480.172 291.266 480.388 292.022 480.82C292.79 481.24 293.348 481.846 293.696 482.638L291.518 483.808C291.014 482.92 290.288 482.476 289.34 482.476C288.608 482.476 288.002 482.716 287.522 483.196C287.042 483.676 286.802 484.33 286.802 485.158C286.802 485.986 287.042 486.64 287.522 487.12C288.002 487.6 288.608 487.84 289.34 487.84C290.3 487.84 291.026 487.396 291.518 486.508L293.696 487.696C293.348 488.464 292.79 489.064 292.022 489.496C291.266 489.928 290.378 490.144 289.358 490.144ZM303.504 482.62H300.228V490H297.438V482.62H294.162V480.316H303.504V482.62ZM305 480.316H307.79V486.076L312.506 480.316H315.08V490H312.29V484.24L307.592 490H305V480.316ZM323.486 480.172C324.386 480.172 325.202 480.382 325.934 480.802C326.678 481.21 327.26 481.792 327.68 482.548C328.1 483.292 328.31 484.162 328.31 485.158C328.31 486.154 328.1 487.03 327.68 487.786C327.26 488.53 326.678 489.112 325.934 489.532C325.202 489.94 324.386 490.144 323.486 490.144C322.25 490.144 321.278 489.754 320.57 488.974V493.492H317.762V480.316H320.444V481.432C321.14 480.592 322.154 480.172 323.486 480.172ZM323 487.84C323.72 487.84 324.308 487.6 324.764 487.12C325.232 486.628 325.466 485.974 325.466 485.158C325.466 484.342 325.232 483.694 324.764 483.214C324.308 482.722 323.72 482.476 323 482.476C322.28 482.476 321.686 482.722 321.218 483.214C320.762 483.694 320.534 484.342 320.534 485.158C320.534 485.974 320.762 486.628 321.218 487.12C321.686 487.6 322.28 487.84 323 487.84ZM334.814 490.144C333.794 490.144 332.876 489.934 332.06 489.514C331.256 489.082 330.626 488.488 330.17 487.732C329.714 486.976 329.486 486.118 329.486 485.158C329.486 484.198 329.714 483.34 330.17 482.584C330.626 481.828 331.256 481.24 332.06 480.82C332.876 480.388 333.794 480.172 334.814 480.172C335.834 480.172 336.746 480.388 337.55 480.82C338.354 481.24 338.984 481.828 339.44 482.584C339.896 483.34 340.124 484.198 340.124 485.158C340.124 486.118 339.896 486.976 339.44 487.732C338.984 488.488 338.354 489.082 337.55 489.514C336.746 489.934 335.834 490.144 334.814 490.144ZM334.814 487.84C335.534 487.84 336.122 487.6 336.578 487.12C337.046 486.628 337.28 485.974 337.28 485.158C337.28 484.342 337.046 483.694 336.578 483.214C336.122 482.722 335.534 482.476 334.814 482.476C334.094 482.476 333.5 482.722 333.032 483.214C332.564 483.694 332.33 484.342 332.33 485.158C332.33 485.974 332.564 486.628 333.032 487.12C333.5 487.6 334.094 487.84 334.814 487.84ZM349.453 484.942C350.593 485.326 351.163 486.094 351.163 487.246C351.163 488.122 350.833 488.8 350.173 489.28C349.513 489.76 348.529 490 347.221 490H342.055V480.316H347.005C348.217 480.316 349.165 480.538 349.849 480.982C350.533 481.414 350.875 482.026 350.875 482.818C350.875 483.298 350.749 483.724 350.497 484.096C350.257 484.456 349.909 484.738 349.453 484.942ZM344.629 484.294H346.753C347.737 484.294 348.229 483.946 348.229 483.25C348.229 482.566 347.737 482.224 346.753 482.224H344.629V484.294ZM346.987 488.092C348.019 488.092 348.535 487.738 348.535 487.03C348.535 486.658 348.415 486.388 348.175 486.22C347.935 486.04 347.557 485.95 347.041 485.95H344.629V488.092H346.987ZM357.014 480.172C358.514 480.172 359.666 480.532 360.47 481.252C361.274 481.96 361.676 483.034 361.676 484.474V490H359.048V488.794C358.52 489.694 357.536 490.144 356.096 490.144C355.352 490.144 354.704 490.018 354.152 489.766C353.612 489.514 353.198 489.166 352.91 488.722C352.622 488.278 352.478 487.774 352.478 487.21C352.478 486.31 352.814 485.602 353.486 485.086C354.17 484.57 355.22 484.312 356.636 484.312H358.868C358.868 483.7 358.682 483.232 358.31 482.908C357.938 482.572 357.38 482.404 356.636 482.404C356.12 482.404 355.61 482.488 355.106 482.656C354.614 482.812 354.194 483.028 353.846 483.304L352.838 481.342C353.366 480.97 353.996 480.682 354.728 480.478C355.472 480.274 356.234 480.172 357.014 480.172ZM356.798 488.254C357.278 488.254 357.704 488.146 358.076 487.93C358.448 487.702 358.712 487.372 358.868 486.94V485.95H356.942C355.79 485.95 355.214 486.328 355.214 487.084C355.214 487.444 355.352 487.732 355.628 487.948C355.916 488.152 356.306 488.254 356.798 488.254ZM372.252 482.62H368.976V490H366.186V482.62H362.91V480.316H372.252V482.62ZM378.986 483.412C380.246 483.424 381.212 483.712 381.884 484.276C382.556 484.828 382.892 485.614 382.892 486.634C382.892 487.702 382.514 488.536 381.758 489.136C381.014 489.724 379.964 490.018 378.608 490.018L373.748 490V480.316H376.538V483.412H378.986ZM378.356 488.02C378.896 488.032 379.31 487.918 379.598 487.678C379.886 487.438 380.03 487.078 380.03 486.598C380.03 486.13 379.886 485.788 379.598 485.572C379.322 485.356 378.908 485.242 378.356 485.23L376.538 485.212V488.02H378.356ZM176.748 506.942C177.888 507.326 178.458 508.094 178.458 509.246C178.458 510.122 178.128 510.8 177.468 511.28C176.808 511.76 175.824 512 174.516 512H169.35V502.316H174.3C175.512 502.316 176.46 502.538 177.144 502.982C177.828 503.414 178.17 504.026 178.17 504.818C178.17 505.298 178.044 505.724 177.792 506.096C177.552 506.456 177.204 506.738 176.748 506.942ZM171.924 506.294H174.048C175.032 506.294 175.524 505.946 175.524 505.25C175.524 504.566 175.032 504.224 174.048 504.224H171.924V506.294ZM174.282 510.092C175.314 510.092 175.83 509.738 175.83 509.03C175.83 508.658 175.71 508.388 175.47 508.22C175.23 508.04 174.852 507.95 174.336 507.95H171.924V510.092H174.282ZM190.253 512.144C189.221 512.144 188.291 511.934 187.463 511.514C186.647 511.082 186.005 510.488 185.537 509.732C185.081 508.976 184.853 508.118 184.853 507.158C184.853 506.198 185.081 505.34 185.537 504.584C186.005 503.828 186.647 503.24 187.463 502.82C188.291 502.388 189.221 502.172 190.253 502.172C191.273 502.172 192.161 502.388 192.917 502.82C193.685 503.24 194.243 503.846 194.591 504.638L192.413 505.808C191.909 504.92 191.183 504.476 190.235 504.476C189.503 504.476 188.897 504.716 188.417 505.196C187.937 505.676 187.697 506.33 187.697 507.158C187.697 507.986 187.937 508.64 188.417 509.12C188.897 509.6 189.503 509.84 190.235 509.84C191.195 509.84 191.921 509.396 192.413 508.508L194.591 509.696C194.243 510.464 193.685 511.064 192.917 511.496C192.161 511.928 191.273 512.144 190.253 512.144ZM203.695 506.942C204.835 507.326 205.405 508.094 205.405 509.246C205.405 510.122 205.075 510.8 204.415 511.28C203.755 511.76 202.771 512 201.463 512H196.297V502.316H201.247C202.459 502.316 203.407 502.538 204.091 502.982C204.775 503.414 205.117 504.026 205.117 504.818C205.117 505.298 204.991 505.724 204.739 506.096C204.499 506.456 204.151 506.738 203.695 506.942ZM198.871 506.294H200.995C201.979 506.294 202.471 505.946 202.471 505.25C202.471 504.566 201.979 504.224 200.995 504.224H198.871V506.294ZM201.229 510.092C202.261 510.092 202.777 509.738 202.777 509.03C202.777 508.658 202.657 508.388 202.417 508.22C202.177 508.04 201.799 507.95 201.283 507.95H198.871V510.092H201.229ZM212.031 512.144C211.011 512.144 210.093 511.934 209.277 511.514C208.473 511.082 207.843 510.488 207.387 509.732C206.931 508.976 206.703 508.118 206.703 507.158C206.703 506.198 206.931 505.34 207.387 504.584C207.843 503.828 208.473 503.24 209.277 502.82C210.093 502.388 211.011 502.172 212.031 502.172C213.051 502.172 213.963 502.388 214.767 502.82C215.571 503.24 216.201 503.828 216.657 504.584C217.113 505.34 217.341 506.198 217.341 507.158C217.341 508.118 217.113 508.976 216.657 509.732C216.201 510.488 215.571 511.082 214.767 511.514C213.963 511.934 213.051 512.144 212.031 512.144ZM212.031 509.84C212.751 509.84 213.339 509.6 213.795 509.12C214.263 508.628 214.497 507.974 214.497 507.158C214.497 506.342 214.263 505.694 213.795 505.214C213.339 504.722 212.751 504.476 212.031 504.476C211.311 504.476 210.717 504.722 210.249 505.214C209.781 505.694 209.547 506.342 209.547 507.158C209.547 507.974 209.781 508.628 210.249 509.12C210.717 509.6 211.311 509.84 212.031 509.84ZM228.686 507.194C228.686 507.23 228.668 507.482 228.632 507.95H221.306C221.438 508.55 221.75 509.024 222.242 509.372C222.734 509.72 223.346 509.894 224.078 509.894C224.582 509.894 225.026 509.822 225.41 509.678C225.806 509.522 226.172 509.282 226.508 508.958L228.002 510.578C227.09 511.622 225.758 512.144 224.006 512.144C222.914 512.144 221.948 511.934 221.108 511.514C220.268 511.082 219.62 510.488 219.164 509.732C218.708 508.976 218.48 508.118 218.48 507.158C218.48 506.21 218.702 505.358 219.146 504.602C219.602 503.834 220.22 503.24 221 502.82C221.792 502.388 222.674 502.172 223.646 502.172C224.594 502.172 225.452 502.376 226.22 502.784C226.988 503.192 227.588 503.78 228.02 504.548C228.464 505.304 228.686 506.186 228.686 507.194ZM223.664 504.296C223.028 504.296 222.494 504.476 222.062 504.836C221.63 505.196 221.366 505.688 221.27 506.312H226.04C225.944 505.7 225.68 505.214 225.248 504.854C224.816 504.482 224.288 504.296 223.664 504.296ZM241.534 502.982C242.458 502.982 243.268 503.174 243.964 503.558C244.66 503.93 245.194 504.458 245.566 505.142C245.95 505.826 246.142 506.618 246.142 507.518C246.142 508.442 245.914 509.264 245.458 509.984C245.014 510.692 244.39 511.244 243.586 511.64C242.782 512.024 241.87 512.216 240.85 512.216C239.158 512.216 237.826 511.676 236.854 510.596C235.894 509.504 235.414 507.908 235.414 505.808C235.414 503.864 235.834 502.316 236.674 501.164C237.526 500 238.828 499.238 240.58 498.878L245.188 497.96L245.566 500.372L241.498 501.182C240.394 501.398 239.572 501.758 239.032 502.262C238.504 502.766 238.192 503.48 238.096 504.404C238.516 503.948 239.02 503.6 239.608 503.36C240.196 503.108 240.838 502.982 241.534 502.982ZM240.868 510.038C241.588 510.038 242.164 509.804 242.596 509.336C243.04 508.868 243.262 508.274 243.262 507.554C243.262 506.822 243.04 506.24 242.596 505.808C242.164 505.376 241.588 505.16 240.868 505.16C240.136 505.16 239.548 505.376 239.104 505.808C238.66 506.24 238.438 506.822 238.438 507.554C238.438 508.286 238.666 508.886 239.122 509.354C239.578 509.81 240.16 510.038 240.868 510.038ZM257.486 502.316L253.112 512.594C252.668 513.71 252.116 514.496 251.456 514.952C250.808 515.408 250.022 515.636 249.098 515.636C248.594 515.636 248.096 515.558 247.604 515.402C247.112 515.246 246.71 515.03 246.398 514.754L247.424 512.756C247.64 512.948 247.886 513.098 248.162 513.206C248.45 513.314 248.732 513.368 249.008 513.368C249.392 513.368 249.704 513.272 249.944 513.08C250.184 512.9 250.4 512.594 250.592 512.162L250.628 512.072L246.434 502.316H249.332L252.05 508.886L254.786 502.316H257.486ZM269.009 509.696V514.088H266.399V512H259.595V514.088H256.985V509.696H257.381C257.981 509.684 258.395 509.33 258.623 508.634C258.851 507.938 258.995 506.948 259.055 505.664L259.181 502.316H267.623V509.696H269.009ZM261.593 505.862C261.557 506.846 261.479 507.65 261.359 508.274C261.251 508.898 261.041 509.372 260.729 509.696H264.815V504.62H261.647L261.593 505.862ZM280.478 502.316L276.104 512.594C275.66 513.71 275.108 514.496 274.448 514.952C273.8 515.408 273.014 515.636 272.09 515.636C271.586 515.636 271.088 515.558 270.596 515.402C270.104 515.246 269.702 515.03 269.39 514.754L270.416 512.756C270.632 512.948 270.878 513.098 271.154 513.206C271.442 513.314 271.724 513.368 272 513.368C272.384 513.368 272.696 513.272 272.936 513.08C273.176 512.9 273.392 512.594 273.584 512.162L273.62 512.072L269.426 502.316H272.324L275.042 508.886L277.778 502.316H280.478ZM296.61 502.316V512H281.832V502.316H284.622V509.696H287.844V502.316H290.634V509.696H293.82V502.316H296.61ZM297.96 509.696V513.926H295.35V512H293.748V509.696H297.96ZM308.719 507.194C308.719 507.23 308.701 507.482 308.665 507.95H301.339C301.471 508.55 301.783 509.024 302.275 509.372C302.767 509.72 303.379 509.894 304.111 509.894C304.615 509.894 305.059 509.822 305.443 509.678C305.839 509.522 306.205 509.282 306.541 508.958L308.035 510.578C307.123 511.622 305.791 512.144 304.039 512.144C302.947 512.144 301.981 511.934 301.141 511.514C300.301 511.082 299.653 510.488 299.197 509.732C298.741 508.976 298.513 508.118 298.513 507.158C298.513 506.21 298.735 505.358 299.179 504.602C299.635 503.834 300.253 503.24 301.033 502.82C301.825 502.388 302.707 502.172 303.679 502.172C304.627 502.172 305.485 502.376 306.253 502.784C307.021 503.192 307.621 503.78 308.053 504.548C308.497 505.304 308.719 506.186 308.719 507.194ZM303.697 504.296C303.061 504.296 302.527 504.476 302.095 504.836C301.663 505.196 301.399 505.688 301.303 506.312H306.073C305.977 505.7 305.713 505.214 305.281 504.854C304.849 504.482 304.321 504.296 303.697 504.296ZM320.285 507.194C320.285 507.23 320.267 507.482 320.231 507.95H312.905C313.037 508.55 313.349 509.024 313.841 509.372C314.333 509.72 314.945 509.894 315.677 509.894C316.181 509.894 316.625 509.822 317.009 509.678C317.405 509.522 317.771 509.282 318.107 508.958L319.601 510.578C318.689 511.622 317.357 512.144 315.605 512.144C314.513 512.144 313.547 511.934 312.707 511.514C311.867 511.082 311.219 510.488 310.763 509.732C310.307 508.976 310.079 508.118 310.079 507.158C310.079 506.21 310.301 505.358 310.745 504.602C311.201 503.834 311.819 503.24 312.599 502.82C313.391 502.388 314.273 502.172 315.245 502.172C316.193 502.172 317.051 502.376 317.819 502.784C318.587 503.192 319.187 503.78 319.619 504.548C320.063 505.304 320.285 506.186 320.285 507.194ZM315.263 504.296C314.627 504.296 314.093 504.476 313.661 504.836C313.229 505.196 312.965 505.688 312.869 506.312H317.639C317.543 505.7 317.279 505.214 316.847 504.854C316.415 504.482 315.887 504.296 315.263 504.296Z" fill="#FFA200"/>
<path fill-rule="evenodd" clip-rule="evenodd" d="M139.015 176.173L135.265 181.648C134.863 182.236 134.089 182.347 133.538 181.895V181.895V181.895C132.986 181.444 132.213 181.555 131.81 182.143L131.654 182.371L131.498 182.599C131.095 183.187 131.216 184.029 131.767 184.481V184.481L132.053 184.714C132.447 185.037 132.533 185.638 132.245 186.058V186.058V186.058C131.958 186.478 131.405 186.557 131.011 186.235L130.726 186.001V186.001C130.174 185.55 129.401 185.661 128.998 186.249L128.842 186.477L128.686 186.705C128.283 187.293 128.404 188.135 128.955 188.587V188.587V188.587C129.507 189.038 129.628 189.88 129.225 190.468L127.975 192.293L127.246 193.358C126.556 194.366 126.763 195.81 127.708 196.583V196.583V196.583C128.653 197.357 129.979 197.167 130.67 196.159L131.399 195.095V195.095C132.491 193.499 134.591 193.198 136.088 194.423L137.871 195.882L141.151 198.567C141.821 199.115 142.76 198.981 143.249 198.267V198.267V198.267C143.738 197.553 143.592 196.53 142.922 195.982L139.641 193.297L135.861 190.204C135.467 189.881 135.381 189.28 135.669 188.86V188.86V188.86C135.956 188.44 136.509 188.361 136.903 188.683L138.415 189.921C140.967 192.009 141.989 192.557 144.059 192.945C149.652 193.995 154.819 188.455 154.141 182.136C153.946 180.319 152.956 178.053 151.736 176.633C151.332 176.163 149.311 174.396 147.247 172.706V172.706C145.174 171.01 142.266 171.426 140.752 173.636L139.015 176.173ZM149.303 179.512C150.036 180.693 150.312 182.766 149.932 184.234C149.079 187.523 145.877 189.634 142.893 188.874C142.097 188.672 141.622 188.385 139.941 187.091V187.091C138.843 186.247 138.585 184.602 139.369 183.457L141.451 180.416L143.534 177.375C144.316 176.233 145.832 176.05 146.871 176.972V176.972C148.167 178.121 148.943 178.932 149.303 179.512Z" fill="#E6E8EA"/>
<path fill-rule="evenodd" clip-rule="evenodd" d="M186.894 158.444L187.57 166.35C187.643 167.199 187.011 167.887 186.159 167.887V167.887V167.887C185.307 167.887 184.675 168.575 184.747 169.424L184.776 169.754L184.804 170.083C184.876 170.932 185.626 171.621 186.478 171.621V171.621H186.919C187.528 171.621 188.063 172.112 188.115 172.719V172.719V172.719C188.167 173.325 187.716 173.817 187.107 173.817H186.666V173.817C185.814 173.817 185.182 174.505 185.255 175.354L185.283 175.683L185.311 176.013C185.384 176.862 186.133 177.55 186.986 177.55V177.55V177.55C187.838 177.55 188.587 178.238 188.66 179.088L188.885 181.723L189.017 183.26C189.142 184.716 190.427 185.896 191.887 185.896V185.896V185.896C193.348 185.896 194.432 184.716 194.307 183.26L194.176 181.723V181.723C193.978 179.418 195.694 177.55 198.006 177.55H200.762H205.831C206.866 177.55 207.633 176.714 207.545 175.683V175.683V175.683C207.457 174.652 206.547 173.817 205.512 173.817H200.442H194.601C193.993 173.817 193.457 173.325 193.405 172.719V172.719V172.719C193.353 172.112 193.805 171.621 194.413 171.621H196.751C200.694 171.621 202.055 171.353 204.264 170.146C210.235 166.881 210.822 157.84 205.409 152.505C203.852 150.971 201.219 149.624 199.015 149.235C198.285 149.106 195.077 149 191.886 149V149C188.683 149 186.307 151.588 186.58 154.779L186.894 158.444ZM198.943 153.741C200.517 154.279 202.343 155.989 203.102 157.635C204.803 161.326 203.439 165.704 200.102 167.261C199.212 167.676 198.556 167.77 196.019 167.846V167.846C194.364 167.896 192.879 166.569 192.738 164.916L192.362 160.524L191.986 156.133C191.845 154.484 193.109 153.166 194.769 153.232V153.232C196.839 153.315 198.172 153.477 198.943 153.741Z" fill="#FFA200"/>
<path fill-rule="evenodd" clip-rule="evenodd" d="M247.261 85.9078L247.827 92.5283C247.888 93.2393 247.359 93.8156 246.645 93.8156V93.8156V93.8156C245.932 93.8156 245.402 94.392 245.463 95.103L245.487 95.3788L245.51 95.6547C245.571 96.3656 246.199 96.942 246.913 96.942V96.942H247.282C247.791 96.942 248.24 97.3537 248.283 97.8615V97.8615V97.8615C248.327 98.3693 247.949 98.781 247.439 98.781H247.07V98.781C246.356 98.781 245.827 99.3574 245.888 100.068L245.912 100.344L245.935 100.62C245.996 101.331 246.624 101.907 247.337 101.907V101.907V101.907C248.051 101.907 248.679 102.484 248.74 103.195L248.928 105.402L249.038 106.689C249.143 107.908 250.219 108.896 251.442 108.896V108.896V108.896C252.665 108.896 253.573 107.908 253.468 106.689L253.358 105.402V105.402C253.193 103.472 254.629 101.907 256.566 101.907H258.873H263.119C263.985 101.907 264.628 101.207 264.554 100.344V100.344V100.344C264.48 99.4809 263.718 98.781 262.851 98.781H258.606H253.715C253.205 98.781 252.757 98.3693 252.713 97.8615V97.8615V97.8615C252.67 97.3537 253.048 96.942 253.557 96.942H255.515C258.817 96.942 259.956 96.7184 261.806 95.7069C266.806 92.973 267.297 85.4021 262.765 80.9353C261.461 79.6507 259.256 78.5228 257.411 78.1966C256.799 78.0885 254.113 78 251.441 78V78C248.759 78 246.769 80.1668 246.998 82.8396L247.261 85.9078ZM257.351 81.9701C258.669 82.4207 260.197 83.8522 260.833 85.2309C262.258 88.3212 261.115 91.9876 258.321 93.2913C257.576 93.6387 257.026 93.7176 254.902 93.7814V93.7814C253.516 93.823 252.273 92.7123 252.154 91.3276L251.839 87.6501L251.525 83.9734C251.407 82.5924 252.465 81.4888 253.855 81.5442V81.5442C255.588 81.6131 256.705 81.7492 257.351 81.9701Z" fill="#FFA200"/>
<path fill-rule="evenodd" clip-rule="evenodd" d="M208.055 44.7639L205.968 49.6152C205.744 50.1361 205.157 50.3415 204.657 50.0738V50.0738V50.0738C204.157 49.8062 203.57 50.0115 203.346 50.5325L203.259 50.7346L203.172 50.9368C202.948 51.4577 203.172 52.097 203.672 52.3647V52.3647L203.931 52.5032C204.288 52.6944 204.447 53.151 204.287 53.5231V53.5231V53.5231C204.127 53.8953 203.708 54.0419 203.351 53.8508L203.092 53.7123V53.7123C202.592 53.4446 202.005 53.65 201.781 54.171L201.694 54.3731L201.607 54.5752C201.383 55.0962 201.607 55.7355 202.107 56.0032V56.0032V56.0032C202.607 56.2708 202.831 56.9101 202.607 57.4311L201.911 59.0482L201.505 59.9915C201.121 60.8846 201.505 61.9806 202.362 62.4394V62.4394V62.4394C203.219 62.8983 204.225 62.5462 204.609 61.6531L205.015 60.7098V60.7098C205.623 59.2958 207.216 58.7384 208.573 59.4649L210.19 60.3303L213.164 61.9227C213.772 62.2477 214.484 61.9984 214.756 61.3658V61.3658V61.3658C215.028 60.7332 214.757 59.9568 214.15 59.6318L211.175 58.0394L207.748 56.2047C207.391 56.0135 207.231 55.5569 207.391 55.1848V55.1848V55.1848C207.551 54.8126 207.971 54.666 208.328 54.8571L209.699 55.5914C212.013 56.8301 212.895 57.1008 214.571 57.0859C219.1 57.0458 222.284 51.9254 220.783 47.0953C220.352 45.7063 219.23 44.0889 218.059 43.1681C217.671 42.863 215.822 41.7934 213.95 40.7913V40.7913C212.071 39.785 209.864 40.557 209.022 42.5156L208.055 44.7639ZM216.602 45.7896C217.356 46.5997 217.89 48.176 217.818 49.3805C217.658 52.0803 215.482 54.2207 213.035 54.086C212.383 54.0501 211.968 53.8991 210.455 53.147V53.147C209.469 52.6564 209.014 51.4116 209.45 50.3969L210.609 47.7022L211.768 45.008C212.203 43.9961 213.359 43.6199 214.312 44.1799V44.1799C215.501 44.8784 216.232 45.3925 216.602 45.7896Z" fill="#FFA200"/>
<path fill-rule="evenodd" clip-rule="evenodd" d="M252.416 219.57L255.468 223.88C255.795 224.343 255.665 224.951 255.175 225.238V225.238V225.238C254.686 225.525 254.555 226.133 254.883 226.596L255.01 226.775L255.137 226.955C255.465 227.418 256.127 227.56 256.616 227.273V227.273L256.869 227.125C257.219 226.92 257.692 227.021 257.926 227.352V227.352V227.352C258.16 227.683 258.066 228.117 257.717 228.322L257.464 228.47V228.47C256.975 228.757 256.844 229.365 257.172 229.828L257.299 230.008L257.426 230.187C257.754 230.65 258.416 230.793 258.905 230.506V230.506V230.506C259.394 230.219 260.056 230.361 260.384 230.824L261.401 232.261L261.995 233.099C262.556 233.892 263.691 234.137 264.53 233.644V233.644V233.644C265.368 233.152 265.593 232.11 265.031 231.317L264.438 230.479V230.479C263.548 229.222 263.903 227.572 265.231 226.793L266.812 225.865L269.722 224.157C270.316 223.809 270.475 223.07 270.077 222.508V222.508V222.508C269.679 221.946 268.875 221.773 268.281 222.122L265.371 223.83L262.019 225.797C261.669 226.002 261.196 225.901 260.962 225.57V225.57V225.57C260.728 225.239 260.822 224.805 261.171 224.6L262.513 223.813C264.776 222.484 265.467 221.873 266.328 220.435C268.655 216.55 265.946 211.163 261.043 209.925C259.632 209.569 257.667 209.683 256.271 210.201C255.809 210.373 253.932 211.393 252.101 212.468V212.468C250.262 213.547 249.77 215.832 251.002 217.573L252.416 219.57ZM257.748 212.812C258.833 212.591 260.456 212.957 261.447 213.646C263.666 215.191 264.358 218.164 262.967 220.182C262.597 220.719 262.251 220.995 260.821 221.893V221.893C259.888 222.479 258.589 222.218 257.951 221.316L256.255 218.922L254.561 216.529C253.924 215.63 254.206 214.447 255.181 213.926V213.926C256.396 213.276 257.216 212.92 257.748 212.812Z" fill="#FFA200"/>
<path fill-rule="evenodd" clip-rule="evenodd" d="M280.652 23.0974L282.15 30.3565C282.311 31.1361 281.801 31.8441 281.01 31.9379V31.9379V31.9379C280.22 32.0318 279.71 32.7398 279.87 33.5194L279.933 33.8219L279.995 34.1243C280.156 34.9039 280.927 35.4597 281.718 35.3659V35.3659L282.127 35.3173C282.691 35.2503 283.242 35.6473 283.357 36.2041V36.2041V36.2041C283.472 36.761 283.108 37.2667 282.543 37.3337L282.134 37.3823V37.3823C281.344 37.4762 280.833 38.1842 280.994 38.9637L281.057 39.2662L281.119 39.5687C281.28 40.3482 282.051 40.9041 282.842 40.8102V40.8102V40.8102C283.632 40.7164 284.403 41.2722 284.564 42.0518L285.063 44.4715L285.355 45.883C285.631 47.2194 286.953 48.1723 288.308 48.0114V48.0114V48.0114C289.663 47.8505 290.538 46.6367 290.262 45.3003L289.97 43.8888V43.8888C289.534 41.7729 290.919 39.8511 293.064 39.5963L295.62 39.2929L300.323 38.7345C301.282 38.6205 301.902 37.7607 301.707 36.8141V36.8141V36.8141C301.511 35.8675 300.575 35.1926 299.615 35.3065L294.913 35.8649L289.494 36.5083C288.93 36.5753 288.379 36.1783 288.264 35.6215V35.6215V35.6215C288.149 35.0647 288.514 34.5589 289.078 34.4919L291.247 34.2344C294.904 33.8 296.137 33.4025 298.053 32.0387C303.232 28.3527 302.781 19.9016 297.172 15.5499C295.559 14.2984 292.968 13.3391 290.881 13.2204C290.189 13.1811 287.202 13.4364 284.243 13.7878V13.7878C281.271 14.1407 279.353 16.8025 279.958 19.7331L280.652 23.0974ZM291.311 17.4083C292.83 17.734 294.712 19.1187 295.597 20.5623C297.582 23.798 296.798 28.0098 293.875 29.8214C293.095 30.3042 292.497 30.4639 290.152 30.814V30.814C288.623 31.0423 287.099 29.9756 286.785 28.4573L285.953 24.4251L285.121 20.3936C284.809 18.8795 285.836 17.5177 287.383 17.3963V17.3963C289.312 17.2447 290.566 17.2486 291.311 17.4083Z" fill="#FFA200"/>
<path fill-rule="evenodd" clip-rule="evenodd" d="M368.896 114.244L364.983 120.539C364.563 121.215 363.705 121.377 363.067 120.901V120.901V120.901C362.429 120.425 361.572 120.587 361.152 121.263L360.989 121.525L360.826 121.787C360.405 122.463 360.582 123.397 361.22 123.874V123.874L361.549 124.12C362.005 124.46 362.131 125.128 361.831 125.61V125.61V125.61C361.531 126.093 360.918 126.209 360.463 125.869L360.133 125.622V125.622C359.495 125.146 358.637 125.308 358.217 125.984L358.054 126.246L357.891 126.509C357.471 127.185 357.647 128.119 358.285 128.595V128.595V128.595C358.923 129.071 359.099 130.006 358.679 130.682L357.375 132.78L356.614 134.004C355.893 135.163 356.196 136.764 357.289 137.581V137.581V137.581C358.382 138.397 359.853 138.12 360.573 136.961L361.334 135.737V135.737C362.474 133.902 364.802 133.462 366.533 134.755L368.595 136.295L372.389 139.129C373.164 139.707 374.205 139.51 374.716 138.69V138.69V138.69C375.226 137.869 375.012 136.734 374.237 136.156L370.443 133.322L366.071 130.058C365.616 129.717 365.49 129.05 365.79 128.567V128.567V128.567C366.09 128.084 366.703 127.969 367.158 128.309L368.908 129.616C371.859 131.82 373.027 132.38 375.355 132.711C381.649 133.605 387.141 127.166 386.072 120.148C385.764 118.13 384.546 115.65 383.114 114.127C382.64 113.622 380.298 111.75 377.911 109.967V109.967C375.513 108.176 372.289 108.785 370.709 111.327L368.896 114.244ZM380.542 117.46C381.419 118.742 381.83 121.042 381.478 122.698C380.689 126.411 377.22 128.926 373.852 128.226C372.955 128.039 372.411 127.742 370.47 126.382V126.382C369.204 125.494 368.833 123.671 369.652 122.354L371.825 118.858L373.998 115.361C374.814 114.048 376.497 113.769 377.702 114.746V114.746C379.205 115.964 380.112 116.831 380.542 117.46Z" fill="#FFA200"/>
<path fill-rule="evenodd" clip-rule="evenodd" d="M274.151 148.972L280.297 153.114C280.957 153.559 281.088 154.422 280.588 155.042V155.042V155.042C280.089 155.661 280.219 156.525 280.879 156.969L281.135 157.142L281.391 157.315C282.051 157.759 282.991 157.618 283.491 156.998V156.998L283.749 156.677C284.106 156.234 284.777 156.133 285.249 156.451V156.451V156.451C285.72 156.769 285.813 157.385 285.457 157.828L285.198 158.148V158.148C284.699 158.768 284.829 159.631 285.489 160.076L285.745 160.249L286.001 160.421C286.661 160.866 287.601 160.724 288.101 160.104V160.104V160.104C288.6 159.485 289.54 159.343 290.2 159.788L292.249 161.168L293.444 161.974C294.576 162.736 296.187 162.493 297.044 161.431V161.431V161.431C297.9 160.368 297.677 158.889 296.545 158.126L295.35 157.321V157.321C293.558 156.114 293.205 153.771 294.561 152.089L296.176 150.085L299.147 146.398C299.754 145.645 299.596 144.597 298.794 144.057V144.057V144.057C297.993 143.517 296.851 143.689 296.245 144.442L293.273 148.129L289.849 152.377C289.493 152.82 288.821 152.921 288.35 152.603V152.603V152.603C287.878 152.286 287.785 151.669 288.142 151.227L289.512 149.526C291.823 146.658 292.427 145.512 292.843 143.197C293.968 136.941 287.737 131.215 280.684 132.025C278.656 132.258 276.133 133.384 274.558 134.758C274.036 135.214 272.079 137.485 270.209 139.805V139.805C268.331 142.135 268.82 145.38 271.302 147.052L274.151 148.972ZM277.793 137.452C279.107 136.623 281.42 136.297 283.063 136.71C286.744 137.635 289.129 141.194 288.305 144.534C288.086 145.424 287.769 145.957 286.338 147.846V147.846C285.404 149.079 283.569 149.382 282.283 148.515L278.869 146.214L275.455 143.914C274.173 143.05 273.956 141.358 274.977 140.19V140.19C276.25 138.733 277.149 137.858 277.793 137.452Z" fill="#E6E8EA"/>
<path fill-rule="evenodd" clip-rule="evenodd" d="M175.844 109.576L170.407 112.905C169.823 113.263 169.102 113.056 168.795 112.444V112.444V112.444C168.489 111.832 167.767 111.625 167.183 111.983L166.957 112.121L166.73 112.26C166.146 112.617 165.921 113.404 166.228 114.016V114.016L166.386 114.332C166.605 114.77 166.444 115.331 166.027 115.587V115.587V115.587C165.61 115.842 165.095 115.694 164.876 115.257L164.718 114.94V114.94C164.411 114.328 163.689 114.122 163.106 114.479L162.879 114.618L162.652 114.757C162.069 115.114 161.844 115.9 162.15 116.512V116.512V116.512C162.456 117.125 162.232 117.911 161.648 118.268L159.835 119.378L158.778 120.025C157.777 120.638 157.392 121.985 157.917 123.035V123.035V123.035C158.442 124.084 159.679 124.438 160.68 123.826L161.738 123.178V123.178C163.322 122.208 165.281 122.768 166.113 124.43L167.104 126.41L168.926 130.052C169.298 130.795 170.175 131.046 170.884 130.612V130.612V130.612C171.593 130.178 171.866 129.223 171.494 128.48L169.671 124.838L167.571 120.641C167.352 120.204 167.513 119.643 167.93 119.387V119.387V119.387C168.347 119.132 168.862 119.279 169.081 119.717L169.922 121.396C171.339 124.229 172.021 125.111 173.683 126.264C178.175 129.379 184.882 126.55 186.768 120.743C187.31 119.073 187.331 116.697 186.818 114.973C186.649 114.402 185.571 112.06 184.424 109.768V109.768C183.272 107.466 180.559 106.69 178.364 108.034L175.844 109.576ZM183.555 116.542C183.734 117.866 183.163 119.793 182.253 120.93C180.213 123.48 176.577 124.073 174.258 122.236C173.641 121.746 173.337 121.308 172.37 119.513V119.513C171.739 118.342 172.158 116.798 173.295 116.102L176.315 114.253L179.335 112.404C180.469 111.71 181.87 112.144 182.419 113.36V113.36C183.105 114.877 183.467 115.893 183.555 116.542Z" fill="#E6E8EA"/>
</g>
<defs>
<clipPath id="clip0_252_2177">
<rect width="598" height="573" fill="white"/>
</clipPath>
</defs>
</svg>
