<svg width="17" height="17" viewBox="0 0 17 17" fill="none" xmlns="http://www.w3.org/2000/svg">
<path d="M8.49997 5.76614C6.9947 5.76614 5.76628 6.99456 5.76628 8.49983C5.76628 10.0051 6.9947 11.2335 8.49997 11.2335C10.0052 11.2335 11.2337 10.0051 11.2337 8.49983C11.2337 6.99456 10.0052 5.76614 8.49997 5.76614ZM16.699 8.49983C16.699 7.3678 16.7092 6.24602 16.6457 5.11604C16.5821 3.80354 16.2827 2.6387 15.3229 1.67893C14.3611 0.717114 13.1983 0.419751 11.8858 0.356176C10.7538 0.292602 9.632 0.302856 8.50202 0.302856C7.36999 0.302856 6.24822 0.292602 5.11824 0.356176C3.80574 0.419751 2.64089 0.719165 1.68113 1.67893C0.719311 2.64075 0.421948 3.80354 0.358374 5.11604C0.294799 6.24807 0.305053 7.36985 0.305053 8.49983C0.305053 9.62981 0.294799 10.7536 0.358374 11.8836C0.421948 13.1961 0.721362 14.361 1.68113 15.3207C2.64294 16.2825 3.80574 16.5799 5.11824 16.6435C6.25027 16.7071 7.37204 16.6968 8.50202 16.6968C9.63405 16.6968 10.7558 16.7071 11.8858 16.6435C13.1983 16.5799 14.3632 16.2805 15.3229 15.3207C16.2847 14.3589 16.5821 13.1961 16.6457 11.8836C16.7113 10.7536 16.699 9.63186 16.699 8.49983ZM8.49997 12.706C6.17234 12.706 4.29382 10.8275 4.29382 8.49983C4.29382 6.17219 6.17234 4.29368 8.49997 4.29368C10.8276 4.29368 12.7061 6.17219 12.7061 8.49983C12.7061 10.8275 10.8276 12.706 8.49997 12.706ZM12.8784 5.10373C12.3349 5.10373 11.8961 4.66487 11.8961 4.12141C11.8961 3.57795 12.3349 3.13909 12.8784 3.13909C13.4218 3.13909 13.8607 3.57795 13.8607 4.12141C13.8609 4.25046 13.8356 4.37827 13.7863 4.49752C13.737 4.61678 13.6646 4.72513 13.5734 4.81638C13.4821 4.90763 13.3738 4.97998 13.2545 5.02929C13.1352 5.0786 13.0074 5.1039 12.8784 5.10373Z" fill="#151515"/>
</svg>
