<svg width="64" height="65" viewBox="0 0 64 65" fill="none" xmlns="http://www.w3.org/2000/svg">
<path fill-rule="evenodd" clip-rule="evenodd" d="M55.3512 64.0179H0V26.417H55.3512V40.9446L59.6755 45.2174L55.3512 49.4903V64.0179ZM31.1351 34.9627V55.4722H24.2162V34.9627H31.1351Z" fill="url(#paint0_linear_464_14088)"/>
<path fill-rule="evenodd" clip-rule="evenodd" d="M51.8919 57.1814C58.579 57.1814 64 51.825 64 45.2175C64 38.6099 58.579 33.2535 51.8919 33.2535C46.4069 33.2535 41.7738 36.8572 40.2852 41.7992L24.2163 41.7992V55.4723H31.1352L31.1352 48.6357L40.2852 48.6357C41.7738 53.5777 46.4069 57.1814 51.8919 57.1814ZM46.7027 45.2175L51.8919 50.3449L57.0811 45.2175L51.8919 40.0901L46.7027 45.2175Z" fill="#76808F"/>
<path fill-rule="evenodd" clip-rule="evenodd" d="M27.6758 7.61653C22.4216 7.61653 18.1623 11.8252 18.1623 17.0168V26.417H11.2434V17.0168C11.2434 8.04945 18.6004 0.779999 27.6758 0.779999C36.7512 0.779999 44.1082 8.04945 44.1082 17.0168V17.8713H37.1893V17.0168C37.1893 11.8252 32.93 7.61653 27.6758 7.61653Z" fill="#76808F"/>
<defs>
<linearGradient id="paint0_linear_464_14088" x1="29.8378" y1="64.0179" x2="29.8378" y2="26.417" gradientUnits="userSpaceOnUse">
<stop stop-color="#F0B90B"/>
<stop offset="1" stop-color="#F8D33A"/>
</linearGradient>
</defs>
</svg>
