<svg width="560" height="560" viewBox="0 0 560 560" fill="none" xmlns="http://www.w3.org/2000/svg">
<g opacity="0.5" filter="url(#filter0_f_464_14307)">
<path d="M358.683 345.295C394.959 309.02 394.959 250.206 358.683 213.931C322.408 177.655 263.594 177.655 227.319 213.931C191.044 250.206 191.044 309.02 227.319 345.295C263.594 381.57 322.408 381.57 358.683 345.295Z" fill="#FCEA9C"/>
</g>
<path d="M92.4912 479.68L382.18 188.277L419.783 149.877" stroke="#CACED3" stroke-miterlimit="10"/>
<path d="M163.703 148.986L124.3 209.646L109.343 278.997L124.3 348.657L163.248 408.426L221.68 448.051L291.297 462.151L361.36 446.037L419.783 411.109L460.746 349.326L474.854 279.486" stroke="#CACED3" stroke-miterlimit="10"/>
<path d="M292.086 280.609L163.703 148.986L223.583 112.052L292.188 97.0515L292.086 280.609Z" stroke="#CACED3" stroke-miterlimit="10"/>
<path d="M203.843 190.094L124.428 209.371M172.651 329.183L161.911 279.486L172.651 229.797L45.1426 175.086" stroke="#CACED3" stroke-miterlimit="10"/>
<path d="M516.143 189.143L442.857 218.286L310.449 273.368L124.505 348.837" stroke="#CACED3" stroke-miterlimit="10"/>
<path d="M246.168 169.352L223.583 112.052L292.188 149.877L353.971 107.346L382.18 188.277L460.746 210.314L475 279.486M460.746 349.326L292.086 280.609H475" stroke="#CACED3" stroke-miterlimit="10"/>
<path d="M291.297 462.152L292.086 280.609L221.475 448.493L200.191 370.823L172.651 329.183L109.343 278.997L172.651 229.797L163.703 148.986L246.168 169.352M246.168 169.352L340.54 159.949L292.188 97.0515L246.168 169.352Z" stroke="#CACED3" stroke-miterlimit="10"/>
<path d="M340.54 159.949L382.18 188.277L410.38 229.797L419.783 279.486L460.746 349.326L382.18 368.809L361.428 445.943M341.886 397.009L382.18 496.514" stroke="#CACED3" stroke-miterlimit="10"/>
<path d="M291.297 462.152L341.885 397.009L382.18 368.809" stroke="#CACED3" stroke-miterlimit="10"/>
<path d="M221.68 448.052L291.52 409.549L341.885 397.009L419.783 411.109L409.711 327.837L460.745 210.314L419.783 149.877L353.971 107.346L292.188 97.0515" stroke="#CACED3" stroke-miterlimit="10"/>
<path d="M109.343 278.997H161.911" stroke="#CACED3" stroke-width="0.5" stroke-miterlimit="10"/>
<path d="M467.03 210.419L461.212 204.6L455.393 210.419L461.212 216.237L467.03 210.419Z" fill="#929AA5" stroke="#929AA5" stroke-width="2" stroke-miterlimit="10"/>
<path d="M419.65 230.263L410.874 221.487L402.098 230.263L410.874 239.039L419.65 230.263Z" fill="#E6E8EA" stroke="#E6E8EA" stroke-width="2" stroke-miterlimit="10"/>
<path d="M128.002 209.652L124.311 205.961L120.62 209.652L124.311 213.343L128.002 209.652Z" fill="#F8D33A" stroke="#F8D33A" stroke-width="2" stroke-miterlimit="10"/>
<path d="M296.15 149.673L292.459 145.981L288.768 149.673L292.459 153.364L296.15 149.673Z" fill="#E6E8EA" stroke="#E6E8EA" stroke-width="2" stroke-miterlimit="10"/>
<path d="M227.195 111.897L223.504 108.206L219.813 111.897L223.504 115.588L227.195 111.897Z" fill="#929AA5" stroke="#929AA5" stroke-width="2" stroke-miterlimit="10"/>
<path d="M385.938 188.395L382.247 184.704L378.556 188.395L382.247 192.086L385.938 188.395Z" fill="#929AA5" stroke="#929AA5" stroke-width="2" stroke-miterlimit="10"/>
<path d="M205.478 371.719L200.096 366.337L194.714 371.719L200.096 377.101L205.478 371.719Z" fill="#929AA5" stroke="#929AA5" stroke-width="2" stroke-miterlimit="10"/>
<path d="M347.292 397.011L341.91 391.629L336.528 397.011L341.91 402.393L347.292 397.011Z" fill="#F8D33A" stroke="#F8D33A" stroke-width="2" stroke-miterlimit="10"/>
<path d="M354.08 105.273L356.216 107.407L354.081 109.544L351.945 107.409L354.08 105.273Z" fill="#929AA5" stroke="#929AA5"/>
<path d="M181.388 228.118L172.612 219.342L163.835 228.118L172.612 236.894L181.388 228.118Z" fill="#929AA5" stroke="#929AA5" stroke-width="2" stroke-miterlimit="10"/>
<path d="M180.39 328.372L173.377 321.359L166.365 328.372L173.377 335.384L180.39 328.372Z" fill="#E6E8EA" stroke="#E6E8EA" stroke-width="2" stroke-miterlimit="10"/>
<path d="M298.168 460.676L291.155 453.664L284.143 460.676L291.155 467.689L298.168 460.676Z" fill="#929AA5" stroke="#929AA5" stroke-width="2" stroke-miterlimit="10"/>
<path d="M410.74 334.617L404.483 328.42L410.731 322.172L416.988 328.369L410.74 334.617Z" fill="#929AA5" stroke="#929AA5" stroke-width="2" stroke-miterlimit="10"/>
<path d="M423.366 279.48L419.802 275.916L416.238 279.48L419.802 283.044L423.366 279.48Z" fill="#F8D33A" stroke="#F8D33A" stroke-width="2" stroke-miterlimit="10"/>
<path d="M385.443 369.281L381.751 365.59L378.06 369.281L381.751 372.972L385.443 369.281Z" fill="#929AA5" stroke="#929AA5" stroke-width="2" stroke-miterlimit="10"/>
<path d="M365.137 445.907L361.446 442.216L357.755 445.907L361.446 449.598L365.137 445.907Z" fill="#E6E8EA" stroke="#E6E8EA" stroke-width="2" stroke-miterlimit="10"/>
<path d="M295.428 410.338L291.737 406.647L288.046 410.338L291.737 414.029L295.428 410.338Z" fill="#929AA5" stroke="#929AA5" stroke-width="2" stroke-miterlimit="10"/>
<path d="M225.731 448.095L222.04 444.404L218.349 448.095L222.04 451.786L225.731 448.095Z" fill="#929AA5" stroke="#929AA5" stroke-width="2" stroke-miterlimit="10"/>
<path d="M167.155 408.166L163.464 404.475L159.773 408.166L163.464 411.857L167.155 408.166Z" fill="#929AA5" stroke="#929AA5" stroke-width="2" stroke-miterlimit="10"/>
<path d="M129.65 348.63L124.704 343.685L119.758 348.63L124.704 353.576L129.65 348.63Z" fill="#F8D33A" stroke="#F8D33A" stroke-width="2" stroke-miterlimit="10"/>
<path d="M339.052 312.551L335.361 308.86L331.67 312.551L335.361 316.242L339.052 312.551Z" fill="#929AA5" stroke="#929AA5" stroke-width="2" stroke-miterlimit="10"/>
<path d="M166.254 279.343L162.562 275.652L158.871 279.343L162.562 283.034L166.254 279.343Z" fill="#E6E8EA" stroke="#E6E8EA" stroke-width="2" stroke-miterlimit="10"/>
<path d="M208.798 190.61L204.343 186.156L199.888 190.61L204.343 195.065L208.798 190.61Z" fill="#929AA5" stroke="#929AA5" stroke-width="2" stroke-miterlimit="10"/>
<path d="M464.386 348.725L460.695 345.034L457.004 348.725L460.695 352.416L464.386 348.725Z" fill="#929AA5" stroke="#929AA5" stroke-width="2" stroke-miterlimit="10"/>
<path d="M347.429 160.572L340.509 153.649L333.586 160.57L340.506 167.493L347.429 160.572Z" fill="#F8D33A" stroke="#F8D33A" stroke-width="2" stroke-miterlimit="10"/>
<path d="M301.216 97.6333L292.439 88.8571L283.663 97.6333L292.439 106.409L301.216 97.6333Z" fill="#E6E8EA" stroke="#E6E8EA" stroke-width="2" stroke-miterlimit="10"/>
<path d="M149.517 178.154C174.502 178.154 194.757 157.9 194.757 132.914C194.757 107.929 174.502 87.6743 149.517 87.6743C124.532 87.6743 104.277 107.929 104.277 132.914C104.277 157.9 124.532 178.154 149.517 178.154Z" fill="url(#paint0_linear_464_14307)"/>
<path d="M431.166 466.163C458.835 466.163 481.266 443.732 481.266 416.063C481.266 388.393 458.835 365.963 431.166 365.963C403.496 365.963 381.066 388.393 381.066 416.063C381.066 443.732 403.496 466.163 431.166 466.163Z" fill="url(#paint1_linear_464_14307)"/>
<path d="M443.899 407.694L438.521 402.316L418.317 422.521L423.695 427.899L443.899 407.694Z" fill="white"/>
<path d="M423.651 404.371L431.956 396.066C436.98 391.043 445.125 391.043 450.149 396.066C455.173 401.09 455.173 409.235 450.149 414.259L441.844 422.564" stroke="url(#paint2_linear_464_14307)" stroke-width="6.20731"/>
<path d="M438.679 425.589L430.375 433.894C425.351 438.917 417.206 438.917 412.182 433.894C407.158 428.87 407.158 420.725 412.182 415.701L420.487 407.396" stroke="url(#paint3_linear_464_14307)" stroke-width="6.20731"/>
<path fill-rule="evenodd" clip-rule="evenodd" d="M450.163 430.754L456.554 424.363L456.554 439.986L440.931 439.986L446.967 433.95L440.931 427.914L444.127 424.718L450.163 430.754Z" fill="white"/>
<path fill-rule="evenodd" clip-rule="evenodd" d="M412.528 399.417L406.387 405.558L406.387 390.546L421.399 390.546L415.599 396.346L421.399 402.146L418.328 405.217L412.528 399.417Z" fill="white"/>
<path d="M427.283 171.991C453.603 171.991 474.94 150.655 474.94 124.334C474.94 98.014 453.603 76.6771 427.283 76.6771C400.962 76.6771 379.625 98.014 379.625 124.334C379.625 150.655 400.962 171.991 427.283 171.991Z" fill="url(#paint4_linear_464_14307)"/>
<path d="M235.814 177.683C244.913 177.683 252.288 170.307 252.288 161.209C252.288 152.11 244.913 144.734 235.814 144.734C226.716 144.734 219.34 152.11 219.34 161.209C219.34 170.307 226.716 177.683 235.814 177.683Z" fill="#CACED3"/>
<path d="M43.9342 186.168C50.3817 186.168 55.6084 180.942 55.6084 174.494C55.6084 168.047 50.3817 162.82 43.9342 162.82C37.4867 162.82 32.26 168.047 32.26 174.494C32.26 180.942 37.4867 186.168 43.9342 186.168Z" fill="#CACED3"/>
<path d="M382.506 507.1C388.953 507.1 394.18 501.873 394.18 495.426C394.18 488.978 388.953 483.751 382.506 483.751C376.058 483.751 370.832 488.978 370.832 495.426C370.832 501.873 376.058 507.1 382.506 507.1Z" fill="#CACED3"/>
<path d="M474.391 307.249C489.44 307.249 501.64 295.049 501.64 280C501.64 264.951 489.44 252.751 474.391 252.751C459.342 252.751 447.143 264.951 447.143 280C447.143 295.049 459.342 307.249 474.391 307.249Z" fill="url(#paint5_linear_464_14307)"/>
<path d="M467.225 269.508L475.248 264.777L483.271 269.508L480.391 271.154L475.248 268.274L470.105 271.154L467.225 269.508ZM483.271 275.268L480.391 273.623L475.248 276.503L470.105 273.623L467.225 275.268V278.765L472.368 281.645V287.611L475.248 289.257L478.128 287.611V281.645L483.271 278.765V275.268ZM483.271 284.731V281.234L480.391 282.88V286.377L483.271 284.731ZM485.328 285.76L480.185 288.64V292.137L488.208 287.406V278.148L485.328 280V285.76ZM482.448 272.388L485.328 274.034V277.531L488.208 275.885V272.388L485.328 270.743L482.448 272.388ZM472.368 290.08V293.577L475.248 295.223L478.128 293.577V290.08L475.248 291.726L472.368 290.08ZM467.225 284.731L470.105 286.377V282.88L467.225 281.234V284.731ZM472.368 272.388L475.248 274.034L478.128 272.388L475.248 270.743L472.368 272.388ZM465.168 274.034L468.048 272.388L465.168 270.743L462.288 272.388V275.885L465.168 277.531V274.034ZM465.168 280L462.288 278.354V287.611L470.311 292.343V288.846L465.168 285.966V280Z" fill="#76808F"/>
<path d="M104.277 308.037C119.762 308.037 132.314 295.485 132.314 280C132.314 264.515 119.762 251.963 104.277 251.963C88.7927 251.963 76.24 264.515 76.24 280C76.24 295.485 88.7927 308.037 104.277 308.037Z" fill="url(#paint6_linear_464_14307)"/>
<g clip-path="url(#clip0_464_14307)">
<path d="M114.536 276.48C114.991 273.331 112.611 271.652 109.322 270.497L110.372 266.228L107.782 265.563L106.732 269.727C106.033 269.552 105.333 269.412 104.668 269.237L105.718 265.038L103.128 264.373L102.078 268.642C101.518 268.502 100.959 268.397 100.434 268.257L96.8644 267.348L96.1645 270.112C96.1645 270.112 98.0891 270.567 98.0541 270.567C99.1039 270.847 99.3139 271.512 99.2789 272.072L98.0541 276.935C98.1241 276.97 98.2291 276.97 98.3341 277.005C98.2641 276.97 98.1591 276.97 98.0541 276.935L96.3395 283.759C96.1995 284.074 95.8846 284.564 95.1497 284.389C95.1847 284.424 93.2601 283.934 93.2601 283.934L91.9653 286.908L95.3597 287.748C95.9896 287.923 96.6194 288.063 97.2143 288.238L96.1295 292.542L98.719 293.207L99.7688 288.938C100.469 289.148 101.169 289.322 101.833 289.462L100.784 293.696L103.373 294.361L104.458 290.057C108.902 290.897 112.226 290.547 113.626 286.558C114.746 283.339 113.556 281.484 111.247 280.26C112.926 279.91 114.186 278.79 114.536 276.48ZM108.587 284.809C107.782 288.028 102.358 286.278 100.574 285.858L102.008 280.155C103.793 280.575 109.427 281.449 108.587 284.809ZM109.392 276.445C108.657 279.385 104.143 277.88 102.673 277.53L103.968 272.351C105.438 272.701 110.162 273.366 109.392 276.445Z" fill="#76808F"/>
</g>
<path d="M290.648 429.119C300.346 429.119 308.208 421.257 308.208 411.559C308.208 401.86 300.346 393.998 290.648 393.998C280.949 393.998 273.087 401.86 273.087 411.559C273.087 421.257 280.949 429.119 290.648 429.119Z" fill="url(#paint7_linear_464_14307)"/>
<path d="M294.749 404.724L283.836 415.637L286.561 418.362L297.474 407.449L294.749 404.724Z" fill="#76808F"/>
<path d="M290.827 400.798L284.01 407.618L286.595 410.203L293.413 403.383L290.827 400.798Z" fill="#76808F"/>
<path d="M282.664 408.96L279.909 411.715L282.495 414.3L285.249 411.544L282.664 408.96Z" fill="#76808F"/>
<path d="M298.813 408.791L287.9 419.704L290.443 422.247L301.356 411.334L298.813 408.791Z" fill="#76808F"/>
<path d="M293.098 372.597C344.399 372.597 385.986 331.009 385.986 279.709C385.986 228.408 344.399 186.82 293.098 186.82C241.797 186.82 200.209 228.408 200.209 279.709C200.209 331.009 241.797 372.597 293.098 372.597Z" fill="#5E6673"/>
<path d="M248.423 311.248L248.423 306.356L337.137 306.356L337.137 311.248L248.423 311.248Z" fill="#76808F"/>
<rect x="258.28" y="264.766" width="9.85714" height="41.5893" fill="white"/>
<rect x="277.994" y="264.766" width="9.85714" height="41.5893" fill="white"/>
<rect x="297.708" y="264.766" width="9.85715" height="41.5893" fill="white"/>
<rect x="317.423" y="264.766" width="9.85714" height="41.5893" fill="white"/>
<path fill-rule="evenodd" clip-rule="evenodd" d="M337.137 254.981L292.78 220.731L248.423 254.981V264.766L337.137 264.766L337.137 254.981ZM286.619 246.418L292.78 252.534L298.94 246.418L292.78 240.302L286.619 246.418Z" fill="url(#paint8_linear_464_14307)"/>
<path fill-rule="evenodd" clip-rule="evenodd" d="M292.78 258.65C299.585 258.65 305.101 253.174 305.101 246.418C305.101 239.662 299.585 234.186 292.78 234.186C285.975 234.186 280.458 239.662 280.458 246.418C280.458 253.174 285.975 258.65 292.78 258.65ZM286.619 246.418L292.78 252.534L298.94 246.418L292.78 240.302L286.619 246.418Z" fill="white"/>
<path d="M248.423 311.248L248.423 321.034L337.137 321.034L337.137 311.248L248.423 311.248Z" fill="url(#paint9_linear_464_14307)"/>
<path d="M338.369 280.057L341.449 276.998L344.53 280.057L341.449 283.115L338.369 280.057Z" fill="white"/>
<path d="M261.976 225.012L266.289 220.731L270.601 225.012L266.289 229.293L261.976 225.012Z" fill="white"/>
<path d="M241.03 297.793L243.494 295.347L245.958 297.793L243.494 300.24L241.03 297.793Z" fill="white"/>
<path fill-rule="evenodd" clip-rule="evenodd" d="M450.141 144.434H403.65V112.471H450.141V124.815L453.778 128.453L450.141 132.09V144.434ZM429.805 119.734V137.171H423.997V119.734H429.805Z" fill="white"/>
<path fill-rule="evenodd" clip-rule="evenodd" d="M447.231 138.626C452.844 138.626 457.404 134.077 457.404 128.453C457.404 122.829 452.855 118.279 447.231 118.279C442.627 118.279 438.73 121.341 437.481 125.543H423.986V137.16H429.794V131.351H437.481C438.73 135.553 442.627 138.615 447.231 138.615V138.626ZM442.877 128.453L447.231 132.806L451.585 128.453L447.231 124.099L442.877 128.453Z" fill="#76808F"/>
<path fill-rule="evenodd" clip-rule="evenodd" d="M426.895 96.5C422.487 96.5 418.905 100.072 418.905 104.491V112.482H413.096V104.491C413.096 96.8691 419.274 90.6914 426.895 90.6914C434.517 90.6914 440.695 96.8691 440.695 104.491V105.218H434.886V104.491C434.886 100.083 431.314 96.5 426.895 96.5V96.5Z" fill="#76808F"/>
<path d="M133.326 137.416H125.486V147.9H133.326V137.416Z" fill="white"/>
<path d="M146.397 126.931H138.557V153.133H146.397V126.931Z" fill="#76808F"/>
<path d="M159.478 113.83H151.637V153.133H159.478V113.83Z" fill="#76808F"/>
<path d="M172.549 105.971H164.708V153.133H172.549V105.971Z" fill="#76808F"/>
<path d="M146.397 137.416H138.557V153.133H146.397V137.416Z" fill="white"/>
<path d="M159.478 126.931H151.637V153.133H159.478V126.931Z" fill="white"/>
<path d="M172.549 113.83H164.708V153.133H172.549V113.83Z" fill="white"/>
<path d="M172.539 147.9H125.486V153.143H172.539V147.9Z" fill="#76808F"/>
<path fill-rule="evenodd" clip-rule="evenodd" d="M133.336 122.759C138.184 122.759 142.124 118.82 142.124 113.951C142.124 109.082 138.194 105.143 133.336 105.143C128.479 105.143 124.549 109.082 124.549 113.951C124.549 118.82 128.479 122.759 133.336 122.759ZM133.336 110.436L129.819 113.961L133.336 117.486L136.853 113.961L133.336 110.436Z" fill="white"/>
<path d="M121.057 501.791C148.671 501.791 171.057 479.405 171.057 451.791C171.057 424.177 148.671 401.791 121.057 401.791C93.4429 401.791 71.0571 424.177 71.0571 451.791C71.0571 479.405 93.4429 501.791 121.057 501.791Z" fill="url(#paint10_linear_464_14307)"/>
<rect x="95.0027" y="429.608" width="5.91962" height="47.9472" fill="#76808F"/>
<rect x="149.063" y="471.368" width="6.18762" height="54.0602" transform="rotate(90 149.063 471.368)" fill="#76808F"/>
<path d="M136.2 429.612H128.098V451.611H136.2V429.612Z" fill="white"/>
<path d="M125.026 437.798H116.794V459.797H125.026V437.798Z" fill="white"/>
<path d="M114.249 450.518H105.858V466.881H114.249V450.518Z" fill="white"/>
<path d="M112.211 441.466H107.897V450.517H112.211V441.466Z" fill="#76808F"/>
<path d="M123.122 433.595H118.699V437.798H123.122V433.595Z" fill="#76808F"/>
<path d="M134.3 451.611H130.001V465.15H134.3V451.611Z" fill="#76808F"/>
<path d="M145.372 429.608H141.092V446.531H145.372V429.608Z" fill="#76808F"/>
<path d="M147.322 438.069H139.143V451.611H147.322V438.069Z" fill="white"/>
<path d="M508.531 203.063C514.979 203.063 520.206 197.836 520.206 191.388C520.206 184.941 514.979 179.714 508.531 179.714C502.084 179.714 496.857 184.941 496.857 191.388C496.857 197.836 502.084 203.063 508.531 203.063Z" fill="#CACED3"/>
<defs>
<filter id="filter0_f_464_14307" x="150.113" y="136.724" width="285.777" height="285.777" filterUnits="userSpaceOnUse" color-interpolation-filters="sRGB">
<feFlood flood-opacity="0" result="BackgroundImageFix"/>
<feBlend mode="normal" in="SourceGraphic" in2="BackgroundImageFix" result="shape"/>
<feGaussianBlur stdDeviation="25" result="effect1_foregroundBlur_464_14307"/>
</filter>
<linearGradient id="paint0_linear_464_14307" x1="149.517" y1="87.6743" x2="149.517" y2="178.154" gradientUnits="userSpaceOnUse">
<stop stop-color="#F0B90B"/>
<stop offset="1" stop-color="#F8D33A"/>
</linearGradient>
<linearGradient id="paint1_linear_464_14307" x1="431.166" y1="365.963" x2="431.166" y2="466.163" gradientUnits="userSpaceOnUse">
<stop stop-color="#F0B90B"/>
<stop offset="1" stop-color="#F8D33A"/>
</linearGradient>
<linearGradient id="paint2_linear_464_14307" x1="432.352" y1="395.671" x2="450.545" y2="413.863" gradientUnits="userSpaceOnUse">
<stop stop-color="#929AA5"/>
<stop offset="1" stop-color="#76808F"/>
</linearGradient>
<linearGradient id="paint3_linear_464_14307" x1="429.979" y1="434.289" x2="411.786" y2="416.097" gradientUnits="userSpaceOnUse">
<stop stop-color="#929AA5"/>
<stop offset="1" stop-color="#76808F"/>
</linearGradient>
<linearGradient id="paint4_linear_464_14307" x1="427.283" y1="76.6771" x2="427.283" y2="171.991" gradientUnits="userSpaceOnUse">
<stop stop-color="#F0B90B"/>
<stop offset="1" stop-color="#F8D33A"/>
</linearGradient>
<linearGradient id="paint5_linear_464_14307" x1="474.391" y1="252.751" x2="474.391" y2="307.249" gradientUnits="userSpaceOnUse">
<stop stop-color="#F0B90B"/>
<stop offset="1" stop-color="#F8D33A"/>
</linearGradient>
<linearGradient id="paint6_linear_464_14307" x1="104.277" y1="251.963" x2="104.277" y2="308.037" gradientUnits="userSpaceOnUse">
<stop stop-color="#F0B90B"/>
<stop offset="1" stop-color="#F8D33A"/>
</linearGradient>
<linearGradient id="paint7_linear_464_14307" x1="290.648" y1="393.998" x2="290.648" y2="429.119" gradientUnits="userSpaceOnUse">
<stop stop-color="#F0B90B"/>
<stop offset="1" stop-color="#F8D33A"/>
</linearGradient>
<linearGradient id="paint8_linear_464_14307" x1="292.78" y1="264.766" x2="292.78" y2="220.731" gradientUnits="userSpaceOnUse">
<stop stop-color="#F0B90B"/>
<stop offset="1" stop-color="#F8D33A"/>
</linearGradient>
<linearGradient id="paint9_linear_464_14307" x1="248.423" y1="316.141" x2="337.137" y2="316.141" gradientUnits="userSpaceOnUse">
<stop stop-color="#F0B90B"/>
<stop offset="1" stop-color="#F8D33A"/>
</linearGradient>
<linearGradient id="paint10_linear_464_14307" x1="121.057" y1="401.791" x2="121.057" y2="501.791" gradientUnits="userSpaceOnUse">
<stop stop-color="#F0B90B"/>
<stop offset="1" stop-color="#F8D33A"/>
</linearGradient>
<clipPath id="clip0_464_14307">
<rect width="47.3534" height="47.3536" fill="white" transform="translate(80.6003 256.323)"/>
</clipPath>
</defs>
</svg>
