<svg width="56" height="56" viewBox="0 0 56 56" fill="none" xmlns="http://www.w3.org/2000/svg">
<rect y="7.69037" width="5.96436" height="48.3096" fill="#76808F"/>
<rect x="54.4688" y="49.7655" width="6.23438" height="54.4688" transform="rotate(90 54.4688 49.7655)" fill="#76808F"/>
<path d="M41.509 7.69406H33.3459V29.8593H41.509V7.69406Z" fill="url(#paint0_linear_1173_20795)"/>
<path d="M30.2508 15.942H21.9563V38.1073H30.2508V15.942Z" fill="url(#paint1_linear_1173_20795)"/>
<path d="M19.3921 28.7576H10.9375V45.2448H19.3921V28.7576Z" fill="url(#paint2_linear_1173_20795)"/>
<path d="M17.3382 19.6372H12.9915V28.7575H17.3382V19.6372Z" fill="#76808F"/>
<path d="M28.3313 11.7067H23.8756V15.942H28.3313V11.7067Z" fill="#76808F"/>
<path d="M39.5938 29.8594H35.2625V43.5001H39.5938V29.8594Z" fill="#76808F"/>
<path d="M50.75 7.69022H46.4375V24.7411H50.75V7.69022Z" fill="#76808F"/>
<path d="M52.7144 16.2154H44.4735V29.8594H52.7144V16.2154Z" fill="url(#paint3_linear_1173_20795)"/>
<defs>
<linearGradient id="paint0_linear_1173_20795" x1="37.4274" y1="29.8593" x2="37.4274" y2="7.69406" gradientUnits="userSpaceOnUse">
<stop stop-color="#F0B90B"/>
<stop offset="1" stop-color="#F8D33A"/>
</linearGradient>
<linearGradient id="paint1_linear_1173_20795" x1="26.1035" y1="38.1073" x2="26.1035" y2="15.942" gradientUnits="userSpaceOnUse">
<stop stop-color="#F0B90B"/>
<stop offset="1" stop-color="#F8D33A"/>
</linearGradient>
<linearGradient id="paint2_linear_1173_20795" x1="15.1648" y1="45.2448" x2="15.1648" y2="28.7576" gradientUnits="userSpaceOnUse">
<stop stop-color="#F0B90B"/>
<stop offset="1" stop-color="#F8D33A"/>
</linearGradient>
<linearGradient id="paint3_linear_1173_20795" x1="48.594" y1="29.8594" x2="48.594" y2="16.2154" gradientUnits="userSpaceOnUse">
<stop stop-color="#F0B90B"/>
<stop offset="1" stop-color="#F8D33A"/>
</linearGradient>
</defs>
</svg>
