<svg width="187" height="253" viewBox="0 0 187 253" fill="none" xmlns="http://www.w3.org/2000/svg">
<path d="M93.5005 252.992C145.067 252.992 186.87 240.316 186.87 224.68C186.87 209.044 145.067 196.368 93.5005 196.368C41.9339 196.368 0.130859 209.044 0.130859 224.68C0.130859 240.316 41.9339 252.992 93.5005 252.992Z" fill="#C6EDCF"/>
<path d="M103.14 41.1323C106.189 40.4345 109.405 36.5572 109.563 31.1952C109.684 26.9506 107.608 23.8499 104.002 22.8635C95.5138 20.5655 93.7846 16.9453 93.7688 16.9086L93.2852 17.1184C93.3588 17.2758 95.0985 20.9957 103.866 23.3672C105.474 23.8027 109.206 25.4658 109.038 31.1794C108.922 35.1406 106.578 39.8783 102.946 40.6233L103.051 41.148L103.14 41.1323Z" fill="#282828"/>
<path d="M77.8887 3.19924C77.8887 3.19924 82.2302 -0.473356 86.0512 0.0512996C89.8723 0.575956 92.0956 3.45107 91.8853 5.4605C91.6751 7.46993 77.8887 3.19924 77.8887 3.19924Z" fill="black"/>
<path d="M67.3199 9.97791C67.9349 3.53505 73.8058 1.47836 84.3493 3.37764C93.2845 4.98311 100.643 6.64629 100.023 13.0892C99.4025 19.532 91.6131 24.0651 82.557 23.2047C73.501 22.3442 66.705 16.4103 67.3199 9.97791Z" fill="#FFEDA5"/>
<path d="M81.0058 7.77968C81.0058 7.77968 76.3753 3.81324 73.1902 8.3778C68.3915 15.2614 76.3438 20.7021 73.0851 23.5301C69.9315 26.2531 66.3731 24.4377 67.5084 28.1733C68.6437 31.9089 60.5705 30.4084 63.8292 37.6907C67.088 44.973 98.051 42.3497 102.287 39.7316C105.335 37.8481 110.996 30.2405 101.824 23.0473C98.3873 20.3506 94.1878 17.2079 92.364 14.9203C89.3996 11.1113 89.0843 8.72407 81.0058 7.77968Z" fill="#282828"/>
<path d="M62.5589 40.5598C62.0964 40.8326 43.322 57.2178 43.2852 70.3082C43.2852 76.3051 48.2889 79.5685 53.4082 82.1288C61.3921 86.1058 71.8936 69.4215 71.8936 69.4215L62.5589 40.5598Z" fill="#FFA200"/>
<path d="M102.466 44.5529C102.466 44.5529 97.9352 31.8246 81.794 32.407C65.6529 32.9893 60.5861 53.6244 52.166 98.6825C52.166 98.6825 86.2826 97.3813 104.847 101.988C104.847 101.988 102.955 88.483 103.869 79.569C105.194 66.6675 106.66 55.5184 102.466 44.5529Z" fill="#E3CDB3"/>
<path d="M113.805 43.787L102.357 51.0903C102.357 51.0903 72.9656 54.0284 65.1658 52.6118C57.3659 51.1952 56.1465 45.4764 56.1465 45.4764C61.594 38.828 69.232 34.3295 77.696 32.7848C79.0514 32.5865 80.4164 32.4604 81.7851 32.407C84.1643 32.249 86.5529 32.3017 88.9227 32.5644C102.883 34.0649 113.805 43.787 113.805 43.787Z" fill="#E3CDB3"/>
<path d="M113.968 44.039C114.362 45.188 111.371 47.3391 107.287 48.8449C103.203 50.3506 99.5659 50.6339 99.1717 49.4849C98.7775 48.3359 101.763 46.1848 105.847 44.6791C109.931 43.1733 113.568 42.89 113.968 44.039Z" fill="#282828"/>
<path d="M88.0223 33.9964C88.7161 32.947 87.1026 31.8977 86.6821 30.3972L85.3523 25.6752L84.9634 24.3058L82.6981 16.2732L82.2198 24.2271L81.9307 29.0016L81.8519 30.35C81.7993 31.1842 81.5418 31.798 80.9373 32.1181C80.6241 32.2741 80.3481 32.4953 80.1278 32.7668C79.9075 33.0383 79.748 33.3538 79.6601 33.6921C79.4551 34.5578 79.5182 35.6281 80.7481 36.2052C83.4602 37.4854 86.9133 35.6543 88.0223 33.9964Z" fill="#FFAC96"/>
<path d="M85.3786 25.5605C85.3786 25.6025 85.3786 25.6497 85.3786 25.6917C84.853 28.2048 81.9727 29.0286 81.9727 29.0286L82.2618 24.2541C83.1343 24.06 84.3642 23.9078 85.0054 24.3381C85.1848 24.4798 85.3166 24.6727 85.3833 24.8911C85.4499 25.1095 85.4483 25.3431 85.3786 25.5605Z" fill="#282828"/>
<path d="M74.7566 16.5151C75.4293 11.4731 79.2925 7.82665 83.3869 8.36705C87.4813 8.90746 90.2564 13.4353 89.5889 18.4826C88.9214 23.5298 85.0531 27.1762 80.9587 26.6306C76.8642 26.0849 74.0838 21.5623 74.7566 16.5151Z" fill="#FFAC96"/>
<path d="M81.4428 17.491C81.4184 17.4806 81.3968 17.4649 81.3794 17.4448C81.3621 17.4248 81.3496 17.4011 81.3429 17.3755C81.3375 17.3538 81.3364 17.3313 81.3399 17.3091C81.3433 17.287 81.3511 17.2658 81.3628 17.2467C81.3746 17.2277 81.39 17.2111 81.4082 17.1981C81.4265 17.1851 81.4472 17.1759 81.4691 17.171C81.8562 17.0511 82.2722 17.0622 82.6524 17.2026C83.0326 17.343 83.3556 17.6049 83.5714 17.9474C83.5968 17.984 83.6072 18.0289 83.6003 18.0728C83.5935 18.1168 83.5699 18.1565 83.5346 18.1836C83.4961 18.206 83.4512 18.2145 83.4072 18.2079C83.3632 18.2012 83.3228 18.1796 83.2928 18.1468C82.7953 17.7438 82.1779 17.5168 81.5374 17.5015C81.5055 17.5078 81.4725 17.5041 81.4428 17.491Z" fill="black"/>
<path d="M82.531 19.5208C82.4889 19.9195 82.2209 20.2238 81.9265 20.1976C81.6322 20.1714 81.4324 19.8146 81.4692 19.4106C81.506 19.0066 81.7794 18.7075 82.0737 18.7338C82.3681 18.76 82.573 19.1168 82.531 19.5208Z" fill="black"/>
<path d="M75.303 17.5694C75.2772 17.5696 75.2517 17.5635 75.2288 17.5517C75.2059 17.5398 75.1863 17.5225 75.1716 17.5012C75.1581 17.4837 75.1482 17.4636 75.1424 17.4422C75.1367 17.4208 75.1353 17.3986 75.1382 17.3766C75.1411 17.3547 75.1484 17.3335 75.1595 17.3144C75.1707 17.2952 75.1855 17.2785 75.2031 17.2651C75.5165 17.0041 75.9076 16.8538 76.3154 16.8376C76.7232 16.8215 77.125 16.9404 77.4581 17.1759C77.4958 17.2007 77.5227 17.2388 77.5335 17.2826C77.5442 17.3264 77.5379 17.3726 77.5159 17.412C77.4888 17.447 77.4503 17.4714 77.4071 17.481C77.3639 17.4906 77.3187 17.4847 77.2794 17.4645C76.6644 17.2842 76.0071 17.31 75.4081 17.5379C75.378 17.5606 75.3407 17.5718 75.303 17.5694Z" fill="black"/>
<path d="M77.0859 19.0332C77.1558 19.1869 77.1636 19.3615 77.1078 19.5208C77.052 19.68 76.9369 19.8117 76.7863 19.8884C76.5025 19.9723 76.1819 19.7258 76.0662 19.3637C75.995 19.2103 75.9865 19.0352 76.0424 18.8755C76.0984 18.7159 76.2144 18.5843 76.3659 18.5085C76.6497 18.3984 76.9703 18.645 77.0859 19.0332Z" fill="black"/>
<path d="M88.4128 19.726C87.4667 20.4185 86.3104 20.3451 85.7848 19.5633C85.2592 18.7816 85.6219 17.5906 86.5679 16.9033C87.514 16.216 88.6703 16.2842 89.1959 17.0659C89.7215 17.8477 89.3588 19.0387 88.4128 19.726Z" fill="#FFAC96"/>
<path d="M80.2121 11.4466C80.2121 11.4466 76.8536 10.0038 76.0389 13.4298C75.3609 16.2998 74.6671 17.3543 73.742 16.9188C72.817 16.4834 75.7287 9.20103 75.7287 9.20103L80.9847 7.77917L82.346 8.01528L80.2121 11.4466Z" fill="#282828"/>
<path d="M80.2129 11.4465C80.2129 11.4465 83.1037 9.46325 85.3007 12.202C87.4977 14.9408 86.7671 19.1276 89.7209 19.8202C92.6748 20.5127 94.8613 10.7487 90.9509 8.60281C87.0404 6.45692 84.6437 5.87454 83.3928 6.89239C82.1419 7.91024 80.2129 11.4465 80.2129 11.4465Z" fill="#282828"/>
<path d="M92.9636 19.9992C89.9782 19.401 89.4053 17.7011 88.7588 15.7336C88.291 14.3538 87.8075 12.9267 86.4462 11.6412C85.0849 10.3558 83.6237 9.83114 82.1783 10.0672C81.5246 10.1684 80.9057 10.4278 80.3755 10.8228L80.2598 10.6863C80.813 10.273 81.459 10.0011 82.1415 9.89412C83.1927 9.72098 84.8063 9.85737 86.5618 11.5101C87.9599 12.8217 88.4749 14.338 88.9217 15.6707C89.5682 17.5857 90.1306 19.2437 93.0161 19.826L92.9636 19.9992Z" fill="white"/>
<path d="M75.6867 23.4565C75.3222 23.4545 74.9628 23.3702 74.6355 23.2099C73.5843 22.7168 72.7486 21.5205 72.3702 20.0042C71.7342 17.4439 72.5909 14.7209 74.2834 13.9234C74.5979 13.768 74.9442 13.6871 75.2952 13.6871C75.6461 13.6871 75.9923 13.768 76.3069 13.9234C77.3581 14.4166 78.1991 15.6181 78.5723 17.1343C79.2082 19.6895 78.3515 22.4177 76.6591 23.2152C76.3563 23.365 76.0245 23.4473 75.6867 23.4565ZM75.2767 14.0126C74.9836 14.013 74.6944 14.0793 74.4305 14.2067C72.8537 14.9412 72.0917 17.5016 72.6908 19.9203C73.0482 21.3422 73.8261 22.4649 74.7932 22.9161C75.0656 23.0495 75.3649 23.1189 75.6683 23.1189C75.9717 23.1189 76.2711 23.0495 76.5435 22.9161C78.1202 22.1816 78.8876 19.616 78.2832 17.2026C77.931 15.7755 77.1479 14.6579 76.1808 14.2015C75.8971 14.073 75.5881 14.0102 75.2767 14.0178V14.0126Z" fill="white"/>
<g opacity="0.3">
<path opacity="0.3" d="M87.3193 17.3226C87.6977 19.7885 86.5045 22.3121 84.6544 22.9574C82.8043 23.6027 80.9753 22.1337 80.6231 19.6678C80.271 17.2019 81.4378 14.6835 83.2879 14.0382C85.138 13.3929 86.9408 14.8409 87.3193 17.3226Z" fill="white"/>
</g>
<g opacity="0.3">
<path opacity="0.3" d="M78.647 17.3601C79.0254 19.8364 77.9847 22.4073 76.3239 23.1051C74.663 23.8029 73.0127 22.3601 72.6448 19.8837C72.2768 17.4073 73.307 14.8417 74.9679 14.1439C76.6287 13.4461 78.2686 14.8837 78.647 17.3601Z" fill="white"/>
</g>
<path d="M83.6022 23.1522C83.0586 23.1511 82.5258 23.0004 82.0622 22.7168C81.5099 22.345 81.0452 21.8577 80.7003 21.2888C80.3554 20.7198 80.1386 20.0828 80.0649 19.4219C79.6497 16.7985 80.9638 14.0703 82.9978 13.3777C83.4113 13.2344 83.8514 13.184 84.2866 13.2303C84.7219 13.2765 85.1415 13.4183 85.5154 13.6453C86.0665 14.0184 86.5304 14.506 86.8751 15.0747C87.2198 15.6434 87.4374 16.2798 87.5127 16.9402C87.928 19.5635 86.614 22.2918 84.5746 22.9896C84.2612 23.095 83.9329 23.1499 83.6022 23.1522ZM83.986 13.5299C83.6855 13.53 83.3871 13.5796 83.1029 13.6768C81.2055 14.3274 79.9861 16.8825 80.3803 19.3746C80.4474 19.9889 80.6471 20.5814 80.9656 21.1112C81.284 21.6411 81.7137 22.0958 82.2251 22.444C82.5584 22.6489 82.9334 22.7769 83.3226 22.8187C83.7118 22.8604 84.1054 22.8148 84.4747 22.6853C86.3669 22.0399 87.5916 19.4848 87.1974 16.9874C87.1286 16.3736 86.9282 15.7818 86.6099 15.2522C86.2915 14.7226 85.8627 14.2676 85.3525 13.9181C84.9407 13.6674 84.4683 13.5332 83.986 13.5299Z" fill="white"/>
<path d="M78.2361 18.6501C78.1691 18.6515 78.1035 18.6311 78.0491 18.592C77.9947 18.553 77.9544 18.4974 77.9343 18.4336C77.9141 18.3698 77.9153 18.3012 77.9375 18.2381C77.9597 18.175 78.0018 18.1208 78.0574 18.0835C78.4731 17.8394 78.9362 17.6868 79.4158 17.6362C79.8954 17.5855 80.3803 17.6379 80.838 17.7897C80.9166 17.8129 80.9829 17.8661 81.0223 17.9379C81.0617 18.0097 81.071 18.0941 81.0482 18.1727C81.0373 18.2121 81.0187 18.2489 80.9934 18.281C80.9682 18.3131 80.9368 18.34 80.9012 18.36C80.8655 18.38 80.8263 18.3927 80.7856 18.3975C80.745 18.4023 80.7038 18.399 80.6645 18.3878C80.2962 18.2619 79.9055 18.2151 79.5178 18.2503C79.1301 18.2856 78.7542 18.4022 78.4148 18.5924C78.3618 18.6279 78.2999 18.648 78.2361 18.6501Z" fill="white"/>
<path d="M80.3915 24.5579C79.4703 24.5293 78.5794 24.2219 77.8372 23.6764C77.8176 23.6559 77.8066 23.6287 77.8066 23.6004C77.8066 23.572 77.8176 23.5448 77.8372 23.5243C77.8474 23.5138 77.8597 23.5055 77.8733 23.4998C77.8868 23.4941 77.9013 23.4912 77.916 23.4912C77.9307 23.4912 77.9452 23.4941 77.9587 23.4998C77.9723 23.5055 77.9846 23.5138 77.9949 23.5243C78.0842 23.5977 80.2023 25.2452 82.2995 23.7289C82.3114 23.72 82.3251 23.7135 82.3396 23.71C82.3541 23.7064 82.3692 23.7058 82.384 23.7083C82.3987 23.7107 82.4128 23.7162 82.4253 23.7242C82.4379 23.7323 82.4488 23.7428 82.4572 23.7551C82.4675 23.7649 82.4757 23.7767 82.4813 23.7898C82.487 23.8029 82.4899 23.817 82.4899 23.8312C82.4899 23.8455 82.487 23.8595 82.4813 23.8726C82.4757 23.8857 82.4675 23.8975 82.4572 23.9073C81.8586 24.3441 81.1329 24.5727 80.3915 24.5579Z" fill="#020202"/>
<path d="M82.5095 24.3481C82.4947 24.3475 82.4803 24.3438 82.467 24.3372C82.4537 24.3307 82.442 24.3214 82.4326 24.31C82.4231 24.2986 82.4162 24.2854 82.4123 24.2712C82.4083 24.2569 82.4075 24.242 82.4097 24.2274C82.4097 23.9162 82.2956 23.6158 82.089 23.3827C82.0733 23.3569 82.0684 23.3259 82.0753 23.2965C82.0821 23.267 82.1003 23.2415 82.1259 23.2253C82.1383 23.2176 82.1521 23.2125 82.1665 23.2102C82.1809 23.2079 82.1956 23.2085 82.2097 23.2119C82.2239 23.2154 82.2373 23.2215 82.2491 23.2301C82.2608 23.2387 82.2708 23.2496 82.2783 23.262C82.5242 23.5417 82.6571 23.9026 82.6515 24.2746C82.6473 24.2889 82.6402 24.3023 82.6307 24.3138C82.6212 24.3253 82.6096 24.3348 82.5963 24.3417C82.583 24.3486 82.5685 24.3527 82.5536 24.3538C82.5386 24.3549 82.5237 24.3529 82.5095 24.3481Z" fill="#020202"/>
<path d="M104.847 101.988C105.699 106.107 92.7586 108.226 78.2258 107.313C63.6931 106.4 52.0564 100.377 52.1668 98.6827C52.2771 96.988 64.1504 96.3584 78.6989 97.2713C93.2474 98.1842 104.506 100.325 104.847 101.988Z" fill="#282828"/>
<path d="M74.8677 213.92C74.8677 213.92 74.7574 218.358 71.7509 219.607C68.7445 220.856 60.0353 221.984 63.2888 224.854C65.1546 226.49 73.9585 225.431 76.4288 225.431C78.8991 225.431 81.2485 226.511 83.0934 224.854C85.1274 223.028 83.0934 213.935 83.0934 213.935C83.0934 213.935 80.9489 215.053 79.02 214.985C76.2553 214.916 74.8677 213.92 74.8677 213.92Z" fill="#282828"/>
<path d="M109.39 213.92C109.39 213.92 109.274 218.353 106.268 219.607C103.261 220.861 94.5572 221.984 97.8106 224.854C99.6765 226.485 108.475 225.431 110.951 225.431C113.426 225.431 115.771 226.511 117.615 224.854C119.644 223.022 117.615 213.935 117.615 213.935C117.615 213.935 115.471 215.053 113.542 214.985C110.767 214.911 109.39 213.92 109.39 213.92Z" fill="#282828"/>
<path d="M55.5781 99.1702C55.1421 99.1896 54.7284 99.368 54.4155 99.6717C54.1026 99.9754 53.9122 100.383 53.8804 100.818C53.5388 105.015 53.1867 118.194 57.9065 146.505C62.1901 172.214 67.2464 198.116 69.7272 210.514C70.1341 212.651 71.2496 214.59 72.8942 216.017C74.5389 217.445 76.6169 218.279 78.7937 218.384L81.1799 218.479C82.3251 218.509 83.4639 218.298 84.5218 217.86C85.5798 217.421 86.5333 216.765 87.3199 215.933C88.1066 215.102 88.7088 214.115 89.0871 213.035C89.4655 211.956 89.6116 210.809 89.5159 209.669L83.4978 125.65C83.4978 125.65 83.6975 98.6245 76.4758 98.4881C72.1239 98.4409 59.888 98.9865 55.5781 99.1702Z" fill="#A6CEE3"/>
<path d="M69.4284 100.745L103.966 212.876C104.622 215.045 105.949 216.952 107.755 218.325C109.561 219.697 111.756 220.466 114.026 220.52L116.039 220.557C117.166 220.559 118.279 220.312 119.299 219.833C120.319 219.355 121.22 218.657 121.938 217.79C122.656 216.923 123.173 215.908 123.451 214.818C123.73 213.728 123.763 212.59 123.549 211.485L104.418 104.207C104.15 103.006 98.7777 101.72 97.6214 101.39C91.3458 99.5851 68.8134 96.3164 69.4284 100.745Z" fill="#A6CEE3"/>
<path d="M85.464 153.562L78.2686 131.731C76.6879 126.857 73.3499 122.744 68.9023 120.188L69.1809 119.7C73.7467 122.325 77.1755 126.546 78.8046 131.547L86.0001 153.379L85.464 153.562Z" fill="#020202"/>
<path d="M85.9203 83.7925L85.7836 75.4556C85.7729 74.9061 85.9743 74.3736 86.3461 73.9682C86.7179 73.5629 87.2317 73.3158 87.7809 73.2782C93.5625 72.8638 97.6254 71.0694 99.8697 67.9371C102.955 63.5824 102.63 56.8195 101.768 52.129C101.331 49.7261 102.125 48.1206 105.026 46.5833C106.782 45.6773 108.663 45.0389 110.608 44.6893C111.843 44.4794 113.068 44.9726 113.383 46.1793C114.097 48.9012 114.584 51.6774 114.839 54.4795C115.57 62.7063 113.977 69.8574 110.24 75.167C105.652 81.6886 98.2561 85.293 88.2382 85.9069C87.9449 85.9291 87.6501 85.8912 87.372 85.7954C87.094 85.6996 86.8385 85.548 86.6213 85.3499C86.4042 85.1518 86.2299 84.9114 86.1094 84.6436C85.9888 84.3758 85.9245 84.0861 85.9203 83.7925Z" fill="#FFAC96"/>
<path d="M107.218 72.8482C106.865 72.8583 106.519 72.7451 106.24 72.5282C106.02 72.3353 105.852 72.0897 105.753 71.8144C105.654 71.5391 105.626 71.2431 105.673 70.9542C105.746 70.2543 106.028 69.5926 106.482 69.0549C107.465 67.8377 108.958 67.4023 109.804 68.0843C110.65 68.7664 110.545 70.3141 109.562 71.5366C109.29 71.9115 108.939 72.2229 108.534 72.4494C108.13 72.6758 107.681 72.8119 107.218 72.8482ZM108.795 68.0581C108.38 68.0961 107.978 68.2219 107.615 68.4273C107.252 68.6327 106.938 68.9128 106.692 69.249C106.274 69.7463 106.013 70.356 105.941 71.0014C105.905 71.2416 105.928 71.487 106.01 71.7158C106.091 71.9447 106.228 72.1498 106.409 72.3131C107.139 72.8954 108.453 72.4809 109.341 71.3844C110.23 70.2879 110.356 68.908 109.625 68.3204C109.395 68.1443 109.111 68.0518 108.821 68.0581H108.795Z" fill="black"/>
<path d="M71.8711 11.0634C73.1164 9.95862 74.6656 9.25303 76.3177 9.03818C81.5316 8.19872 89.0687 8.96471 92.853 15.4758L94.5191 12.6216L90.903 7.43794L84.4329 5.30259L78.2151 3.87549L72.4703 5.58589L71.8711 11.0634Z" fill="#FFEDA5"/>
<path d="M36.4089 59.4745C41.0605 47.5961 51.6512 37.1553 69.9473 44.2592C81.8416 48.9078 88.0594 63.0159 84.6273 75.2983C80.4225 90.2302 68.3337 95.5345 50.4109 90.5974C38.1014 87.2186 30.5853 74.3172 36.4089 59.4745Z" fill="#FFEDA5"/>
<g opacity="0.5">
<path opacity="0.5" d="M62.1275 89.4066C58.6088 89.3493 55.1138 88.8199 51.7364 87.8326C49.1416 87.1505 46.7218 85.9253 44.6376 84.2383C42.5534 82.5512 40.8525 80.441 39.6477 78.0476C37.0198 72.8587 36.9462 66.5995 39.3639 60.4242L40.0104 60.676L39.3639 60.4242C40.9723 56.3266 44.047 50.7704 49.5815 47.5542C55.0109 44.4062 61.4705 44.2593 68.7868 47.1135C78.9834 51.0957 84.7702 63.3098 81.685 74.3435C78.9203 84.2649 72.1138 89.4066 62.1275 89.4066ZM58.9739 46.4891C55.9281 46.46 52.9306 47.2502 50.2963 48.7767C45.1087 51.7882 42.2022 57.0559 40.6727 60.9489C38.4021 66.7516 38.4809 72.6121 40.9039 77.4443C42.0236 79.6638 43.6031 81.6203 45.5377 83.1842C47.4723 84.7482 49.7178 85.8837 52.1254 86.5157C59.5574 88.5724 65.7647 88.5252 70.5791 86.3845C75.3936 84.2439 78.6628 80.0886 80.3657 73.992C83.2618 63.6246 77.8481 52.1555 68.277 48.4251C65.3186 47.2063 62.1581 46.5497 58.9582 46.4891H58.9739Z" fill="#FFA200"/>
</g>
<path d="M87.7822 73.2781C87.7822 73.2781 79.6985 69.8837 75.93 70.3559C72.1615 70.828 67.7097 74.2646 70.1064 74.4692C71.9578 74.5481 73.8123 74.4214 75.6357 74.0914C75.6357 74.0914 68.9974 75.6654 70.0381 77.04C71.0787 78.4146 76.834 77.04 76.834 77.04C76.834 77.04 69.0815 79.5269 70.4901 80.5238C71.8987 81.5206 77.7695 79.5898 77.7695 79.5898C77.7695 79.5898 70.653 82.2132 72.3139 83.3097C73.9748 84.4063 78.1848 81.1271 79.2202 82.5175C80.2556 83.9078 86.1423 88.1523 90.368 85.7441L87.7822 73.2781Z" fill="#FFAC96"/>
<path d="M75.6353 74.2284C75.6069 74.2291 75.5789 74.2208 75.5553 74.2048C75.5318 74.1888 75.5138 74.1659 75.5039 74.1392C75.4972 74.1223 75.4939 74.1043 75.4942 74.0862C75.4945 74.068 75.4985 74.0501 75.5058 74.0335C75.5132 74.0169 75.5237 74.0019 75.5369 73.9894C75.5501 73.9769 75.5658 73.9672 75.5828 73.9608C75.6616 73.9294 77.4853 73.2159 78.5207 73.9136C78.5449 73.9368 78.5601 73.9678 78.5636 74.0012C78.567 74.0345 78.5586 74.0679 78.5397 74.0956C78.5208 74.1233 78.4927 74.1434 78.4603 74.1523C78.428 74.1613 78.3935 74.1585 78.363 74.1444C77.4485 73.5254 75.7037 74.2127 75.6879 74.2179C75.6717 74.2264 75.6535 74.23 75.6353 74.2284Z" fill="black"/>
<path d="M76.8323 77.1607C76.801 77.1592 76.7712 77.1474 76.7474 77.1273C76.7235 77.1071 76.707 77.0796 76.7004 77.0491C76.6938 77.0186 76.6976 76.9868 76.7109 76.9586C76.7243 76.9304 76.7466 76.9074 76.7745 76.8931C77.8804 76.452 79.1091 76.426 80.2329 76.8197C80.25 76.8261 80.2655 76.8358 80.2787 76.8483C80.292 76.8608 80.3026 76.8757 80.3099 76.8923C80.3173 76.909 80.3212 76.9269 80.3215 76.945C80.3218 76.9632 80.3185 76.9812 80.3118 76.9981C80.2978 77.0328 80.2705 77.0606 80.236 77.0753C80.2015 77.0901 80.1626 77.0906 80.1278 77.0768C79.0723 76.7162 77.9229 76.7423 76.8849 77.1503L76.8323 77.1607Z" fill="black"/>
<path d="M77.7686 79.7103C77.7405 79.7095 77.7131 79.7007 77.6899 79.6849C77.6666 79.6691 77.6483 79.6469 77.6372 79.6211C77.625 79.5869 77.6264 79.5494 77.641 79.5162C77.6557 79.483 77.6826 79.4567 77.7161 79.4427C77.8107 79.406 79.9657 78.556 81.0011 79.3902C81.0148 79.403 81.0257 79.4184 81.0332 79.4356C81.0407 79.4527 81.0445 79.4712 81.0445 79.4899C81.0445 79.5086 81.0407 79.5271 81.0332 79.5442C81.0257 79.5614 81.0148 79.5768 81.0011 79.5896C80.9748 79.6143 80.9401 79.6281 80.9039 79.6281C80.8678 79.6281 80.833 79.6143 80.8067 79.5896C79.8921 78.855 77.8212 79.6735 77.8002 79.6788L77.7686 79.7103Z" fill="black"/>
<path d="M34.3174 80.5028C34.3174 80.5028 34.9902 84.0337 37.9966 83.4251C41.7915 82.6434 45.7493 77.7431 43.3367 78.1785C41.6027 78.5964 39.9157 79.1888 38.3015 79.9466C38.3015 79.9466 45.6178 76.3685 44.3722 74.9729C43.1265 73.5773 36.8823 76.7462 36.8823 76.7462C36.8823 76.7462 43.6836 72.5489 42.1384 71.615C40.5931 70.6811 34.8851 73.53 34.8851 73.53C34.8851 73.53 41.7442 69.805 39.9046 68.8081C38.065 67.8112 35.1741 69.9623 33.5973 70.7703C32.0941 71.5416 31.784 73.3936 32.6092 74.9046C32.6092 74.9046 32.6092 76.9141 33.3871 77.7693C33.6867 78.0998 33.5185 78.656 33.6184 78.9603C33.8143 79.4904 34.0479 80.0059 34.3174 80.5028Z" fill="#FFAC96"/>
<path fill-rule="evenodd" clip-rule="evenodd" d="M55.1267 57.8362L52.708 65.0854C52.4482 65.8639 51.6268 66.2314 50.8733 65.9062V65.9062V65.9062C50.1198 65.5811 49.2984 65.9485 49.0387 66.727L48.9379 67.0291L48.8371 67.3311C48.5773 68.1096 48.9776 69.0043 49.7311 69.3294V69.3294L50.1209 69.4976C50.6592 69.7299 50.9451 70.369 50.7595 70.925V70.925V70.925C50.574 71.4811 49.9873 71.7436 49.4491 71.5113L49.0592 71.3431V71.3431C48.3057 71.0179 47.4843 71.3854 47.2246 72.1639L47.1238 72.4659L47.023 72.768C46.7633 73.5465 47.1636 74.4411 47.9171 74.7663V74.7663V74.7663C48.6706 75.0915 49.0708 75.9861 48.8111 76.7646L48.0048 79.181L47.5345 80.5906C47.0892 81.9251 47.7754 83.4588 49.0671 84.0163V84.0163V84.0163C50.3589 84.5737 51.767 83.9437 52.2122 82.6092L52.6826 81.1996V81.1996C53.3876 79.0866 55.6171 78.0891 57.6623 78.9717L60.0987 80.0231L64.5815 81.9576C65.4964 82.3524 66.4939 81.9062 66.8093 80.9609V80.9609V80.9609C67.1247 80.0156 66.6386 78.9292 65.7237 78.5343L61.2408 76.5998L56.0758 74.371C55.5376 74.1387 55.2517 73.4997 55.4373 72.9436V72.9436V72.9436C55.6228 72.3876 56.2095 72.1251 56.7477 72.3573L58.8149 73.2494C62.3018 74.7541 63.6069 75.0372 66.0212 74.812C72.5467 74.2035 76.5155 66.4327 73.7643 59.6503C72.9732 57.6998 71.1588 55.5041 69.3588 54.3186C68.7623 53.9258 65.966 52.6083 63.1449 51.3909V51.3909C60.3122 50.1685 57.2242 51.55 56.2477 54.4767L55.1267 57.8362ZM67.5759 58.276C68.7622 59.3523 69.724 61.5605 69.767 63.3061C69.8636 67.2187 66.9861 70.5696 63.4414 70.673C62.4966 70.7004 61.88 70.5332 59.6078 69.6326V69.6326C58.1257 69.0451 57.3185 67.3055 57.8244 65.7892L59.1679 61.7626L60.5112 57.7367C61.0157 56.2246 62.6365 55.5416 64.0786 56.2333V56.2333C65.8776 57.096 66.9943 57.7484 67.5759 58.276Z" fill="#DDB200"/>
</svg>
